<ttFont>
    <TTGlyph name=".notdef" xMin="102" yMin="-362" xMax="1126" yMax="1444">
      <contour>
        <pt x="102" y="-362" on="1"/>
        <pt x="102" y="1444" on="1"/>
        <pt x="1126" y="1444" on="1"/>
        <pt x="1126" y="-362" on="1"/>
      </contour>
      <contour>
        <pt x="217" y="-248" on="1"/>
        <pt x="1012" y="-248" on="1"/>
        <pt x="1012" y="1329" on="1"/>
        <pt x="217" y="1329" on="1"/>
      </contour>
    </TTGlyph>
    <TTGlyph name="Ghunna_above" xMin="-274" yMin="1186" xMax="229" yMax="1892">
      <contour>
        <pt x="-66" y="1892" on="1"/>
        <pt x="57" y="1892" on="1"/>
        <pt x="57" y="1495" on="1"/>
        <pt x="-66" y="1495" on="1"/>
      </contour>
      <contour>
        <pt x="-51" y="1186" on="1"/>
        <pt x="-155" y="1186" on="0"/>
        <pt x="-274" y="1311" on="0"/>
        <pt x="-274" y="1417" on="1"/>
        <pt x="-274" y="1513" on="0"/>
        <pt x="-231" y="1599" on="1"/>
        <pt x="-123" y="1599" on="1"/>
        <pt x="-152" y="1495" on="0"/>
        <pt x="-152" y="1417" on="1"/>
        <pt x="-152" y="1355" on="0"/>
        <pt x="-91" y="1286" on="0"/>
        <pt x="-43" y="1286" on="1"/>
        <pt x="-16" y="1286" on="1"/>
        <pt x="106" y="1286" on="0"/>
        <pt x="106" y="1417" on="1"/>
        <pt x="106" y="1599" on="1"/>
        <pt x="229" y="1599" on="1"/>
        <pt x="229" y="1413" on="1"/>
        <pt x="229" y="1186" on="0"/>
        <pt x="-12" y="1186" on="1"/>
      </contour>
    </TTGlyph>
    <TTGlyph name="alef_alt.fina" xMin="205" yMin="0" xMax="776" yMax="1434">
      <contour>
        <pt x="766" y="246" on="1"/>
        <pt x="776" y="246" on="0"/>
        <pt x="776" y="238" on="1"/>
        <pt x="776" y="10" on="1"/>
        <pt x="776" y="0" on="0"/>
        <pt x="766" y="0" on="1"/>
        <pt x="205" y="0" on="1"/>
        <pt x="205" y="1434" on="1"/>
        <pt x="510" y="1434" on="1"/>
        <pt x="510" y="246" on="1"/>
      </contour>
    </TTGlyph>
    <TTGlyph name="alef_alt.isol" xMin="205" yMin="0" xMax="510" yMax="1434">
      <contour>
        <pt x="205" y="1434" on="1"/>
        <pt x="510" y="1434" on="1"/>
        <pt x="510" y="0" on="1"/>
        <pt x="205" y="0" on="1"/>
      </contour>
    </TTGlyph>
    <TTGlyph name="allah" xMin="133" yMin="0" xMax="3021" yMax="2294">
      <contour>
        <pt x="731" y="0" on="1"/>
        <pt x="447" y="0" on="0"/>
        <pt x="133" y="265" on="0"/>
        <pt x="133" y="502" on="1"/>
        <pt x="133" y="653" on="0"/>
        <pt x="277" y="887" on="0"/>
        <pt x="546" y="1014" on="0"/>
        <pt x="731" y="1014" on="1"/>
        <pt x="788" y="1014" on="1"/>
        <pt x="788" y="1114" on="1"/>
        <pt x="1096" y="1114" on="1"/>
        <pt x="1096" y="246" on="1"/>
        <pt x="1438" y="246" on="1"/>
        <pt x="1438" y="1329" on="1"/>
        <pt x="1743" y="1329" on="1"/>
        <pt x="1743" y="246" on="1"/>
        <pt x="2140" y="246" on="1"/>
        <pt x="2140" y="1329" on="1"/>
        <pt x="2445" y="1329" on="1"/>
        <pt x="2445" y="0" on="1"/>
      </contour>
      <contour>
        <pt x="2716" y="1556" on="1"/>
        <pt x="3021" y="1556" on="1"/>
        <pt x="3021" y="0" on="1"/>
        <pt x="2716" y="0" on="1"/>
      </contour>
      <contour>
        <pt x="791" y="246" on="1"/>
        <pt x="791" y="768" on="1"/>
        <pt x="737" y="768" on="1"/>
        <pt x="597" y="768" on="0"/>
        <pt x="446" y="630" on="0"/>
        <pt x="446" y="500" on="1"/>
        <pt x="446" y="378" on="0"/>
        <pt x="594" y="246" on="0"/>
        <pt x="733" y="246" on="1"/>
      </contour>
      <contour>
        <pt x="1378" y="1436" on="1"/>
        <pt x="1293" y="1436" on="0"/>
        <pt x="1200" y="1541" on="0"/>
        <pt x="1200" y="1634" on="1"/>
        <pt x="1200" y="1763" on="1"/>
        <pt x="1327" y="1763" on="1"/>
        <pt x="1327" y="1667" on="1"/>
        <pt x="1327" y="1611" on="0"/>
        <pt x="1357" y="1554" on="0"/>
        <pt x="1399" y="1554" on="1"/>
        <pt x="1440" y="1554" on="0"/>
        <pt x="1479" y="1596" on="0"/>
        <pt x="1479" y="1649" on="1"/>
        <pt x="1479" y="1815" on="1"/>
        <pt x="1595" y="1815" on="1"/>
        <pt x="1595" y="1690" on="1"/>
        <pt x="1595" y="1645" on="0"/>
        <pt x="1627" y="1595" on="0"/>
        <pt x="1673" y="1595" on="1"/>
        <pt x="1715" y="1595" on="0"/>
        <pt x="1747" y="1639" on="0"/>
        <pt x="1747" y="1708" on="1"/>
        <pt x="1747" y="1845" on="1"/>
        <pt x="1874" y="1845" on="1"/>
        <pt x="1874" y="1675" on="1"/>
        <pt x="1874" y="1581" on="0"/>
        <pt x="1777" y="1477" on="0"/>
        <pt x="1688" y="1477" on="1"/>
        <pt x="1594" y="1477" on="0"/>
        <pt x="1544" y="1538" on="1"/>
        <pt x="1493" y="1436" on="0"/>
      </contour>
      <contour>
        <pt x="1479" y="2294" on="1"/>
        <pt x="1595" y="2294" on="1"/>
        <pt x="1595" y="1978" on="1"/>
        <pt x="1479" y="1978" on="1"/>
      </contour>
    </TTGlyph>
    <TTGlyph name="beh_dotless_alt.init" xMin="-20" yMin="0" xMax="653" yMax="1014">
      <contour>
        <pt x="-10" y="0" on="1"/>
        <pt x="-20" y="0" on="0"/>
        <pt x="-20" y="10" on="1"/>
        <pt x="-20" y="238" on="1"/>
        <pt x="-20" y="246" on="0"/>
        <pt x="-10" y="246" on="1"/>
        <pt x="348" y="246" on="1"/>
        <pt x="348" y="1014" on="1"/>
        <pt x="653" y="1014" on="1"/>
        <pt x="653" y="0" on="1"/>
      </contour>
    </TTGlyph>
    <TTGlyph name="beh_dotless_alt.medi" xMin="-20" yMin="0" xMax="930" yMax="1014">
      <contour>
        <pt x="-10" y="0" on="1"/>
        <pt x="-20" y="0" on="0"/>
        <pt x="-20" y="10" on="1"/>
        <pt x="-20" y="238" on="1"/>
        <pt x="-20" y="246" on="0"/>
        <pt x="-10" y="246" on="1"/>
        <pt x="307" y="246" on="1"/>
        <pt x="307" y="1014" on="1"/>
        <pt x="612" y="1014" on="1"/>
        <pt x="612" y="246" on="1"/>
        <pt x="920" y="246" on="1"/>
        <pt x="930" y="246" on="0"/>
        <pt x="930" y="238" on="1"/>
        <pt x="930" y="10" on="1"/>
        <pt x="930" y="0" on="0"/>
        <pt x="920" y="0" on="1"/>
      </contour>
    </TTGlyph>
    <TTGlyph name="circumflex.arabic" xMin="-311" yMin="1286" xMax="309" yMax="1694">
      <contour>
        <pt x="-311" y="1286" on="1"/>
        <pt x="-86" y="1694" on="1"/>
        <pt x="82" y="1694" on="1"/>
        <pt x="309" y="1286" on="1"/>
        <pt x="129" y="1286" on="1"/>
        <pt x="0" y="1550" on="1"/>
        <pt x="-133" y="1286" on="1"/>
      </contour>
    </TTGlyph>
    <TTGlyph name="damma_01" xMin="-301" yMin="1597" xMax="313" yMax="2068">
      <component glyphName="uni064F" x="0" y="0" flags="0x204"/>
    </TTGlyph>
    <TTGlyph name="dammatan_01" xMin="-367" yMin="1597" xMax="391" yMax="2068">
      <component glyphName="uni064C" x="0" y="0" flags="0x204"/>
    </TTGlyph>
    <TTGlyph name="diagonal" xMin="0" yMin="1253" xMax="782" yMax="2017">
      <contour>
        <pt x="0" y="1395" on="1"/>
        <pt x="66" y="1546" on="0"/>
        <pt x="503" y="1924" on="0"/>
        <pt x="723" y="2017" on="1"/>
        <pt x="782" y="1860" on="1"/>
        <pt x="632" y="1803" on="0"/>
        <pt x="329" y="1596" on="0"/>
        <pt x="104" y="1358" on="0"/>
        <pt x="55" y="1253" on="1"/>
      </contour>
    </TTGlyph>
    <TTGlyph name="diagonal2" xMin="0" yMin="1171" xMax="782" yMax="1997">
      <contour>
        <pt x="0" y="1313" on="1"/>
        <pt x="49" y="1425" on="0"/>
        <pt x="305" y="1718" on="0"/>
        <pt x="596" y="1944" on="0"/>
        <pt x="723" y="1997" on="1"/>
        <pt x="782" y="1839" on="1"/>
        <pt x="648" y="1788" on="0"/>
        <pt x="352" y="1566" on="0"/>
        <pt x="108" y="1286" on="0"/>
        <pt x="55" y="1171" on="1"/>
      </contour>
    </TTGlyph>
    <TTGlyph name="fatha_01" xMin="-240" yMin="1589" xMax="240" yMax="1901">
      <component glyphName="uni064E" x="0" y="0" flags="0x204"/>
    </TTGlyph>
    <TTGlyph name="fathatan_01" xMin="-240" yMin="1589" xMax="240" yMax="2132">
      <component glyphName="uni064B" x="0" y="0" flags="0x204"/>
    </TTGlyph>
    <TTGlyph name="feh_dotless.isol" xMin="133" yMin="0" xMax="2028" yMax="1014">
      <contour>
        <pt x="541" y="0" on="1"/>
        <pt x="352" y="0" on="0"/>
        <pt x="133" y="220" on="0"/>
        <pt x="133" y="412" on="1"/>
        <pt x="133" y="489" on="0"/>
        <pt x="169" y="664" on="0"/>
        <pt x="199" y="725" on="1"/>
        <pt x="469" y="725" on="1"/>
        <pt x="438" y="592" on="0"/>
        <pt x="438" y="457" on="1"/>
        <pt x="438" y="362" on="0"/>
        <pt x="544" y="246" on="0"/>
        <pt x="631" y="246" on="1"/>
        <pt x="1163" y="246" on="1"/>
        <pt x="1065" y="365" on="0"/>
        <pt x="1065" y="516" on="1"/>
        <pt x="1065" y="745" on="0"/>
        <pt x="1381" y="1014" on="0"/>
        <pt x="1663" y="1014" on="1"/>
        <pt x="2028" y="1014" on="1"/>
        <pt x="2028" y="0" on="1"/>
      </contour>
      <contour>
        <pt x="1722" y="246" on="1"/>
        <pt x="1722" y="768" on="1"/>
        <pt x="1669" y="768" on="1"/>
        <pt x="1529" y="768" on="0"/>
        <pt x="1378" y="630" on="0"/>
        <pt x="1378" y="500" on="1"/>
        <pt x="1378" y="378" on="0"/>
        <pt x="1526" y="246" on="0"/>
        <pt x="1665" y="246" on="1"/>
      </contour>
    </TTGlyph>
    <TTGlyph name="fourdots.above" xMin="-264" yMin="1192" xMax="295" yMax="1788">
      <contour>
        <pt x="-141" y="1192" on="1"/>
        <pt x="-192" y="1192" on="0"/>
        <pt x="-264" y="1257" on="0"/>
        <pt x="-264" y="1325" on="1"/>
        <pt x="-264" y="1394" on="0"/>
        <pt x="-192" y="1458" on="0"/>
        <pt x="-141" y="1458" on="1"/>
        <pt x="-84" y="1458" on="0"/>
        <pt x="-18" y="1387" on="0"/>
        <pt x="-18" y="1325" on="1"/>
        <pt x="-18" y="1265" on="0"/>
        <pt x="-84" y="1192" on="0"/>
      </contour>
      <contour>
        <pt x="172" y="1192" on="1"/>
        <pt x="121" y="1192" on="0"/>
        <pt x="49" y="1257" on="0"/>
        <pt x="49" y="1325" on="1"/>
        <pt x="49" y="1394" on="0"/>
        <pt x="121" y="1458" on="0"/>
        <pt x="172" y="1458" on="1"/>
        <pt x="223" y="1458" on="0"/>
        <pt x="295" y="1394" on="0"/>
        <pt x="295" y="1325" on="1"/>
        <pt x="295" y="1257" on="0"/>
        <pt x="223" y="1192" on="0"/>
      </contour>
      <contour>
        <pt x="-141" y="1522" on="1"/>
        <pt x="-192" y="1522" on="0"/>
        <pt x="-264" y="1587" on="0"/>
        <pt x="-264" y="1655" on="1"/>
        <pt x="-264" y="1724" on="0"/>
        <pt x="-192" y="1788" on="0"/>
        <pt x="-141" y="1788" on="1"/>
        <pt x="-84" y="1788" on="0"/>
        <pt x="-18" y="1717" on="0"/>
        <pt x="-18" y="1655" on="1"/>
        <pt x="-18" y="1595" on="0"/>
        <pt x="-84" y="1522" on="0"/>
      </contour>
      <contour>
        <pt x="172" y="1522" on="1"/>
        <pt x="121" y="1522" on="0"/>
        <pt x="49" y="1587" on="0"/>
        <pt x="49" y="1655" on="1"/>
        <pt x="49" y="1724" on="0"/>
        <pt x="121" y="1788" on="0"/>
        <pt x="172" y="1788" on="1"/>
        <pt x="223" y="1788" on="0"/>
        <pt x="295" y="1724" on="0"/>
        <pt x="295" y="1655" on="1"/>
        <pt x="295" y="1587" on="0"/>
        <pt x="223" y="1522" on="0"/>
      </contour>
    </TTGlyph>
    <TTGlyph name="fourdots.below" xMin="-264" yMin="-813" xMax="295" yMax="-217">
      <contour>
        <pt x="-141" y="-813" on="1"/>
        <pt x="-192" y="-813" on="0"/>
        <pt x="-264" y="-748" on="0"/>
        <pt x="-264" y="-680" on="1"/>
        <pt x="-264" y="-611" on="0"/>
        <pt x="-192" y="-547" on="0"/>
        <pt x="-141" y="-547" on="1"/>
        <pt x="-84" y="-547" on="0"/>
        <pt x="-18" y="-618" on="0"/>
        <pt x="-18" y="-680" on="1"/>
        <pt x="-18" y="-740" on="0"/>
        <pt x="-84" y="-813" on="0"/>
      </contour>
      <contour>
        <pt x="172" y="-813" on="1"/>
        <pt x="121" y="-813" on="0"/>
        <pt x="49" y="-748" on="0"/>
        <pt x="49" y="-680" on="1"/>
        <pt x="49" y="-611" on="0"/>
        <pt x="121" y="-547" on="0"/>
        <pt x="172" y="-547" on="1"/>
        <pt x="223" y="-547" on="0"/>
        <pt x="295" y="-611" on="0"/>
        <pt x="295" y="-680" on="1"/>
        <pt x="295" y="-748" on="0"/>
        <pt x="223" y="-813" on="0"/>
      </contour>
      <contour>
        <pt x="-141" y="-483" on="1"/>
        <pt x="-192" y="-483" on="0"/>
        <pt x="-264" y="-418" on="0"/>
        <pt x="-264" y="-350" on="1"/>
        <pt x="-264" y="-281" on="0"/>
        <pt x="-192" y="-217" on="0"/>
        <pt x="-141" y="-217" on="1"/>
        <pt x="-84" y="-217" on="0"/>
        <pt x="-18" y="-288" on="0"/>
        <pt x="-18" y="-350" on="1"/>
        <pt x="-18" y="-410" on="0"/>
        <pt x="-84" y="-483" on="0"/>
      </contour>
      <contour>
        <pt x="172" y="-483" on="1"/>
        <pt x="121" y="-483" on="0"/>
        <pt x="49" y="-418" on="0"/>
        <pt x="49" y="-350" on="1"/>
        <pt x="49" y="-281" on="0"/>
        <pt x="121" y="-217" on="0"/>
        <pt x="172" y="-217" on="1"/>
        <pt x="223" y="-217" on="0"/>
        <pt x="295" y="-281" on="0"/>
        <pt x="295" y="-350" on="1"/>
        <pt x="295" y="-418" on="0"/>
        <pt x="223" y="-483" on="0"/>
      </contour>
    </TTGlyph>
    <TTGlyph name="hah_alt.fina" xMin="92" yMin="-668" xMax="1341" yMax="1034">
      <contour>
        <pt x="559" y="-668" on="1"/>
        <pt x="349" y="-668" on="0"/>
        <pt x="92" y="-435" on="0"/>
        <pt x="92" y="-242" on="1"/>
        <pt x="92" y="-133" on="0"/>
        <pt x="180" y="50" on="0"/>
        <pt x="348" y="197" on="0"/>
        <pt x="613" y="321" on="0"/>
        <pt x="840" y="383" on="1"/>
        <pt x="811" y="464" on="0"/>
        <pt x="788" y="549" on="1"/>
        <pt x="755" y="671" on="0"/>
        <pt x="624" y="788" on="0"/>
        <pt x="514" y="788" on="1"/>
        <pt x="380" y="788" on="0"/>
        <pt x="209" y="694" on="1"/>
        <pt x="100" y="920" on="1"/>
        <pt x="199" y="972" on="0"/>
        <pt x="457" y="1034" on="0"/>
        <pt x="578" y="1034" on="1"/>
        <pt x="985" y="1034" on="0"/>
        <pt x="1053" y="639" on="1"/>
        <pt x="1086" y="455" on="0"/>
        <pt x="1228" y="246" on="0"/>
        <pt x="1319" y="246" on="1"/>
        <pt x="1331" y="246" on="1"/>
        <pt x="1341" y="246" on="0"/>
        <pt x="1341" y="238" on="1"/>
        <pt x="1341" y="10" on="1"/>
        <pt x="1341" y="0" on="0"/>
        <pt x="1331" y="0" on="1"/>
        <pt x="1319" y="0" on="1"/>
        <pt x="1177" y="0" on="0"/>
        <pt x="1004" y="84" on="0"/>
        <pt x="944" y="172" on="1"/>
        <pt x="697" y="109" on="0"/>
        <pt x="497" y="8" on="0"/>
        <pt x="391" y="-129" on="0"/>
        <pt x="391" y="-225" on="1"/>
        <pt x="391" y="-311" on="0"/>
        <pt x="520" y="-418" on="0"/>
        <pt x="621" y="-418" on="1"/>
      </contour>
    </TTGlyph>
    <TTGlyph name="hah_alt.isol" xMin="92" yMin="-668" xMax="1266" yMax="1034">
      <contour>
        <pt x="559" y="-668" on="1"/>
        <pt x="349" y="-668" on="0"/>
        <pt x="92" y="-435" on="0"/>
        <pt x="92" y="-242" on="1"/>
        <pt x="92" y="-133" on="0"/>
        <pt x="179" y="48" on="0"/>
        <pt x="346" y="195" on="0"/>
        <pt x="614" y="322" on="0"/>
        <pt x="838" y="383" on="1"/>
        <pt x="806" y="480" on="0"/>
        <pt x="788" y="549" on="1"/>
        <pt x="757" y="670" on="0"/>
        <pt x="624" y="788" on="0"/>
        <pt x="514" y="788" on="1"/>
        <pt x="380" y="788" on="0"/>
        <pt x="209" y="694" on="1"/>
        <pt x="100" y="920" on="1"/>
        <pt x="199" y="972" on="0"/>
        <pt x="457" y="1034" on="0"/>
        <pt x="578" y="1034" on="1"/>
        <pt x="985" y="1034" on="0"/>
        <pt x="1053" y="639" on="1"/>
        <pt x="1088" y="446" on="0"/>
        <pt x="1181" y="265" on="0"/>
        <pt x="1266" y="201" on="1"/>
        <pt x="1110" y="0" on="1"/>
        <pt x="1010" y="79" on="0"/>
        <pt x="944" y="172" on="1"/>
        <pt x="697" y="109" on="0"/>
        <pt x="497" y="8" on="0"/>
        <pt x="391" y="-129" on="0"/>
        <pt x="391" y="-225" on="1"/>
        <pt x="391" y="-311" on="0"/>
        <pt x="520" y="-418" on="0"/>
        <pt x="621" y="-418" on="1"/>
      </contour>
    </TTGlyph>
    <TTGlyph name="hamza_medial" xMin="-203" yMin="827" xMax="229" yMax="1276">
      <contour>
        <pt x="-203" y="932" on="1"/>
        <pt x="-86" y="950" on="1"/>
        <pt x="-126" y="970" on="0"/>
        <pt x="-178" y="1042" on="0"/>
        <pt x="-178" y="1090" on="1"/>
        <pt x="-178" y="1178" on="0"/>
        <pt x="-56" y="1276" on="0"/>
        <pt x="47" y="1276" on="1"/>
        <pt x="148" y="1276" on="0"/>
        <pt x="215" y="1239" on="1"/>
        <pt x="174" y="1135" on="1"/>
        <pt x="122" y="1161" on="0"/>
        <pt x="63" y="1161" on="1"/>
        <pt x="19" y="1161" on="0"/>
        <pt x="-35" y="1109" on="0"/>
        <pt x="-35" y="1063" on="1"/>
        <pt x="-35" y="1031" on="0"/>
        <pt x="1" y="983" on="0"/>
        <pt x="27" y="971" on="1"/>
        <pt x="124" y="985" on="1"/>
        <pt x="229" y="997" on="1"/>
        <pt x="229" y="879" on="1"/>
        <pt x="166" y="875" on="0"/>
        <pt x="-133" y="839" on="0"/>
        <pt x="-203" y="827" on="1"/>
      </contour>
    </TTGlyph>
    <TTGlyph name="heh_ae.fina" xMin="133" yMin="0" xMax="1362" yMax="1114">
      <component glyphName="uni0647.fina" x="0" y="0" flags="0x204"/>
    </TTGlyph>
    <TTGlyph name="kasra_01" xMin="-240" yMin="-582" xMax="240" yMax="-270">
      <component glyphName="uni0650" x="0" y="0" flags="0x204"/>
    </TTGlyph>
    <TTGlyph name="kasratan_01" xMin="-240" yMin="-834" xMax="240" yMax="-270">
      <component glyphName="uni064D" x="0" y="0" flags="0x204"/>
    </TTGlyph>
    <TTGlyph name="onedot.above" xMin="-115" yMin="1190" xMax="158" yMax="1485">
      <contour>
        <pt x="23" y="1190" on="1"/>
        <pt x="-41" y="1190" on="0"/>
        <pt x="-115" y="1269" on="0"/>
        <pt x="-115" y="1337" on="1"/>
        <pt x="-115" y="1406" on="0"/>
        <pt x="-42" y="1485" on="0"/>
        <pt x="23" y="1485" on="1"/>
        <pt x="85" y="1485" on="0"/>
        <pt x="158" y="1407" on="0"/>
        <pt x="158" y="1337" on="1"/>
        <pt x="158" y="1269" on="0"/>
        <pt x="83" y="1190" on="0"/>
      </contour>
    </TTGlyph>
    <TTGlyph name="onedot.below" xMin="-115" yMin="-512" xMax="158" yMax="-217">
      <contour>
        <pt x="23" y="-512" on="1"/>
        <pt x="-41" y="-512" on="0"/>
        <pt x="-115" y="-433" on="0"/>
        <pt x="-115" y="-365" on="1"/>
        <pt x="-115" y="-296" on="0"/>
        <pt x="-42" y="-217" on="0"/>
        <pt x="23" y="-217" on="1"/>
        <pt x="85" y="-217" on="0"/>
        <pt x="158" y="-295" on="0"/>
        <pt x="158" y="-365" on="1"/>
        <pt x="158" y="-433" on="0"/>
        <pt x="83" y="-512" on="0"/>
      </contour>
    </TTGlyph>
    <TTGlyph name="patah.wide" xMin="0" yMin="287" xMax="700" yMax="543">
      <contour>
        <pt x="0" y="287" on="1"/>
        <pt x="0" y="543" on="1"/>
        <pt x="700" y="543" on="1"/>
        <pt x="700" y="287" on="1"/>
      </contour>
    </TTGlyph>
    <TTGlyph name="riyal" xMin="133" yMin="-512" xMax="3592" yMax="1556">
      <contour>
        <pt x="690" y="-492" on="1"/>
        <pt x="519" y="-492" on="0"/>
        <pt x="266" y="-348" on="0"/>
        <pt x="133" y="-87" on="0"/>
        <pt x="133" y="82" on="1"/>
        <pt x="133" y="198" on="0"/>
        <pt x="189" y="439" on="0"/>
        <pt x="238" y="535" on="1"/>
        <pt x="508" y="535" on="1"/>
        <pt x="476" y="425" on="0"/>
        <pt x="438" y="184" on="0"/>
        <pt x="438" y="80" on="1"/>
        <pt x="438" y="-69" on="0"/>
        <pt x="588" y="-246" on="0"/>
        <pt x="711" y="-246" on="1"/>
        <pt x="772" y="-246" on="1"/>
        <pt x="930" y="-246" on="0"/>
        <pt x="1079" y="-75" on="0"/>
        <pt x="1079" y="80" on="1"/>
        <pt x="1079" y="1556" on="1"/>
        <pt x="1384" y="1556" on="1"/>
        <pt x="1384" y="72" on="1"/>
        <pt x="1384" y="-492" on="0"/>
        <pt x="780" y="-492" on="1"/>
      </contour>
      <contour>
        <pt x="1733" y="1556" on="1"/>
        <pt x="2038" y="1556" on="1"/>
        <pt x="2038" y="246" on="1"/>
        <pt x="2540" y="246" on="1"/>
        <pt x="2540" y="1014" on="1"/>
        <pt x="2845" y="1014" on="1"/>
        <pt x="2845" y="0" on="1"/>
        <pt x="1733" y="0" on="1"/>
      </contour>
      <contour>
        <pt x="3164" y="-492" on="1"/>
        <pt x="3059" y="-492" on="0"/>
        <pt x="2886" y="-443" on="0"/>
        <pt x="2787" y="-377" on="1"/>
        <pt x="2910" y="-178" on="1"/>
        <pt x="2964" y="-212" on="0"/>
        <pt x="3047" y="-238" on="0"/>
        <pt x="3105" y="-238" on="1"/>
        <pt x="3187" y="-238" on="0"/>
        <pt x="3287" y="-113" on="0"/>
        <pt x="3287" y="-18" on="1"/>
        <pt x="3287" y="1014" on="1"/>
        <pt x="3592" y="1014" on="1"/>
        <pt x="3592" y="-33" on="1"/>
        <pt x="3592" y="-244" on="0"/>
        <pt x="3359" y="-492" on="0"/>
      </contour>
      <contour>
        <pt x="2179" y="-512" on="1"/>
        <pt x="2118" y="-512" on="0"/>
        <pt x="2042" y="-436" on="0"/>
        <pt x="2042" y="-365" on="1"/>
        <pt x="2042" y="-293" on="0"/>
        <pt x="2115" y="-217" on="0"/>
        <pt x="2179" y="-217" on="1"/>
        <pt x="2242" y="-217" on="0"/>
        <pt x="2314" y="-295" on="0"/>
        <pt x="2314" y="-365" on="1"/>
        <pt x="2314" y="-435" on="0"/>
        <pt x="2240" y="-512" on="0"/>
      </contour>
      <contour>
        <pt x="2527" y="-512" on="1"/>
        <pt x="2466" y="-512" on="0"/>
        <pt x="2390" y="-436" on="0"/>
        <pt x="2390" y="-365" on="1"/>
        <pt x="2390" y="-293" on="0"/>
        <pt x="2463" y="-217" on="0"/>
        <pt x="2527" y="-217" on="1"/>
        <pt x="2590" y="-217" on="0"/>
        <pt x="2662" y="-295" on="0"/>
        <pt x="2662" y="-365" on="1"/>
        <pt x="2662" y="-435" on="0"/>
        <pt x="2588" y="-512" on="0"/>
      </contour>
    </TTGlyph>
    <TTGlyph name="shadda_01" xMin="-326" yMin="1651" xMax="348" yMax="2060">
      <component glyphName="uni0651" x="0" y="0" flags="0x204"/>
    </TTGlyph>
    <TTGlyph name="smallv.arabic" xMin="-330" yMin="1288" xMax="332" yMax="1696">
      <contour>
        <pt x="332" y="1696" on="1"/>
        <pt x="106" y="1288" on="1"/>
        <pt x="-102" y="1288" on="1"/>
        <pt x="-330" y="1696" on="1"/>
        <pt x="-129" y="1696" on="1"/>
        <pt x="0" y="1432" on="1"/>
        <pt x="133" y="1696" on="1"/>
      </contour>
    </TTGlyph>
    <TTGlyph name="sukun_01" xMin="-225" yMin="1671" xMax="227" yMax="2101">
      <component glyphName="uni0652" x="0" y="0" flags="0x204"/>
    </TTGlyph>
    <TTGlyph name="threedots.above" xMin="-291" yMin="1190" xMax="330" yMax="1769">
      <contour>
        <pt x="20" y="1520" on="1"/>
        <pt x="-29" y="1520" on="0"/>
        <pt x="-96" y="1582" on="0"/>
        <pt x="-96" y="1645" on="1"/>
        <pt x="-96" y="1710" on="0"/>
        <pt x="-29" y="1769" on="0"/>
        <pt x="20" y="1769" on="1"/>
        <pt x="73" y="1769" on="0"/>
        <pt x="137" y="1703" on="0"/>
        <pt x="137" y="1645" on="1"/>
        <pt x="137" y="1589" on="0"/>
        <pt x="74" y="1520" on="0"/>
      </contour>
      <contour>
        <pt x="-154" y="1190" on="1"/>
        <pt x="-217" y="1190" on="0"/>
        <pt x="-291" y="1269" on="0"/>
        <pt x="-291" y="1337" on="1"/>
        <pt x="-291" y="1406" on="0"/>
        <pt x="-218" y="1485" on="0"/>
        <pt x="-154" y="1485" on="1"/>
        <pt x="-90" y="1485" on="0"/>
        <pt x="-18" y="1406" on="0"/>
        <pt x="-18" y="1337" on="1"/>
        <pt x="-18" y="1269" on="0"/>
        <pt x="-93" y="1190" on="0"/>
      </contour>
      <contour>
        <pt x="195" y="1190" on="1"/>
        <pt x="131" y="1190" on="0"/>
        <pt x="57" y="1269" on="0"/>
        <pt x="57" y="1337" on="1"/>
        <pt x="57" y="1406" on="0"/>
        <pt x="130" y="1485" on="0"/>
        <pt x="195" y="1485" on="1"/>
        <pt x="257" y="1485" on="0"/>
        <pt x="330" y="1407" on="0"/>
        <pt x="330" y="1337" on="1"/>
        <pt x="330" y="1269" on="0"/>
        <pt x="255" y="1190" on="0"/>
      </contour>
    </TTGlyph>
    <TTGlyph name="threedots.below" xMin="-291" yMin="-674" xMax="330" yMax="-121">
      <contour>
        <pt x="20" y="-674" on="1"/>
        <pt x="-29" y="-674" on="0"/>
        <pt x="-96" y="-612" on="0"/>
        <pt x="-96" y="-549" on="1"/>
        <pt x="-96" y="-484" on="0"/>
        <pt x="-29" y="-424" on="0"/>
        <pt x="20" y="-424" on="1"/>
        <pt x="74" y="-424" on="0"/>
        <pt x="137" y="-493" on="0"/>
        <pt x="137" y="-549" on="1"/>
        <pt x="137" y="-605" on="0"/>
        <pt x="74" y="-674" on="0"/>
      </contour>
      <contour>
        <pt x="-154" y="-416" on="1"/>
        <pt x="-217" y="-416" on="0"/>
        <pt x="-291" y="-336" on="0"/>
        <pt x="-291" y="-268" on="1"/>
        <pt x="-291" y="-200" on="0"/>
        <pt x="-219" y="-121" on="0"/>
        <pt x="-154" y="-121" on="1"/>
        <pt x="-90" y="-121" on="0"/>
        <pt x="-18" y="-200" on="0"/>
        <pt x="-18" y="-268" on="1"/>
        <pt x="-18" y="-337" on="0"/>
        <pt x="-93" y="-416" on="0"/>
      </contour>
      <contour>
        <pt x="195" y="-416" on="1"/>
        <pt x="131" y="-416" on="0"/>
        <pt x="57" y="-338" on="0"/>
        <pt x="57" y="-268" on="1"/>
        <pt x="57" y="-200" on="0"/>
        <pt x="129" y="-121" on="0"/>
        <pt x="195" y="-121" on="1"/>
        <pt x="257" y="-121" on="0"/>
        <pt x="330" y="-199" on="0"/>
        <pt x="330" y="-268" on="1"/>
        <pt x="330" y="-337" on="0"/>
        <pt x="255" y="-416" on="0"/>
      </contour>
    </TTGlyph>
    <TTGlyph name="threedots.horz.below" xMin="-485" yMin="-512" xMax="481" yMax="-217">
      <contour>
        <pt x="-348" y="-512" on="1"/>
        <pt x="-409" y="-512" on="0"/>
        <pt x="-485" y="-436" on="0"/>
        <pt x="-485" y="-365" on="1"/>
        <pt x="-485" y="-293" on="0"/>
        <pt x="-412" y="-217" on="0"/>
        <pt x="-348" y="-217" on="1"/>
        <pt x="-285" y="-217" on="0"/>
        <pt x="-213" y="-295" on="0"/>
        <pt x="-213" y="-365" on="1"/>
        <pt x="-213" y="-435" on="0"/>
        <pt x="-287" y="-512" on="0"/>
      </contour>
      <contour>
        <pt x="0" y="-512" on="1"/>
        <pt x="-61" y="-512" on="0"/>
        <pt x="-137" y="-436" on="0"/>
        <pt x="-137" y="-365" on="1"/>
        <pt x="-137" y="-293" on="0"/>
        <pt x="-64" y="-217" on="0"/>
        <pt x="0" y="-217" on="1"/>
        <pt x="63" y="-217" on="0"/>
        <pt x="135" y="-295" on="0"/>
        <pt x="135" y="-365" on="1"/>
        <pt x="135" y="-435" on="0"/>
        <pt x="61" y="-512" on="0"/>
      </contour>
      <contour>
        <pt x="346" y="-512" on="1"/>
        <pt x="285" y="-512" on="0"/>
        <pt x="209" y="-436" on="0"/>
        <pt x="209" y="-365" on="1"/>
        <pt x="209" y="-293" on="0"/>
        <pt x="282" y="-217" on="0"/>
        <pt x="346" y="-217" on="1"/>
        <pt x="409" y="-217" on="0"/>
        <pt x="481" y="-295" on="0"/>
        <pt x="481" y="-365" on="1"/>
        <pt x="481" y="-435" on="0"/>
        <pt x="407" y="-512" on="0"/>
      </contour>
    </TTGlyph>
    <TTGlyph name="threedots.horz_alt1.below" xMin="35" yMin="-512" xMax="1001" yMax="-217">
      <component glyphName="threedots.horz.below" x="520" y="0" flags="0x4"/>
    </TTGlyph>
    <TTGlyph name="threedots.rev.above" xMin="-293" yMin="1188" xMax="328" yMax="1767">
      <contour>
        <pt x="16" y="1438" on="1"/>
        <pt x="66" y="1438" on="0"/>
        <pt x="133" y="1376" on="0"/>
        <pt x="133" y="1313" on="1"/>
        <pt x="133" y="1248" on="0"/>
        <pt x="66" y="1188" on="0"/>
        <pt x="16" y="1188" on="1"/>
        <pt x="-37" y="1188" on="0"/>
        <pt x="-100" y="1256" on="0"/>
        <pt x="-100" y="1313" on="1"/>
        <pt x="-100" y="1369" on="0"/>
        <pt x="-37" y="1438" on="0"/>
      </contour>
      <contour>
        <pt x="190" y="1767" on="1"/>
        <pt x="254" y="1767" on="0"/>
        <pt x="328" y="1689" on="0"/>
        <pt x="328" y="1620" on="1"/>
        <pt x="328" y="1552" on="0"/>
        <pt x="256" y="1473" on="0"/>
        <pt x="190" y="1473" on="1"/>
        <pt x="128" y="1473" on="0"/>
        <pt x="55" y="1551" on="0"/>
        <pt x="55" y="1620" on="1"/>
        <pt x="55" y="1688" on="0"/>
        <pt x="129" y="1767" on="0"/>
      </contour>
      <contour>
        <pt x="-158" y="1767" on="1"/>
        <pt x="-94" y="1767" on="0"/>
        <pt x="-20" y="1689" on="0"/>
        <pt x="-20" y="1620" on="1"/>
        <pt x="-20" y="1552" on="0"/>
        <pt x="-92" y="1473" on="0"/>
        <pt x="-158" y="1473" on="1"/>
        <pt x="-220" y="1473" on="0"/>
        <pt x="-293" y="1551" on="0"/>
        <pt x="-293" y="1620" on="1"/>
        <pt x="-293" y="1688" on="0"/>
        <pt x="-219" y="1767" on="0"/>
      </contour>
    </TTGlyph>
    <TTGlyph name="threedots.rev.below" xMin="-293" yMin="-674" xMax="328" yMax="-121">
      <contour>
        <pt x="16" y="-121" on="1"/>
        <pt x="66" y="-121" on="0"/>
        <pt x="133" y="-183" on="0"/>
        <pt x="133" y="-246" on="1"/>
        <pt x="133" y="-311" on="0"/>
        <pt x="66" y="-371" on="0"/>
        <pt x="16" y="-371" on="1"/>
        <pt x="-37" y="-371" on="0"/>
        <pt x="-100" y="-303" on="0"/>
        <pt x="-100" y="-246" on="1"/>
        <pt x="-100" y="-190" on="0"/>
        <pt x="-37" y="-121" on="0"/>
      </contour>
      <contour>
        <pt x="190" y="-379" on="1"/>
        <pt x="254" y="-379" on="0"/>
        <pt x="328" y="-457" on="0"/>
        <pt x="328" y="-526" on="1"/>
        <pt x="328" y="-595" on="0"/>
        <pt x="255" y="-674" on="0"/>
        <pt x="190" y="-674" on="1"/>
        <pt x="128" y="-674" on="0"/>
        <pt x="55" y="-596" on="0"/>
        <pt x="55" y="-526" on="1"/>
        <pt x="55" y="-458" on="0"/>
        <pt x="129" y="-379" on="0"/>
      </contour>
      <contour>
        <pt x="-158" y="-379" on="1"/>
        <pt x="-94" y="-379" on="0"/>
        <pt x="-20" y="-457" on="0"/>
        <pt x="-20" y="-526" on="1"/>
        <pt x="-20" y="-595" on="0"/>
        <pt x="-93" y="-674" on="0"/>
        <pt x="-158" y="-674" on="1"/>
        <pt x="-220" y="-674" on="0"/>
        <pt x="-293" y="-596" on="0"/>
        <pt x="-293" y="-526" on="1"/>
        <pt x="-293" y="-458" on="0"/>
        <pt x="-219" y="-379" on="0"/>
      </contour>
    </TTGlyph>
    <TTGlyph name="threedots.rev_alt1.below" xMin="41" yMin="-674" xMax="662" yMax="-121">
      <component glyphName="threedots.rev.below" x="334" y="0" flags="0x4"/>
    </TTGlyph>
    <TTGlyph name="threedots.rev_alt2.below" xMin="678" yMin="-674" xMax="1272" yMax="-80">
      <contour>
        <pt x="1137" y="-426" on="1"/>
        <pt x="1077" y="-426" on="0"/>
        <pt x="977" y="-324" on="0"/>
        <pt x="977" y="-266" on="1"/>
        <pt x="977" y="-216" on="0"/>
        <pt x="1065" y="-131" on="0"/>
        <pt x="1114" y="-131" on="1"/>
        <pt x="1170" y="-131" on="0"/>
        <pt x="1272" y="-232" on="0"/>
        <pt x="1272" y="-287" on="1"/>
        <pt x="1272" y="-336" on="0"/>
        <pt x="1191" y="-424" on="0"/>
      </contour>
      <contour>
        <pt x="811" y="-330" on="1"/>
        <pt x="762" y="-330" on="0"/>
        <pt x="678" y="-246" on="0"/>
        <pt x="678" y="-197" on="1"/>
        <pt x="678" y="-154" on="0"/>
        <pt x="749" y="-80" on="0"/>
        <pt x="795" y="-80" on="1"/>
        <pt x="844" y="-80" on="0"/>
        <pt x="928" y="-160" on="0"/>
        <pt x="928" y="-211" on="1"/>
        <pt x="928" y="-255" on="0"/>
        <pt x="856" y="-328" on="0"/>
      </contour>
      <contour>
        <pt x="891" y="-674" on="1"/>
        <pt x="831" y="-674" on="0"/>
        <pt x="731" y="-572" on="0"/>
        <pt x="731" y="-514" on="1"/>
        <pt x="731" y="-464" on="0"/>
        <pt x="819" y="-379" on="0"/>
        <pt x="868" y="-379" on="1"/>
        <pt x="924" y="-379" on="0"/>
        <pt x="1026" y="-480" on="0"/>
        <pt x="1026" y="-535" on="1"/>
        <pt x="1026" y="-586" on="0"/>
        <pt x="944" y="-672" on="0"/>
      </contour>
    </TTGlyph>
    <TTGlyph name="threedots.small.above" xMin="-231" yMin="1245" xMax="266" yMax="1710">
      <contour>
        <pt x="16" y="1446" on="1"/>
        <pt x="57" y="1446" on="0"/>
        <pt x="111" y="1397" on="0"/>
        <pt x="111" y="1346" on="1"/>
        <pt x="111" y="1293" on="0"/>
        <pt x="57" y="1245" on="0"/>
        <pt x="16" y="1245" on="1"/>
        <pt x="-27" y="1245" on="0"/>
        <pt x="-78" y="1301" on="0"/>
        <pt x="-78" y="1346" on="1"/>
        <pt x="-78" y="1396" on="0"/>
        <pt x="-21" y="1446" on="0"/>
      </contour>
      <contour>
        <pt x="156" y="1710" on="1"/>
        <pt x="202" y="1710" on="0"/>
        <pt x="266" y="1651" on="0"/>
        <pt x="266" y="1591" on="1"/>
        <pt x="266" y="1529" on="0"/>
        <pt x="202" y="1473" on="0"/>
        <pt x="156" y="1473" on="1"/>
        <pt x="111" y="1473" on="0"/>
        <pt x="47" y="1529" on="0"/>
        <pt x="47" y="1591" on="1"/>
        <pt x="47" y="1651" on="0"/>
        <pt x="111" y="1710" on="0"/>
      </contour>
      <contour>
        <pt x="-123" y="1710" on="1"/>
        <pt x="-76" y="1710" on="0"/>
        <pt x="-12" y="1651" on="0"/>
        <pt x="-12" y="1591" on="1"/>
        <pt x="-12" y="1535" on="0"/>
        <pt x="-71" y="1473" on="0"/>
        <pt x="-123" y="1473" on="1"/>
        <pt x="-172" y="1473" on="0"/>
        <pt x="-231" y="1535" on="0"/>
        <pt x="-231" y="1591" on="1"/>
        <pt x="-231" y="1651" on="0"/>
        <pt x="-168" y="1710" on="0"/>
      </contour>
    </TTGlyph>
    <TTGlyph name="threedots.small.below" xMin="-231" yMin="-618" xMax="266" yMax="-176">
      <contour>
        <pt x="16" y="-176" on="1"/>
        <pt x="57" y="-176" on="0"/>
        <pt x="111" y="-225" on="0"/>
        <pt x="111" y="-276" on="1"/>
        <pt x="111" y="-327" on="0"/>
        <pt x="57" y="-377" on="0"/>
        <pt x="16" y="-377" on="1"/>
        <pt x="-21" y="-377" on="0"/>
        <pt x="-78" y="-327" on="0"/>
        <pt x="-78" y="-276" on="1"/>
        <pt x="-78" y="-226" on="0"/>
        <pt x="-21" y="-176" on="0"/>
      </contour>
      <contour>
        <pt x="156" y="-383" on="1"/>
        <pt x="202" y="-383" on="0"/>
        <pt x="266" y="-440" on="0"/>
        <pt x="266" y="-500" on="1"/>
        <pt x="266" y="-562" on="0"/>
        <pt x="202" y="-618" on="0"/>
        <pt x="156" y="-618" on="1"/>
        <pt x="111" y="-618" on="0"/>
        <pt x="47" y="-562" on="0"/>
        <pt x="47" y="-500" on="1"/>
        <pt x="47" y="-440" on="0"/>
        <pt x="111" y="-383" on="0"/>
      </contour>
      <contour>
        <pt x="-123" y="-383" on="1"/>
        <pt x="-76" y="-383" on="0"/>
        <pt x="-12" y="-440" on="0"/>
        <pt x="-12" y="-500" on="1"/>
        <pt x="-12" y="-556" on="0"/>
        <pt x="-71" y="-618" on="0"/>
        <pt x="-123" y="-618" on="1"/>
        <pt x="-172" y="-618" on="0"/>
        <pt x="-231" y="-556" on="0"/>
        <pt x="-231" y="-500" on="1"/>
        <pt x="-231" y="-445" on="0"/>
        <pt x="-172" y="-383" on="0"/>
      </contour>
    </TTGlyph>
    <TTGlyph name="threedots_alt1.above" xMin="68" yMin="1688" xMax="541" yMax="2167">
      <contour>
        <pt x="174" y="1964" on="1"/>
        <pt x="138" y="1964" on="0"/>
        <pt x="68" y="2028" on="0"/>
        <pt x="68" y="2068" on="1"/>
        <pt x="68" y="2104" on="0"/>
        <pt x="126" y="2167" on="0"/>
        <pt x="166" y="2167" on="1"/>
        <pt x="202" y="2167" on="0"/>
        <pt x="268" y="2094" on="0"/>
        <pt x="268" y="2060" on="1"/>
        <pt x="268" y="2024" on="0"/>
        <pt x="212" y="1966" on="0"/>
      </contour>
      <contour>
        <pt x="305" y="1997" on="1"/>
        <pt x="305" y="2041" on="0"/>
        <pt x="370" y="2109" on="0"/>
        <pt x="414" y="2109" on="1"/>
        <pt x="461" y="2109" on="0"/>
        <pt x="541" y="2030" on="0"/>
        <pt x="541" y="1985" on="1"/>
        <pt x="541" y="1944" on="0"/>
        <pt x="472" y="1874" on="0"/>
        <pt x="430" y="1874" on="1"/>
        <pt x="381" y="1874" on="0"/>
        <pt x="307" y="1953" on="0"/>
      </contour>
      <contour>
        <pt x="96" y="1810" on="1"/>
        <pt x="96" y="1855" on="0"/>
        <pt x="162" y="1923" on="0"/>
        <pt x="205" y="1923" on="1"/>
        <pt x="252" y="1923" on="0"/>
        <pt x="332" y="1844" on="0"/>
        <pt x="332" y="1798" on="1"/>
        <pt x="332" y="1758" on="0"/>
        <pt x="262" y="1688" on="0"/>
        <pt x="221" y="1688" on="1"/>
        <pt x="173" y="1688" on="0"/>
        <pt x="98" y="1766" on="0"/>
      </contour>
    </TTGlyph>
    <TTGlyph name="threedots_alt1.below" xMin="41" yMin="-674" xMax="662" yMax="-121">
      <component glyphName="threedots.below" x="332" y="0" flags="0x4"/>
    </TTGlyph>
    <TTGlyph name="threedots_alt2.above" xMin="72" yMin="1419" xMax="545" yMax="1898">
      <contour>
        <pt x="178" y="1696" on="1"/>
        <pt x="142" y="1696" on="0"/>
        <pt x="72" y="1760" on="0"/>
        <pt x="72" y="1800" on="1"/>
        <pt x="72" y="1837" on="0"/>
        <pt x="132" y="1898" on="0"/>
        <pt x="170" y="1898" on="1"/>
        <pt x="205" y="1898" on="0"/>
        <pt x="272" y="1826" on="0"/>
        <pt x="272" y="1792" on="1"/>
        <pt x="272" y="1756" on="0"/>
        <pt x="216" y="1698" on="0"/>
      </contour>
      <contour>
        <pt x="309" y="1729" on="1"/>
        <pt x="309" y="1773" on="0"/>
        <pt x="374" y="1841" on="0"/>
        <pt x="418" y="1841" on="1"/>
        <pt x="465" y="1841" on="0"/>
        <pt x="545" y="1762" on="0"/>
        <pt x="545" y="1716" on="1"/>
        <pt x="545" y="1676" on="0"/>
        <pt x="475" y="1606" on="0"/>
        <pt x="434" y="1606" on="1"/>
        <pt x="385" y="1606" on="0"/>
        <pt x="311" y="1685" on="0"/>
      </contour>
      <contour>
        <pt x="100" y="1542" on="1"/>
        <pt x="100" y="1585" on="0"/>
        <pt x="165" y="1655" on="0"/>
        <pt x="209" y="1655" on="1"/>
        <pt x="256" y="1655" on="0"/>
        <pt x="336" y="1576" on="0"/>
        <pt x="336" y="1530" on="1"/>
        <pt x="336" y="1488" on="0"/>
        <pt x="265" y="1419" on="0"/>
        <pt x="225" y="1419" on="1"/>
        <pt x="178" y="1419" on="0"/>
        <pt x="101" y="1497" on="0"/>
      </contour>
    </TTGlyph>
    <TTGlyph name="threedots_alt2.below" xMin="13" yMin="-618" xMax="510" yMax="-176">
      <component glyphName="threedots.small.below" x="244" y="0" flags="0x4"/>
    </TTGlyph>
    <TTGlyph name="twodots.above" xMin="-295" yMin="1190" xMax="326" yMax="1485">
      <contour>
        <pt x="-158" y="1190" on="1"/>
        <pt x="-221" y="1190" on="0"/>
        <pt x="-295" y="1269" on="0"/>
        <pt x="-295" y="1337" on="1"/>
        <pt x="-295" y="1406" on="0"/>
        <pt x="-222" y="1485" on="0"/>
        <pt x="-158" y="1485" on="1"/>
        <pt x="-95" y="1485" on="0"/>
        <pt x="-23" y="1407" on="0"/>
        <pt x="-23" y="1337" on="1"/>
        <pt x="-23" y="1267" on="0"/>
        <pt x="-97" y="1190" on="0"/>
      </contour>
      <contour>
        <pt x="190" y="1190" on="1"/>
        <pt x="127" y="1190" on="0"/>
        <pt x="53" y="1269" on="0"/>
        <pt x="53" y="1337" on="1"/>
        <pt x="53" y="1406" on="0"/>
        <pt x="126" y="1485" on="0"/>
        <pt x="190" y="1485" on="1"/>
        <pt x="254" y="1485" on="0"/>
        <pt x="326" y="1406" on="0"/>
        <pt x="326" y="1337" on="1"/>
        <pt x="326" y="1269" on="0"/>
        <pt x="251" y="1190" on="0"/>
      </contour>
    </TTGlyph>
    <TTGlyph name="twodots.below" xMin="-295" yMin="-512" xMax="326" yMax="-217">
      <contour>
        <pt x="-158" y="-512" on="1"/>
        <pt x="-221" y="-512" on="0"/>
        <pt x="-295" y="-433" on="0"/>
        <pt x="-295" y="-365" on="1"/>
        <pt x="-295" y="-296" on="0"/>
        <pt x="-222" y="-217" on="0"/>
        <pt x="-158" y="-217" on="1"/>
        <pt x="-95" y="-217" on="0"/>
        <pt x="-23" y="-295" on="0"/>
        <pt x="-23" y="-365" on="1"/>
        <pt x="-23" y="-435" on="0"/>
        <pt x="-97" y="-512" on="0"/>
      </contour>
      <contour>
        <pt x="190" y="-512" on="1"/>
        <pt x="127" y="-512" on="0"/>
        <pt x="53" y="-433" on="0"/>
        <pt x="53" y="-365" on="1"/>
        <pt x="53" y="-296" on="0"/>
        <pt x="126" y="-217" on="0"/>
        <pt x="190" y="-217" on="1"/>
        <pt x="254" y="-217" on="0"/>
        <pt x="326" y="-296" on="0"/>
        <pt x="326" y="-365" on="1"/>
        <pt x="326" y="-433" on="0"/>
        <pt x="251" y="-512" on="0"/>
      </contour>
    </TTGlyph>
    <TTGlyph name="twodots.small.above" xMin="-254" yMin="1219" xMax="244" yMax="1456">
      <contour>
        <pt x="-143" y="1219" on="1"/>
        <pt x="-190" y="1219" on="0"/>
        <pt x="-254" y="1277" on="0"/>
        <pt x="-254" y="1337" on="1"/>
        <pt x="-254" y="1399" on="0"/>
        <pt x="-190" y="1456" on="0"/>
        <pt x="-143" y="1456" on="1"/>
        <pt x="-94" y="1456" on="0"/>
        <pt x="-35" y="1394" on="0"/>
        <pt x="-35" y="1337" on="1"/>
        <pt x="-35" y="1277" on="0"/>
        <pt x="-98" y="1219" on="0"/>
      </contour>
      <contour>
        <pt x="135" y="1219" on="1"/>
        <pt x="89" y="1219" on="0"/>
        <pt x="25" y="1277" on="0"/>
        <pt x="25" y="1337" on="1"/>
        <pt x="25" y="1399" on="0"/>
        <pt x="89" y="1456" on="0"/>
        <pt x="135" y="1456" on="1"/>
        <pt x="180" y="1456" on="0"/>
        <pt x="244" y="1399" on="0"/>
        <pt x="244" y="1337" on="1"/>
        <pt x="244" y="1277" on="0"/>
        <pt x="180" y="1219" on="0"/>
      </contour>
    </TTGlyph>
    <TTGlyph name="twodots.small.below" xMin="-250" yMin="-483" xMax="248" yMax="-246">
      <contour>
        <pt x="-139" y="-483" on="1"/>
        <pt x="-186" y="-483" on="0"/>
        <pt x="-250" y="-425" on="0"/>
        <pt x="-250" y="-365" on="1"/>
        <pt x="-250" y="-303" on="0"/>
        <pt x="-186" y="-246" on="0"/>
        <pt x="-139" y="-246" on="1"/>
        <pt x="-90" y="-246" on="0"/>
        <pt x="-31" y="-308" on="0"/>
        <pt x="-31" y="-365" on="1"/>
        <pt x="-31" y="-424" on="0"/>
        <pt x="-95" y="-483" on="0"/>
      </contour>
      <contour>
        <pt x="139" y="-483" on="1"/>
        <pt x="93" y="-483" on="0"/>
        <pt x="29" y="-425" on="0"/>
        <pt x="29" y="-365" on="1"/>
        <pt x="29" y="-303" on="0"/>
        <pt x="93" y="-246" on="0"/>
        <pt x="139" y="-246" on="1"/>
        <pt x="184" y="-246" on="0"/>
        <pt x="248" y="-303" on="0"/>
        <pt x="248" y="-365" on="1"/>
        <pt x="248" y="-425" on="0"/>
        <pt x="184" y="-483" on="0"/>
      </contour>
    </TTGlyph>
    <TTGlyph name="twodots.vert.above" xMin="-137" yMin="1190" xMax="135" yMax="1866">
      <contour>
        <pt x="0" y="1190" on="1"/>
        <pt x="-61" y="1190" on="0"/>
        <pt x="-137" y="1266" on="0"/>
        <pt x="-137" y="1337" on="1"/>
        <pt x="-137" y="1409" on="0"/>
        <pt x="-64" y="1485" on="0"/>
        <pt x="0" y="1485" on="1"/>
        <pt x="63" y="1485" on="0"/>
        <pt x="135" y="1407" on="0"/>
        <pt x="135" y="1337" on="1"/>
        <pt x="135" y="1267" on="0"/>
        <pt x="61" y="1190" on="0"/>
      </contour>
      <contour>
        <pt x="0" y="1571" on="1"/>
        <pt x="-61" y="1571" on="0"/>
        <pt x="-137" y="1647" on="0"/>
        <pt x="-137" y="1718" on="1"/>
        <pt x="-137" y="1790" on="0"/>
        <pt x="-64" y="1866" on="0"/>
        <pt x="0" y="1866" on="1"/>
        <pt x="63" y="1866" on="0"/>
        <pt x="135" y="1788" on="0"/>
        <pt x="135" y="1718" on="1"/>
        <pt x="135" y="1648" on="0"/>
        <pt x="61" y="1571" on="0"/>
      </contour>
    </TTGlyph>
    <TTGlyph name="twodots.vert.below" xMin="-137" yMin="-893" xMax="135" yMax="-217">
      <contour>
        <pt x="0" y="-893" on="1"/>
        <pt x="-61" y="-893" on="0"/>
        <pt x="-137" y="-817" on="0"/>
        <pt x="-137" y="-745" on="1"/>
        <pt x="-137" y="-674" on="0"/>
        <pt x="-63" y="-598" on="0"/>
        <pt x="0" y="-598" on="1"/>
        <pt x="63" y="-598" on="0"/>
        <pt x="135" y="-676" on="0"/>
        <pt x="135" y="-745" on="1"/>
        <pt x="135" y="-816" on="0"/>
        <pt x="62" y="-893" on="0"/>
      </contour>
      <contour>
        <pt x="0" y="-512" on="1"/>
        <pt x="-61" y="-512" on="0"/>
        <pt x="-137" y="-436" on="0"/>
        <pt x="-137" y="-365" on="1"/>
        <pt x="-137" y="-293" on="0"/>
        <pt x="-64" y="-217" on="0"/>
        <pt x="0" y="-217" on="1"/>
        <pt x="63" y="-217" on="0"/>
        <pt x="135" y="-295" on="0"/>
        <pt x="135" y="-365" on="1"/>
        <pt x="135" y="-435" on="0"/>
        <pt x="61" y="-512" on="0"/>
      </contour>
    </TTGlyph>
    <TTGlyph name="twodots.vert.small.above" xMin="-111" yMin="1257" xMax="109" yMax="1798">
      <contour>
        <pt x="0" y="1257" on="1"/>
        <pt x="-52" y="1257" on="0"/>
        <pt x="-111" y="1322" on="0"/>
        <pt x="-111" y="1376" on="1"/>
        <pt x="-111" y="1437" on="0"/>
        <pt x="-46" y="1493" on="0"/>
        <pt x="0" y="1493" on="1"/>
        <pt x="49" y="1493" on="0"/>
        <pt x="109" y="1432" on="0"/>
        <pt x="109" y="1376" on="1"/>
        <pt x="109" y="1319" on="0"/>
        <pt x="51" y="1257" on="0"/>
      </contour>
      <contour>
        <pt x="0" y="1563" on="1"/>
        <pt x="-46" y="1563" on="0"/>
        <pt x="-111" y="1619" on="0"/>
        <pt x="-111" y="1679" on="1"/>
        <pt x="-111" y="1740" on="0"/>
        <pt x="-46" y="1798" on="0"/>
        <pt x="0" y="1798" on="1"/>
        <pt x="50" y="1798" on="0"/>
        <pt x="109" y="1735" on="0"/>
        <pt x="109" y="1679" on="1"/>
        <pt x="109" y="1623" on="0"/>
        <pt x="49" y="1563" on="0"/>
      </contour>
    </TTGlyph>
    <TTGlyph name="twodots.vert.small.below" xMin="-111" yMin="-825" xMax="109" yMax="-285">
      <contour>
        <pt x="0" y="-825" on="1"/>
        <pt x="-46" y="-825" on="0"/>
        <pt x="-111" y="-768" on="0"/>
        <pt x="-111" y="-707" on="1"/>
        <pt x="-111" y="-646" on="0"/>
        <pt x="-46" y="-590" on="0"/>
        <pt x="0" y="-590" on="1"/>
        <pt x="49" y="-590" on="0"/>
        <pt x="109" y="-651" on="0"/>
        <pt x="109" y="-707" on="1"/>
        <pt x="109" y="-763" on="0"/>
        <pt x="50" y="-825" on="0"/>
      </contour>
      <contour>
        <pt x="0" y="-520" on="1"/>
        <pt x="-46" y="-520" on="0"/>
        <pt x="-111" y="-463" on="0"/>
        <pt x="-111" y="-403" on="1"/>
        <pt x="-111" y="-342" on="0"/>
        <pt x="-46" y="-285" on="0"/>
        <pt x="0" y="-285" on="1"/>
        <pt x="50" y="-285" on="0"/>
        <pt x="109" y="-348" on="0"/>
        <pt x="109" y="-403" on="1"/>
        <pt x="109" y="-458" on="0"/>
        <pt x="50" y="-520" on="0"/>
      </contour>
    </TTGlyph>
    <TTGlyph name="twodots.vert_alt1.below" xMin="19" yMin="-893" xMax="291" yMax="-217">
      <component glyphName="twodots.vert.below" x="156" y="0" flags="0x4"/>
    </TTGlyph>
    <TTGlyph name="twodots_alt1.above" xMin="82" yMin="1688" xMax="530" yMax="2103">
      <contour>
        <pt x="295" y="1991" on="1"/>
        <pt x="295" y="2035" on="0"/>
        <pt x="360" y="2103" on="0"/>
        <pt x="403" y="2103" on="1"/>
        <pt x="451" y="2103" on="0"/>
        <pt x="530" y="2025" on="0"/>
        <pt x="530" y="1978" on="1"/>
        <pt x="530" y="1939" on="0"/>
        <pt x="462" y="1868" on="0"/>
        <pt x="420" y="1868" on="1"/>
        <pt x="372" y="1868" on="0"/>
        <pt x="297" y="1945" on="0"/>
      </contour>
      <contour>
        <pt x="82" y="1810" on="1"/>
        <pt x="82" y="1855" on="0"/>
        <pt x="148" y="1923" on="0"/>
        <pt x="190" y="1923" on="1"/>
        <pt x="238" y="1923" on="0"/>
        <pt x="317" y="1845" on="0"/>
        <pt x="317" y="1798" on="1"/>
        <pt x="317" y="1759" on="0"/>
        <pt x="249" y="1688" on="0"/>
        <pt x="207" y="1688" on="1"/>
        <pt x="160" y="1688" on="0"/>
        <pt x="84" y="1763" on="0"/>
      </contour>
    </TTGlyph>
    <TTGlyph name="twodots_alt1.below" xMin="41" yMin="-512" xMax="662" yMax="-217">
      <component glyphName="twodots.below" x="336" y="0" flags="0x4"/>
    </TTGlyph>
    <TTGlyph name="uni0600" xMin="41" yMin="-492" xMax="1729" yMax="143">
      <contour>
        <pt x="1729" y="-492" on="1"/>
        <pt x="266" y="-492" on="1"/>
        <pt x="159" y="-492" on="0"/>
        <pt x="41" y="-361" on="0"/>
        <pt x="41" y="-246" on="1"/>
        <pt x="1257" y="-246" on="1"/>
        <pt x="1257" y="-22" on="0"/>
        <pt x="1384" y="143" on="1"/>
        <pt x="1589" y="10" on="1"/>
        <pt x="1503" y="-120" on="0"/>
        <pt x="1503" y="-246" on="1"/>
        <pt x="1729" y="-246" on="1"/>
      </contour>
    </TTGlyph>
    <TTGlyph name="uni0601" xMin="41" yMin="-582" xMax="3060" yMax="6">
      <contour>
        <pt x="2695" y="-428" on="1"/>
        <pt x="2750" y="-398" on="0"/>
        <pt x="2816" y="-323" on="0"/>
        <pt x="2816" y="-291" on="1"/>
        <pt x="2816" y="-240" on="0"/>
        <pt x="2761" y="-240" on="1"/>
        <pt x="2687" y="-240" on="0"/>
        <pt x="2351" y="-318" on="1"/>
        <pt x="1899" y="-424" on="0"/>
        <pt x="1511" y="-489" on="0"/>
        <pt x="1401" y="-489" on="1"/>
        <pt x="1335" y="-489" on="0"/>
        <pt x="1212" y="-406" on="0"/>
        <pt x="1194" y="-348" on="1"/>
        <pt x="1170" y="-406" on="0"/>
        <pt x="1038" y="-489" on="0"/>
        <pt x="971" y="-489" on="1"/>
        <pt x="879" y="-489" on="0"/>
        <pt x="777" y="-374" on="1"/>
        <pt x="705" y="-295" on="0"/>
        <pt x="663" y="-260" on="0"/>
        <pt x="645" y="-260" on="1"/>
        <pt x="624" y="-260" on="0"/>
        <pt x="572" y="-307" on="0"/>
        <pt x="509" y="-379" on="1"/>
        <pt x="405" y="-498" on="0"/>
        <pt x="295" y="-498" on="1"/>
        <pt x="178" y="-498" on="0"/>
        <pt x="41" y="-358" on="0"/>
        <pt x="41" y="-221" on="1"/>
        <pt x="41" y="-118" on="0"/>
        <pt x="86" y="-14" on="1"/>
        <pt x="293" y="-14" on="1"/>
        <pt x="252" y="-109" on="0"/>
        <pt x="252" y="-168" on="1"/>
        <pt x="252" y="-211" on="0"/>
        <pt x="296" y="-252" on="0"/>
        <pt x="328" y="-252" on="1"/>
        <pt x="352" y="-252" on="0"/>
        <pt x="395" y="-210" on="0"/>
        <pt x="447" y="-133" on="1"/>
        <pt x="528" y="-14" on="0"/>
        <pt x="653" y="-14" on="1"/>
        <pt x="751" y="-14" on="0"/>
        <pt x="847" y="-129" on="1"/>
        <pt x="913" y="-208" on="0"/>
        <pt x="955" y="-244" on="0"/>
        <pt x="975" y="-244" on="1"/>
        <pt x="1029" y="-244" on="0"/>
        <pt x="1073" y="-184" on="0"/>
        <pt x="1073" y="-113" on="1"/>
        <pt x="1073" y="-14" on="1"/>
        <pt x="1298" y="-14" on="1"/>
        <pt x="1298" y="-113" on="1"/>
        <pt x="1298" y="-250" on="0"/>
        <pt x="1423" y="-250" on="1"/>
        <pt x="1522" y="-250" on="0"/>
        <pt x="1863" y="-188" on="0"/>
        <pt x="2136" y="-122" on="1"/>
        <pt x="2425" y="-52" on="0"/>
        <pt x="2738" y="6" on="0"/>
        <pt x="2826" y="6" on="1"/>
        <pt x="2929" y="6" on="0"/>
        <pt x="3060" y="-127" on="0"/>
        <pt x="3060" y="-231" on="1"/>
        <pt x="3060" y="-320" on="0"/>
        <pt x="2945" y="-483" on="0"/>
        <pt x="2793" y="-582" on="1"/>
      </contour>
    </TTGlyph>
    <TTGlyph name="uni0602" xMin="133" yMin="-492" xMax="2474" yMax="219">
      <contour>
        <pt x="2474" y="-246" on="1"/>
        <pt x="2474" y="-492" on="0"/>
        <pt x="2249" y="-492" on="1"/>
        <pt x="674" y="-492" on="1"/>
        <pt x="133" y="-492" on="0"/>
        <pt x="133" y="-119" on="1"/>
        <pt x="133" y="37" on="0"/>
        <pt x="325" y="219" on="0"/>
        <pt x="485" y="219" on="1"/>
        <pt x="647" y="219" on="0"/>
        <pt x="918" y="-42" on="0"/>
        <pt x="969" y="-246" on="1"/>
      </contour>
      <contour>
        <pt x="485" y="-31" on="1"/>
        <pt x="445" y="-31" on="0"/>
        <pt x="391" y="-71" on="0"/>
        <pt x="391" y="-115" on="1"/>
        <pt x="391" y="-179" on="0"/>
        <pt x="532" y="-243" on="0"/>
        <pt x="721" y="-246" on="1"/>
        <pt x="677" y="-128" on="0"/>
        <pt x="566" y="-31" on="0"/>
      </contour>
    </TTGlyph>
    <TTGlyph name="uni0603" xMin="41" yMin="-492" xMax="1978" yMax="373">
      <contour>
        <pt x="1673" y="-246" on="1"/>
        <pt x="1673" y="-199" on="1"/>
        <pt x="1673" y="-42" on="0"/>
        <pt x="1529" y="127" on="0"/>
        <pt x="1393" y="127" on="1"/>
        <pt x="1273" y="127" on="0"/>
        <pt x="1012" y="-56" on="0"/>
        <pt x="915" y="-209" on="1"/>
        <pt x="915" y="-246" on="1"/>
      </contour>
      <contour>
        <pt x="610" y="-246" on="1"/>
        <pt x="610" y="317" on="1"/>
        <pt x="915" y="317" on="1"/>
        <pt x="915" y="41" on="1"/>
        <pt x="1029" y="201" on="0"/>
        <pt x="1319" y="373" on="0"/>
        <pt x="1470" y="373" on="1"/>
        <pt x="1615" y="373" on="0"/>
        <pt x="1849" y="230" on="0"/>
        <pt x="1978" y="-33" on="0"/>
        <pt x="1978" y="-205" on="1"/>
        <pt x="1978" y="-492" on="1"/>
        <pt x="266" y="-492" on="1"/>
        <pt x="159" y="-492" on="0"/>
        <pt x="41" y="-361" on="0"/>
        <pt x="41" y="-246" on="1"/>
      </contour>
    </TTGlyph>
    <TTGlyph name="uni060B" xMin="-20" yMin="-576" xMax="1147" yMax="1485">
      <component glyphName="uni066F.init" x="0" y="0" flags="0x204"/>
      <component glyphName="onedot.above" x="676" y="0" flags="0x4"/>
      <component glyphName="uni0656" x="664" y="217" flags="0x4"/>
    </TTGlyph>
    <TTGlyph name="uni060C" xMin="133" yMin="0" xMax="528" yMax="502">
      <contour>
        <pt x="133" y="23" on="1"/>
        <pt x="185" y="225" on="0"/>
        <pt x="309" y="502" on="1"/>
        <pt x="528" y="502" on="1"/>
        <pt x="465" y="247" on="0"/>
        <pt x="428" y="0" on="1"/>
        <pt x="147" y="0" on="1"/>
      </contour>
    </TTGlyph>
    <TTGlyph name="uni060D" xMin="29" yMin="-424" xMax="662" yMax="246">
      <contour>
        <pt x="662" y="0" on="1"/>
        <pt x="551" y="0" on="1"/>
        <pt x="481" y="0" on="0"/>
        <pt x="381" y="-76" on="0"/>
        <pt x="300" y="-223" on="0"/>
        <pt x="236" y="-424" on="1"/>
        <pt x="29" y="-352" on="1"/>
        <pt x="120" y="-51" on="0"/>
        <pt x="383" y="246" on="0"/>
        <pt x="549" y="246" on="1"/>
        <pt x="662" y="246" on="1"/>
      </contour>
    </TTGlyph>
    <TTGlyph name="uni060E" xMin="41" yMin="0" xMax="2382" yMax="711">
      <contour>
        <pt x="2382" y="246" on="1"/>
        <pt x="2382" y="0" on="0"/>
        <pt x="2157" y="0" on="1"/>
        <pt x="582" y="0" on="1"/>
        <pt x="41" y="0" on="0"/>
        <pt x="41" y="373" on="1"/>
        <pt x="41" y="529" on="0"/>
        <pt x="233" y="711" on="0"/>
        <pt x="393" y="711" on="1"/>
        <pt x="555" y="711" on="0"/>
        <pt x="826" y="450" on="0"/>
        <pt x="877" y="246" on="1"/>
      </contour>
      <contour>
        <pt x="393" y="461" on="1"/>
        <pt x="353" y="461" on="0"/>
        <pt x="299" y="420" on="0"/>
        <pt x="299" y="377" on="1"/>
        <pt x="299" y="313" on="0"/>
        <pt x="440" y="249" on="0"/>
        <pt x="629" y="246" on="1"/>
        <pt x="585" y="364" on="0"/>
        <pt x="474" y="461" on="0"/>
      </contour>
    </TTGlyph>
    <TTGlyph name="uni060F" xMin="133" yMin="-668" xMax="1294" yMax="1034">
      <contour>
        <pt x="793" y="-668" on="1"/>
        <pt x="670" y="-668" on="0"/>
        <pt x="452" y="-583" on="0"/>
        <pt x="385" y="-510" on="1"/>
        <pt x="323" y="-566" on="0"/>
        <pt x="256" y="-639" on="1"/>
        <pt x="133" y="-520" on="1"/>
        <pt x="217" y="-428" on="0"/>
        <pt x="297" y="-354" on="1"/>
        <pt x="285" y="-306" on="0"/>
        <pt x="285" y="-252" on="1"/>
        <pt x="285" y="-9" on="0"/>
        <pt x="557" y="205" on="1"/>
        <pt x="481" y="262" on="0"/>
        <pt x="365" y="458" on="0"/>
        <pt x="365" y="541" on="1"/>
        <pt x="365" y="770" on="0"/>
        <pt x="666" y="1034" on="0"/>
        <pt x="930" y="1034" on="1"/>
        <pt x="1020" y="1034" on="0"/>
        <pt x="1217" y="994" on="0"/>
        <pt x="1274" y="967" on="1"/>
        <pt x="1188" y="727" on="1"/>
        <pt x="1048" y="788" on="0"/>
        <pt x="922" y="788" on="1"/>
        <pt x="795" y="788" on="0"/>
        <pt x="657" y="653" on="0"/>
        <pt x="657" y="528" on="1"/>
        <pt x="657" y="488" on="0"/>
        <pt x="695" y="379" on="0"/>
        <pt x="741" y="324" on="1"/>
        <pt x="906" y="413" on="0"/>
        <pt x="1096" y="473" on="1"/>
        <pt x="1167" y="242" on="1"/>
        <pt x="961" y="190" on="0"/>
        <pt x="667" y="-1" on="0"/>
        <pt x="612" y="-115" on="1"/>
        <pt x="786" y="-14" on="0"/>
        <pt x="920" y="-14" on="1"/>
        <pt x="1090" y="-14" on="0"/>
        <pt x="1294" y="-183" on="0"/>
        <pt x="1294" y="-324" on="1"/>
        <pt x="1294" y="-418" on="0"/>
        <pt x="1156" y="-577" on="0"/>
        <pt x="922" y="-668" on="0"/>
      </contour>
      <contour>
        <pt x="879" y="-225" on="1"/>
        <pt x="757" y="-225" on="0"/>
        <pt x="606" y="-328" on="1"/>
        <pt x="658" y="-418" on="0"/>
        <pt x="813" y="-418" on="1"/>
        <pt x="918" y="-418" on="0"/>
        <pt x="1028" y="-365" on="0"/>
        <pt x="1028" y="-319" on="1"/>
        <pt x="1028" y="-277" on="0"/>
        <pt x="948" y="-225" on="0"/>
      </contour>
    </TTGlyph>
    <TTGlyph name="uni0610" xMin="-248" yMin="1438" xMax="227" yMax="1843">
      <contour>
        <pt x="131" y="1628" on="1"/>
        <pt x="131" y="1671" on="1"/>
        <pt x="131" y="1765" on="0"/>
        <pt x="41" y="1765" on="1"/>
        <pt x="-54" y="1765" on="0"/>
        <pt x="-113" y="1642" on="1"/>
        <pt x="-113" y="1628" on="1"/>
      </contour>
      <contour>
        <pt x="-248" y="1489" on="1"/>
        <pt x="-232" y="1516" on="0"/>
        <pt x="-211" y="1592" on="0"/>
        <pt x="-211" y="1628" on="1"/>
        <pt x="-211" y="1784" on="1"/>
        <pt x="-113" y="1812" on="1"/>
        <pt x="-113" y="1722" on="1"/>
        <pt x="-54" y="1843" on="0"/>
        <pt x="66" y="1843" on="1"/>
        <pt x="147" y="1843" on="0"/>
        <pt x="227" y="1759" on="0"/>
        <pt x="227" y="1669" on="1"/>
        <pt x="227" y="1548" on="1"/>
        <pt x="-113" y="1548" on="1"/>
        <pt x="-140" y="1491" on="0"/>
        <pt x="-197" y="1438" on="1"/>
      </contour>
    </TTGlyph>
    <TTGlyph name="uni0611" xMin="-215" yMin="1438" xMax="190" yMax="1810">
      <contour>
        <pt x="-80" y="1614" on="1"/>
        <pt x="-26" y="1611" on="1"/>
        <pt x="0" y="1612" on="1"/>
        <pt x="-43" y="1640" on="0"/>
        <pt x="-43" y="1694" on="1"/>
        <pt x="-43" y="1752" on="0"/>
        <pt x="32" y="1810" on="0"/>
        <pt x="88" y="1810" on="1"/>
        <pt x="137" y="1810" on="0"/>
        <pt x="182" y="1792" on="1"/>
        <pt x="156" y="1712" on="1"/>
        <pt x="126" y="1726" on="0"/>
        <pt x="90" y="1726" on="1"/>
        <pt x="67" y="1726" on="0"/>
        <pt x="39" y="1699" on="0"/>
        <pt x="39" y="1677" on="1"/>
        <pt x="39" y="1636" on="0"/>
        <pt x="78" y="1622" on="1"/>
        <pt x="100" y="1625" on="0"/>
        <pt x="147" y="1637" on="0"/>
        <pt x="190" y="1659" on="1"/>
        <pt x="190" y="1573" on="1"/>
        <pt x="150" y="1556" on="0"/>
        <pt x="23" y="1532" on="0"/>
        <pt x="-27" y="1532" on="1"/>
        <pt x="-57" y="1532" on="0"/>
        <pt x="-92" y="1546" on="1"/>
        <pt x="-122" y="1483" on="0"/>
        <pt x="-164" y="1438" on="1"/>
        <pt x="-215" y="1489" on="1"/>
        <pt x="-199" y="1516" on="0"/>
        <pt x="-178" y="1592" on="0"/>
        <pt x="-178" y="1628" on="1"/>
        <pt x="-178" y="1702" on="1"/>
        <pt x="-80" y="1731" on="1"/>
      </contour>
    </TTGlyph>
    <TTGlyph name="uni0612" xMin="-342" yMin="1233" xMax="283" yMax="1804">
      <contour>
        <pt x="-326" y="1239" on="1"/>
        <pt x="-342" y="1273" on="0"/>
        <pt x="-342" y="1311" on="1"/>
        <pt x="-342" y="1390" on="0"/>
        <pt x="-216" y="1504" on="0"/>
        <pt x="-57" y="1548" on="1"/>
        <pt x="-64" y="1563" on="0"/>
        <pt x="-78" y="1612" on="1"/>
        <pt x="-102" y="1702" on="0"/>
        <pt x="-182" y="1702" on="1"/>
        <pt x="-230" y="1702" on="0"/>
        <pt x="-297" y="1667" on="1"/>
        <pt x="-340" y="1753" on="1"/>
        <pt x="-308" y="1770" on="0"/>
        <pt x="-210" y="1796" on="0"/>
        <pt x="-158" y="1796" on="1"/>
        <pt x="-2" y="1796" on="0"/>
        <pt x="23" y="1647" on="1"/>
        <pt x="33" y="1584" on="0"/>
        <pt x="66" y="1508" on="0"/>
        <pt x="104" y="1479" on="1"/>
        <pt x="45" y="1403" on="1"/>
        <pt x="9" y="1430" on="0"/>
        <pt x="-18" y="1468" on="1"/>
        <pt x="-121" y="1441" on="0"/>
        <pt x="-191" y="1404" on="0"/>
        <pt x="-229" y="1352" on="0"/>
        <pt x="-229" y="1317" on="1"/>
        <pt x="-229" y="1306" on="0"/>
        <pt x="-223" y="1288" on="1"/>
      </contour>
      <contour>
        <pt x="121" y="1233" on="1"/>
        <pt x="68" y="1233" on="0"/>
        <pt x="5" y="1257" on="0"/>
        <pt x="-23" y="1276" on="1"/>
        <pt x="25" y="1352" on="1"/>
        <pt x="55" y="1329" on="0"/>
        <pt x="98" y="1329" on="1"/>
        <pt x="126" y="1329" on="0"/>
        <pt x="166" y="1373" on="0"/>
        <pt x="166" y="1413" on="1"/>
        <pt x="166" y="1774" on="1"/>
        <pt x="283" y="1804" on="1"/>
        <pt x="283" y="1407" on="1"/>
        <pt x="283" y="1330" on="0"/>
        <pt x="194" y="1233" on="0"/>
      </contour>
    </TTGlyph>
    <TTGlyph name="uni0613" xMin="-338" yMin="1233" xMax="303" yMax="1894">
      <contour>
        <pt x="141" y="1233" on="1"/>
        <pt x="89" y="1233" on="0"/>
        <pt x="26" y="1257" on="0"/>
        <pt x="-2" y="1276" on="1"/>
        <pt x="45" y="1352" on="1"/>
        <pt x="75" y="1329" on="0"/>
        <pt x="119" y="1329" on="1"/>
        <pt x="147" y="1329" on="0"/>
        <pt x="186" y="1373" on="0"/>
        <pt x="186" y="1413" on="1"/>
        <pt x="186" y="1774" on="1"/>
        <pt x="303" y="1804" on="1"/>
        <pt x="303" y="1407" on="1"/>
        <pt x="303" y="1327" on="0"/>
        <pt x="214" y="1233" on="0"/>
      </contour>
      <contour>
        <pt x="41" y="1513" on="1"/>
        <pt x="41" y="1556" on="1"/>
        <pt x="41" y="1651" on="0"/>
        <pt x="-49" y="1651" on="1"/>
        <pt x="-141" y="1651" on="0"/>
        <pt x="-203" y="1528" on="1"/>
        <pt x="-203" y="1513" on="1"/>
      </contour>
      <contour>
        <pt x="-338" y="1374" on="1"/>
        <pt x="-301" y="1441" on="0"/>
        <pt x="-301" y="1513" on="1"/>
        <pt x="-301" y="1669" on="1"/>
        <pt x="-203" y="1698" on="1"/>
        <pt x="-203" y="1608" on="1"/>
        <pt x="-145" y="1729" on="0"/>
        <pt x="-25" y="1729" on="1"/>
        <pt x="57" y="1729" on="0"/>
        <pt x="137" y="1644" on="0"/>
        <pt x="137" y="1554" on="1"/>
        <pt x="137" y="1434" on="1"/>
        <pt x="-203" y="1434" on="1"/>
        <pt x="-231" y="1375" on="0"/>
        <pt x="-287" y="1323" on="1"/>
      </contour>
      <contour>
        <pt x="-66" y="1788" on="1"/>
        <pt x="-84" y="1788" on="0"/>
        <pt x="-115" y="1815" on="0"/>
        <pt x="-115" y="1843" on="1"/>
        <pt x="-115" y="1894" on="0"/>
        <pt x="-66" y="1894" on="1"/>
        <pt x="-12" y="1894" on="0"/>
        <pt x="-12" y="1843" on="1"/>
        <pt x="-12" y="1815" on="0"/>
        <pt x="-44" y="1788" on="0"/>
      </contour>
    </TTGlyph>
    <TTGlyph name="uni0614" xMin="-301" yMin="1403" xMax="268" yMax="1702">
      <contour>
        <pt x="-14" y="1651" on="1"/>
        <pt x="76" y="1679" on="1"/>
        <pt x="76" y="1618" on="1"/>
        <pt x="76" y="1546" on="0"/>
        <pt x="125" y="1546" on="1"/>
        <pt x="151" y="1546" on="0"/>
        <pt x="172" y="1587" on="0"/>
        <pt x="172" y="1636" on="1"/>
        <pt x="172" y="1673" on="1"/>
        <pt x="268" y="1702" on="1"/>
        <pt x="268" y="1612" on="1"/>
        <pt x="268" y="1538" on="0"/>
        <pt x="196" y="1454" on="0"/>
        <pt x="127" y="1454" on="1"/>
        <pt x="68" y="1454" on="0"/>
        <pt x="33" y="1503" on="1"/>
        <pt x="4" y="1464" on="0"/>
        <pt x="-117" y="1426" on="0"/>
        <pt x="-272" y="1403" on="1"/>
        <pt x="-301" y="1466" on="1"/>
        <pt x="-208" y="1487" on="1"/>
        <pt x="-82" y="1514" on="0"/>
        <pt x="-14" y="1562" on="0"/>
        <pt x="-14" y="1610" on="1"/>
      </contour>
    </TTGlyph>
    <TTGlyph name="uni0615" xMin="-238" yMin="1182" xMax="248" yMax="1683">
      <contour>
        <pt x="-238" y="1311" on="1"/>
        <pt x="-207" y="1311" on="1"/>
        <pt x="-207" y="1683" on="1"/>
        <pt x="-84" y="1683" on="1"/>
        <pt x="-84" y="1444" on="1"/>
        <pt x="-28" y="1536" on="0"/>
        <pt x="78" y="1536" on="1"/>
        <pt x="169" y="1536" on="0"/>
        <pt x="248" y="1441" on="0"/>
        <pt x="248" y="1337" on="1"/>
        <pt x="248" y="1182" on="1"/>
        <pt x="-238" y="1182" on="1"/>
      </contour>
      <contour>
        <pt x="125" y="1311" on="1"/>
        <pt x="125" y="1321" on="1"/>
        <pt x="125" y="1375" on="0"/>
        <pt x="93" y="1427" on="0"/>
        <pt x="55" y="1427" on="1"/>
        <pt x="3" y="1427" on="0"/>
        <pt x="-60" y="1373" on="0"/>
        <pt x="-82" y="1333" on="1"/>
        <pt x="-84" y="1311" on="1"/>
      </contour>
    </TTGlyph>
    <TTGlyph name="uni061B" xMin="133" yMin="0" xMax="537" yMax="1403">
      <contour>
        <pt x="307" y="0" on="1"/>
        <pt x="224" y="0" on="0"/>
        <pt x="133" y="88" on="0"/>
        <pt x="133" y="170" on="1"/>
        <pt x="133" y="251" on="0"/>
        <pt x="226" y="340" on="0"/>
        <pt x="307" y="340" on="1"/>
        <pt x="391" y="340" on="0"/>
        <pt x="483" y="252" on="0"/>
        <pt x="483" y="170" on="1"/>
        <pt x="483" y="86" on="0"/>
        <pt x="393" y="0" on="0"/>
      </contour>
      <contour>
        <pt x="141" y="924" on="1"/>
        <pt x="193" y="1126" on="0"/>
        <pt x="317" y="1403" on="1"/>
        <pt x="537" y="1403" on="1"/>
        <pt x="472" y="1137" on="0"/>
        <pt x="436" y="901" on="1"/>
        <pt x="156" y="901" on="1"/>
      </contour>
    </TTGlyph>
    <TTGlyph name="uni061E" xMin="41" yMin="284" xMax="662" yMax="863">
      <component glyphName="threedots.above" x="332" y="-906" flags="0x4"/>
    </TTGlyph>
    <TTGlyph name="uni061F" xMin="133" yMin="-27" xMax="993" yMax="1483">
      <contour>
        <pt x="489" y="545" on="1"/>
        <pt x="489" y="608" on="0"/>
        <pt x="436" y="686" on="0"/>
        <pt x="354" y="750" on="1"/>
        <pt x="225" y="851" on="0"/>
        <pt x="133" y="1012" on="0"/>
        <pt x="133" y="1120" on="1"/>
        <pt x="133" y="1289" on="0"/>
        <pt x="367" y="1483" on="0"/>
        <pt x="573" y="1483" on="1"/>
        <pt x="672" y="1483" on="0"/>
        <pt x="895" y="1415" on="0"/>
        <pt x="993" y="1358" on="1"/>
        <pt x="891" y="1137" on="1"/>
        <pt x="806" y="1179" on="0"/>
        <pt x="647" y="1237" on="0"/>
        <pt x="578" y="1237" on="1"/>
        <pt x="499" y="1237" on="0"/>
        <pt x="422" y="1163" on="0"/>
        <pt x="422" y="1106" on="1"/>
        <pt x="422" y="1061" on="0"/>
        <pt x="446" y="996" on="0"/>
        <pt x="500" y="935" on="0"/>
        <pt x="573" y="877" on="1"/>
        <pt x="673" y="798" on="0"/>
        <pt x="754" y="653" on="0"/>
        <pt x="754" y="559" on="1"/>
        <pt x="754" y="485" on="1"/>
        <pt x="489" y="485" on="1"/>
      </contour>
      <contour>
        <pt x="610" y="-27" on="1"/>
        <pt x="528" y="-27" on="0"/>
        <pt x="436" y="64" on="0"/>
        <pt x="436" y="143" on="1"/>
        <pt x="436" y="225" on="0"/>
        <pt x="527" y="313" on="0"/>
        <pt x="610" y="313" on="1"/>
        <pt x="695" y="313" on="0"/>
        <pt x="786" y="227" on="0"/>
        <pt x="786" y="143" on="1"/>
        <pt x="786" y="62" on="0"/>
        <pt x="694" y="-27" on="0"/>
      </contour>
    </TTGlyph>
    <TTGlyph name="uni0621" xMin="133" yMin="-35" xMax="985" yMax="883">
      <contour>
        <pt x="133" y="178" on="1"/>
        <pt x="244" y="207" on="0"/>
        <pt x="328" y="219" on="1"/>
        <pt x="262" y="258" on="0"/>
        <pt x="184" y="404" on="0"/>
        <pt x="184" y="492" on="1"/>
        <pt x="184" y="671" on="0"/>
        <pt x="440" y="883" on="0"/>
        <pt x="657" y="883" on="1"/>
        <pt x="747" y="883" on="0"/>
        <pt x="900" y="850" on="0"/>
        <pt x="946" y="823" on="1"/>
        <pt x="885" y="594" on="1"/>
        <pt x="808" y="637" on="0"/>
        <pt x="690" y="637" on="1"/>
        <pt x="596" y="637" on="0"/>
        <pt x="481" y="544" on="0"/>
        <pt x="481" y="444" on="1"/>
        <pt x="481" y="384" on="0"/>
        <pt x="546" y="288" on="0"/>
        <pt x="598" y="266" on="1"/>
        <pt x="664" y="277" on="0"/>
        <pt x="916" y="307" on="0"/>
        <pt x="985" y="311" on="1"/>
        <pt x="985" y="63" on="1"/>
        <pt x="842" y="63" on="0"/>
        <pt x="288" y="-5" on="0"/>
        <pt x="133" y="-35" on="1"/>
      </contour>
    </TTGlyph>
    <TTGlyph name="uni0622" xMin="6" yMin="0" xMax="725" yMax="1827">
      <component glyphName="alef_alt.isol" x="0" y="0" flags="0x204"/>
      <component glyphName="uni0653" x="330" y="0" flags="0x4"/>
    </TTGlyph>
    <TTGlyph name="uni0622.fina" xMin="6" yMin="0" xMax="776" yMax="1827">
      <component glyphName="alef_alt.fina" x="0" y="0" flags="0x204"/>
      <component glyphName="uni0653" x="330" y="0" flags="0x4"/>
    </TTGlyph>
    <TTGlyph name="uni0623" xMin="123" yMin="0" xMax="555" yMax="2013">
      <component glyphName="alef_alt.isol" x="0" y="0" flags="0x204"/>
      <component glyphName="uni0654" x="326" y="0" flags="0x4"/>
    </TTGlyph>
    <TTGlyph name="uni0623.fina" xMin="123" yMin="0" xMax="776" yMax="2013">
      <component glyphName="alef_alt.fina" x="0" y="0" flags="0x204"/>
      <component glyphName="uni0654" x="326" y="0" flags="0x4"/>
    </TTGlyph>
    <TTGlyph name="uni0624" xMin="133" yMin="-492" xMax="1110" yMax="1580">
      <component glyphName="uni0648" x="0" y="0" flags="0x204"/>
      <component glyphName="uni0654" x="627" y="-433" flags="0x4"/>
    </TTGlyph>
    <TTGlyph name="uni0624.fina" xMin="133" yMin="-492" xMax="1376" yMax="1580">
      <component glyphName="uni0648.fina" x="0" y="0" flags="0x204"/>
      <component glyphName="uni0654" x="627" y="-433" flags="0x4"/>
    </TTGlyph>
    <TTGlyph name="uni0625" xMin="139" yMin="-604" xMax="571" yMax="1556">
      <component glyphName="uni0627" x="0" y="0" flags="0x204"/>
      <component glyphName="uni0655" x="362" y="0" flags="0x4"/>
    </TTGlyph>
    <TTGlyph name="uni0625.fina" xMin="139" yMin="-604" xMax="776" yMax="1556">
      <component glyphName="uni0627.fina" x="0" y="0" flags="0x204"/>
      <component glyphName="uni0655" x="362" y="0" flags="0x4"/>
    </TTGlyph>
    <TTGlyph name="uni0626" xMin="133" yMin="-492" xMax="1716" yMax="1056">
      <component glyphName="uni0649" x="0" y="0" flags="0x204"/>
      <component glyphName="uni0654" x="526" y="-957" flags="0x4"/>
    </TTGlyph>
    <TTGlyph name="uni0626.fina" xMin="133" yMin="-492" xMax="2079" yMax="1025">
      <component glyphName="uni0649.fina" x="0" y="0" flags="0x204"/>
      <component glyphName="uni0654" x="590" y="-988" flags="0x4"/>
    </TTGlyph>
    <TTGlyph name="uni0626.init" xMin="-20" yMin="0" xMax="571" yMax="1625">
      <component glyphName="uni066E.init" x="0" y="0" flags="0x204"/>
      <component glyphName="uni0654" x="342" y="-388" flags="0x4"/>
    </TTGlyph>
    <TTGlyph name="uni0626.medi" xMin="-20" yMin="0" xMax="827" yMax="1625">
      <component glyphName="uni066E.medi" x="0" y="0" flags="0x204"/>
      <component glyphName="uni0654" x="342" y="-388" flags="0x4"/>
    </TTGlyph>
    <TTGlyph name="uni0627" xMin="205" yMin="0" xMax="510" yMax="1556">
      <contour>
        <pt x="205" y="1556" on="1"/>
        <pt x="510" y="1556" on="1"/>
        <pt x="510" y="0" on="1"/>
        <pt x="205" y="0" on="1"/>
      </contour>
    </TTGlyph>
    <TTGlyph name="uni0627.fina" xMin="205" yMin="0" xMax="776" yMax="1556">
      <contour>
        <pt x="766" y="246" on="1"/>
        <pt x="776" y="246" on="0"/>
        <pt x="776" y="238" on="1"/>
        <pt x="776" y="10" on="1"/>
        <pt x="776" y="0" on="0"/>
        <pt x="766" y="0" on="1"/>
        <pt x="205" y="0" on="1"/>
        <pt x="205" y="1556" on="1"/>
        <pt x="510" y="1556" on="1"/>
        <pt x="510" y="246" on="1"/>
      </contour>
    </TTGlyph>
    <TTGlyph name="uni0628" xMin="133" yMin="-512" xMax="1602" yMax="1014">
      <component glyphName="uni066E" x="0" y="0" flags="0x204"/>
      <component glyphName="onedot.below" x="889" y="0" flags="0x4"/>
    </TTGlyph>
    <TTGlyph name="uni0628.fina" xMin="133" yMin="-512" xMax="1878" yMax="1014">
      <component glyphName="uni066E.fina" x="0" y="0" flags="0x204"/>
      <component glyphName="onedot.below" x="889" y="0" flags="0x4"/>
    </TTGlyph>
    <TTGlyph name="uni0628.init" xMin="-20" yMin="-512" xMax="551" yMax="1014">
      <component glyphName="uni066E.init" x="0" y="0" flags="0x204"/>
      <component glyphName="onedot.below" x="358" y="0" flags="0x4"/>
    </TTGlyph>
    <TTGlyph name="uni0628.medi" xMin="-20" yMin="-512" xMax="827" yMax="1014">
      <component glyphName="uni066E.medi" x="0" y="0" flags="0x204"/>
      <component glyphName="onedot.below" x="369" y="0" flags="0x4"/>
    </TTGlyph>
    <TTGlyph name="uni0629" xMin="133" yMin="-20" xMax="1159" yMax="1485">
      <component glyphName="uni0647" x="0" y="0" flags="0x204"/>
      <component glyphName="twodots.above" x="602" y="0" flags="0x4"/>
    </TTGlyph>
    <TTGlyph name="uni0629.fina" xMin="133" yMin="0" xMax="1362" yMax="1538">
      <component glyphName="uni0647.fina" x="0" y="0" flags="0x204"/>
      <component glyphName="twodots.above" x="758" y="53" flags="0x4"/>
    </TTGlyph>
    <TTGlyph name="uni062A" xMin="133" yMin="0" xMax="1602" yMax="1310">
      <component glyphName="uni066E" x="0" y="0" flags="0x204"/>
      <component glyphName="twodots.above" x="848" y="-175" flags="0x4"/>
    </TTGlyph>
    <TTGlyph name="uni062A.fina" xMin="133" yMin="0" xMax="1878" yMax="1310">
      <component glyphName="uni066E.fina" x="0" y="0" flags="0x204"/>
      <component glyphName="twodots.above" x="848" y="-175" flags="0x4"/>
    </TTGlyph>
    <TTGlyph name="uni062A.init" xMin="-20" yMin="0" xMax="807" yMax="1485">
      <component glyphName="beh_dotless_alt.init" x="0" y="0" flags="0x204"/>
      <component glyphName="twodots.above" x="481" y="0" flags="0x4"/>
    </TTGlyph>
    <TTGlyph name="uni062A.medi" xMin="-20" yMin="0" xMax="930" yMax="1485">
      <component glyphName="beh_dotless_alt.medi" x="0" y="0" flags="0x204"/>
      <component glyphName="twodots.above" x="426" y="0" flags="0x4"/>
    </TTGlyph>
    <TTGlyph name="uni062B" xMin="133" yMin="0" xMax="1602" yMax="1594">
      <component glyphName="uni066E" x="0" y="0" flags="0x204"/>
      <component glyphName="threedots.above" x="834" y="-175" flags="0x4"/>
    </TTGlyph>
    <TTGlyph name="uni062B.fina" xMin="133" yMin="0" xMax="1878" yMax="1594">
      <component glyphName="uni066E.fina" x="0" y="0" flags="0x204"/>
      <component glyphName="threedots.above" x="834" y="-175" flags="0x4"/>
    </TTGlyph>
    <TTGlyph name="uni062B.init" xMin="-20" yMin="0" xMax="811" yMax="1769">
      <component glyphName="beh_dotless_alt.init" x="0" y="0" flags="0x204"/>
      <component glyphName="threedots.above" x="481" y="0" flags="0x4"/>
    </TTGlyph>
    <TTGlyph name="uni062B.medi" xMin="-20" yMin="0" xMax="930" yMax="1769">
      <component glyphName="beh_dotless_alt.medi" x="0" y="0" flags="0x204"/>
      <component glyphName="threedots.above" x="420" y="0" flags="0x4"/>
    </TTGlyph>
    <TTGlyph name="uni062C" xMin="92" yMin="-668" xMax="1266" yMax="1034">
      <component glyphName="uni062D" x="0" y="0" flags="0x204"/>
      <component glyphName="onedot.below" x="682" y="203" flags="0x4"/>
    </TTGlyph>
    <TTGlyph name="uni062C.fina" xMin="92" yMin="-668" xMax="1341" yMax="1034">
      <component glyphName="uni062D.fina" x="0" y="0" flags="0x204"/>
      <component glyphName="onedot.below" x="682" y="203" flags="0x4"/>
    </TTGlyph>
    <TTGlyph name="uni062C.init" xMin="-20" yMin="-512" xMax="1122" yMax="1034">
      <component glyphName="uni062D.init" x="0" y="0" flags="0x204"/>
      <component glyphName="onedot.below" x="465" y="0" flags="0x4"/>
    </TTGlyph>
    <TTGlyph name="uni062C.medi" xMin="-20" yMin="-512" xMax="1266" yMax="1034">
      <component glyphName="uni062D.medi" x="0" y="0" flags="0x204"/>
      <component glyphName="onedot.below" x="465" y="0" flags="0x4"/>
    </TTGlyph>
    <TTGlyph name="uni062D" xMin="92" yMin="-668" xMax="1266" yMax="1034">
      <contour>
        <pt x="559" y="-668" on="1"/>
        <pt x="349" y="-668" on="0"/>
        <pt x="92" y="-435" on="0"/>
        <pt x="92" y="-242" on="1"/>
        <pt x="92" y="-133" on="0"/>
        <pt x="179" y="48" on="0"/>
        <pt x="346" y="195" on="0"/>
        <pt x="614" y="322" on="0"/>
        <pt x="838" y="383" on="1"/>
        <pt x="806" y="480" on="0"/>
        <pt x="788" y="549" on="1"/>
        <pt x="757" y="670" on="0"/>
        <pt x="624" y="788" on="0"/>
        <pt x="514" y="788" on="1"/>
        <pt x="380" y="788" on="0"/>
        <pt x="209" y="694" on="1"/>
        <pt x="100" y="920" on="1"/>
        <pt x="199" y="972" on="0"/>
        <pt x="457" y="1034" on="0"/>
        <pt x="578" y="1034" on="1"/>
        <pt x="985" y="1034" on="0"/>
        <pt x="1053" y="639" on="1"/>
        <pt x="1088" y="446" on="0"/>
        <pt x="1181" y="265" on="0"/>
        <pt x="1266" y="201" on="1"/>
        <pt x="1110" y="0" on="1"/>
        <pt x="1010" y="79" on="0"/>
        <pt x="944" y="172" on="1"/>
        <pt x="697" y="109" on="0"/>
        <pt x="497" y="8" on="0"/>
        <pt x="391" y="-129" on="0"/>
        <pt x="391" y="-225" on="1"/>
        <pt x="391" y="-311" on="0"/>
        <pt x="520" y="-418" on="0"/>
        <pt x="621" y="-418" on="1"/>
        <pt x="758" y="-418" on="0"/>
        <pt x="922" y="-375" on="1"/>
        <pt x="956" y="-598" on="1"/>
        <pt x="757" y="-668" on="0"/>
      </contour>
    </TTGlyph>
    <TTGlyph name="uni062D.fina" xMin="92" yMin="-668" xMax="1341" yMax="1034">
      <contour>
        <pt x="1319" y="0" on="1"/>
        <pt x="1177" y="0" on="0"/>
        <pt x="1004" y="84" on="0"/>
        <pt x="944" y="172" on="1"/>
        <pt x="697" y="109" on="0"/>
        <pt x="497" y="8" on="0"/>
        <pt x="391" y="-129" on="0"/>
        <pt x="391" y="-225" on="1"/>
        <pt x="391" y="-311" on="0"/>
        <pt x="520" y="-418" on="0"/>
        <pt x="621" y="-418" on="1"/>
        <pt x="758" y="-418" on="0"/>
        <pt x="922" y="-375" on="1"/>
        <pt x="956" y="-598" on="1"/>
        <pt x="757" y="-668" on="0"/>
        <pt x="559" y="-668" on="1"/>
        <pt x="349" y="-668" on="0"/>
        <pt x="92" y="-435" on="0"/>
        <pt x="92" y="-242" on="1"/>
        <pt x="92" y="-133" on="0"/>
        <pt x="180" y="50" on="0"/>
        <pt x="348" y="197" on="0"/>
        <pt x="613" y="321" on="0"/>
        <pt x="840" y="383" on="1"/>
        <pt x="811" y="464" on="0"/>
        <pt x="788" y="549" on="1"/>
        <pt x="755" y="671" on="0"/>
        <pt x="624" y="788" on="0"/>
        <pt x="514" y="788" on="1"/>
        <pt x="380" y="788" on="0"/>
        <pt x="209" y="694" on="1"/>
        <pt x="100" y="920" on="1"/>
        <pt x="199" y="972" on="0"/>
        <pt x="457" y="1034" on="0"/>
        <pt x="578" y="1034" on="1"/>
        <pt x="985" y="1034" on="0"/>
        <pt x="1053" y="639" on="1"/>
        <pt x="1086" y="455" on="0"/>
        <pt x="1228" y="246" on="0"/>
        <pt x="1319" y="246" on="1"/>
        <pt x="1331" y="246" on="1"/>
        <pt x="1341" y="246" on="0"/>
        <pt x="1341" y="238" on="1"/>
        <pt x="1341" y="10" on="1"/>
        <pt x="1341" y="0" on="0"/>
        <pt x="1331" y="0" on="1"/>
      </contour>
    </TTGlyph>
    <TTGlyph name="uni062D.init" xMin="-20" yMin="0" xMax="1122" yMax="1034">
      <contour>
        <pt x="-10" y="0" on="1"/>
        <pt x="-20" y="0" on="0"/>
        <pt x="-20" y="10" on="1"/>
        <pt x="-20" y="238" on="1"/>
        <pt x="-20" y="246" on="0"/>
        <pt x="-10" y="246" on="1"/>
        <pt x="815" y="246" on="1"/>
        <pt x="815" y="248" on="1"/>
        <pt x="735" y="320" on="0"/>
        <pt x="692" y="539" on="1"/>
        <pt x="664" y="677" on="0"/>
        <pt x="555" y="788" on="0"/>
        <pt x="446" y="788" on="1"/>
        <pt x="374" y="788" on="0"/>
        <pt x="248" y="752" on="0"/>
        <pt x="174" y="711" on="1"/>
        <pt x="82" y="936" on="1"/>
        <pt x="265" y="1034" on="0"/>
        <pt x="510" y="1034" on="1"/>
        <pt x="715" y="1034" on="0"/>
        <pt x="943" y="850" on="0"/>
        <pt x="979" y="639" on="1"/>
        <pt x="1032" y="334" on="0"/>
        <pt x="1122" y="246" on="1"/>
        <pt x="1122" y="0" on="1"/>
      </contour>
    </TTGlyph>
    <TTGlyph name="uni062D.medi" xMin="-20" yMin="0" xMax="1266" yMax="1034">
      <contour>
        <pt x="-10" y="0" on="1"/>
        <pt x="-20" y="0" on="0"/>
        <pt x="-20" y="10" on="1"/>
        <pt x="-20" y="238" on="1"/>
        <pt x="-20" y="246" on="0"/>
        <pt x="-10" y="246" on="1"/>
        <pt x="817" y="246" on="1"/>
        <pt x="736" y="322" on="0"/>
        <pt x="692" y="539" on="1"/>
        <pt x="664" y="677" on="0"/>
        <pt x="555" y="788" on="0"/>
        <pt x="446" y="788" on="1"/>
        <pt x="374" y="788" on="0"/>
        <pt x="248" y="752" on="0"/>
        <pt x="174" y="711" on="1"/>
        <pt x="82" y="936" on="1"/>
        <pt x="265" y="1034" on="0"/>
        <pt x="510" y="1034" on="1"/>
        <pt x="715" y="1034" on="0"/>
        <pt x="943" y="850" on="0"/>
        <pt x="979" y="639" on="1"/>
        <pt x="1032" y="334" on="0"/>
        <pt x="1122" y="246" on="1"/>
        <pt x="1255" y="246" on="1"/>
        <pt x="1266" y="246" on="0"/>
        <pt x="1266" y="238" on="1"/>
        <pt x="1266" y="10" on="1"/>
        <pt x="1266" y="0" on="0"/>
        <pt x="1255" y="0" on="1"/>
      </contour>
    </TTGlyph>
    <TTGlyph name="uni062E" xMin="92" yMin="-668" xMax="1266" yMax="1485">
      <component glyphName="uni062D" x="0" y="0" flags="0x204"/>
      <component glyphName="onedot.above" x="508" y="0" flags="0x4"/>
    </TTGlyph>
    <TTGlyph name="uni062E.fina" xMin="92" yMin="-668" xMax="1341" yMax="1485">
      <component glyphName="uni062D.fina" x="0" y="0" flags="0x204"/>
      <component glyphName="onedot.above" x="508" y="0" flags="0x4"/>
    </TTGlyph>
    <TTGlyph name="uni062E.init" xMin="-20" yMin="0" xMax="1122" yMax="1485">
      <component glyphName="uni062D.init" x="0" y="0" flags="0x204"/>
      <component glyphName="onedot.above" x="508" y="0" flags="0x4"/>
    </TTGlyph>
    <TTGlyph name="uni062E.medi" xMin="-20" yMin="0" xMax="1266" yMax="1485">
      <component glyphName="uni062D.medi" x="0" y="0" flags="0x204"/>
      <component glyphName="onedot.above" x="508" y="0" flags="0x4"/>
    </TTGlyph>
    <TTGlyph name="uni062F" xMin="92" yMin="0" xMax="1085" yMax="1180">
      <contour>
        <pt x="92" y="246" on="1"/>
        <pt x="776" y="246" on="1"/>
        <pt x="734" y="435" on="0"/>
        <pt x="613" y="668" on="0"/>
        <pt x="426" y="837" on="0"/>
        <pt x="291" y="893" on="1"/>
        <pt x="406" y="1180" on="1"/>
        <pt x="680" y="1070" on="0"/>
        <pt x="1011" y="611" on="0"/>
        <pt x="1085" y="238" on="1"/>
        <pt x="1085" y="0" on="1"/>
        <pt x="92" y="0" on="1"/>
      </contour>
    </TTGlyph>
    <TTGlyph name="uni062F.fina" xMin="92" yMin="0" xMax="1362" yMax="1180">
      <contour>
        <pt x="92" y="246" on="1"/>
        <pt x="776" y="246" on="1"/>
        <pt x="734" y="435" on="0"/>
        <pt x="613" y="668" on="0"/>
        <pt x="426" y="837" on="0"/>
        <pt x="291" y="893" on="1"/>
        <pt x="406" y="1180" on="1"/>
        <pt x="676" y="1072" on="0"/>
        <pt x="1006" y="620" on="0"/>
        <pt x="1083" y="246" on="1"/>
        <pt x="1352" y="246" on="1"/>
        <pt x="1362" y="246" on="0"/>
        <pt x="1362" y="238" on="1"/>
        <pt x="1362" y="10" on="1"/>
        <pt x="1362" y="0" on="0"/>
        <pt x="1352" y="0" on="1"/>
        <pt x="92" y="0" on="1"/>
      </contour>
    </TTGlyph>
    <TTGlyph name="uni0630" xMin="92" yMin="0" xMax="1085" yMax="1635">
      <component glyphName="uni062F" x="0" y="0" flags="0x204"/>
      <component glyphName="onedot.above" x="383" y="150" flags="0x4"/>
    </TTGlyph>
    <TTGlyph name="uni0630.fina" xMin="92" yMin="0" xMax="1362" yMax="1635">
      <component glyphName="uni062F.fina" x="0" y="0" flags="0x204"/>
      <component glyphName="onedot.above" x="383" y="150" flags="0x4"/>
    </TTGlyph>
    <TTGlyph name="uni0631" xMin="-82" yMin="-492" xMax="723" yMax="1014">
      <contour>
        <pt x="295" y="-492" on="1"/>
        <pt x="190" y="-492" on="0"/>
        <pt x="15" y="-442" on="0"/>
        <pt x="-82" y="-377" on="1"/>
        <pt x="41" y="-178" on="1"/>
        <pt x="95" y="-212" on="0"/>
        <pt x="178" y="-238" on="0"/>
        <pt x="236" y="-238" on="1"/>
        <pt x="318" y="-238" on="0"/>
        <pt x="418" y="-113" on="0"/>
        <pt x="418" y="-18" on="1"/>
        <pt x="418" y="1014" on="1"/>
        <pt x="723" y="1014" on="1"/>
        <pt x="723" y="-33" on="1"/>
        <pt x="723" y="-244" on="0"/>
        <pt x="490" y="-492" on="0"/>
      </contour>
    </TTGlyph>
    <TTGlyph name="uni0631.fina" xMin="-82" yMin="-492" xMax="999" yMax="1014">
      <contour>
        <pt x="989" y="246" on="1"/>
        <pt x="999" y="246" on="0"/>
        <pt x="999" y="238" on="1"/>
        <pt x="999" y="10" on="1"/>
        <pt x="999" y="0" on="0"/>
        <pt x="989" y="0" on="1"/>
        <pt x="723" y="0" on="1"/>
        <pt x="723" y="-33" on="1"/>
        <pt x="723" y="-244" on="0"/>
        <pt x="490" y="-492" on="0"/>
        <pt x="295" y="-492" on="1"/>
        <pt x="190" y="-492" on="0"/>
        <pt x="15" y="-442" on="0"/>
        <pt x="-82" y="-377" on="1"/>
        <pt x="41" y="-178" on="1"/>
        <pt x="95" y="-212" on="0"/>
        <pt x="178" y="-238" on="0"/>
        <pt x="236" y="-238" on="1"/>
        <pt x="318" y="-238" on="0"/>
        <pt x="418" y="-113" on="0"/>
        <pt x="418" y="-18" on="1"/>
        <pt x="418" y="1014" on="1"/>
        <pt x="723" y="1014" on="1"/>
        <pt x="723" y="246" on="1"/>
      </contour>
    </TTGlyph>
    <TTGlyph name="uni0632" xMin="-82" yMin="-492" xMax="723" yMax="1485">
      <component glyphName="uni0631" x="0" y="0" flags="0x204"/>
      <component glyphName="onedot.above" x="532" y="0" flags="0x4"/>
    </TTGlyph>
    <TTGlyph name="uni0632.fina" xMin="-82" yMin="-492" xMax="999" yMax="1485">
      <component glyphName="uni0631.fina" x="0" y="0" flags="0x204"/>
      <component glyphName="onedot.above" x="573" y="0" flags="0x4"/>
    </TTGlyph>
    <TTGlyph name="uni0633" xMin="133" yMin="-492" xMax="2716" yMax="1014">
      <contour>
        <pt x="1559" y="246" on="1"/>
        <pt x="1661" y="246" on="0"/>
        <pt x="1755" y="360" on="0"/>
        <pt x="1755" y="483" on="1"/>
        <pt x="1755" y="854" on="1"/>
        <pt x="2060" y="854" on="1"/>
        <pt x="2060" y="459" on="1"/>
        <pt x="2060" y="409" on="0"/>
        <pt x="2054" y="367" on="1"/>
        <pt x="2105" y="299" on="0"/>
        <pt x="2206" y="246" on="0"/>
        <pt x="2284" y="246" on="1"/>
        <pt x="2410" y="246" on="1"/>
        <pt x="2410" y="1014" on="1"/>
        <pt x="2716" y="1014" on="1"/>
        <pt x="2716" y="0" on="1"/>
        <pt x="2290" y="0" on="1"/>
        <pt x="2116" y="0" on="0"/>
        <pt x="1968" y="154" on="1"/>
        <pt x="1853" y="0" on="0"/>
        <pt x="1626" y="0" on="1"/>
        <pt x="1382" y="0" on="1"/>
        <pt x="1345" y="-492" on="0"/>
        <pt x="780" y="-492" on="1"/>
        <pt x="690" y="-492" on="1"/>
        <pt x="519" y="-492" on="0"/>
        <pt x="266" y="-348" on="0"/>
        <pt x="133" y="-87" on="0"/>
        <pt x="133" y="82" on="1"/>
        <pt x="133" y="198" on="0"/>
        <pt x="189" y="439" on="0"/>
        <pt x="238" y="535" on="1"/>
        <pt x="508" y="535" on="1"/>
        <pt x="476" y="425" on="0"/>
        <pt x="438" y="184" on="0"/>
        <pt x="438" y="80" on="1"/>
        <pt x="438" y="-69" on="0"/>
        <pt x="588" y="-246" on="0"/>
        <pt x="711" y="-246" on="1"/>
        <pt x="772" y="-246" on="1"/>
        <pt x="930" y="-246" on="0"/>
        <pt x="1079" y="-75" on="0"/>
        <pt x="1079" y="80" on="1"/>
        <pt x="1079" y="854" on="1"/>
        <pt x="1384" y="854" on="1"/>
        <pt x="1384" y="246" on="1"/>
      </contour>
    </TTGlyph>
    <TTGlyph name="uni0633.fina" xMin="133" yMin="-492" xMax="2992" yMax="1014">
      <contour>
        <pt x="2982" y="246" on="1"/>
        <pt x="2992" y="246" on="0"/>
        <pt x="2992" y="238" on="1"/>
        <pt x="2992" y="10" on="1"/>
        <pt x="2992" y="0" on="0"/>
        <pt x="2982" y="0" on="1"/>
        <pt x="2290" y="0" on="1"/>
        <pt x="2116" y="0" on="0"/>
        <pt x="1968" y="154" on="1"/>
        <pt x="1853" y="0" on="0"/>
        <pt x="1626" y="0" on="1"/>
        <pt x="1382" y="0" on="1"/>
        <pt x="1345" y="-492" on="0"/>
        <pt x="780" y="-492" on="1"/>
        <pt x="690" y="-492" on="1"/>
        <pt x="519" y="-492" on="0"/>
        <pt x="266" y="-348" on="0"/>
        <pt x="133" y="-87" on="0"/>
        <pt x="133" y="82" on="1"/>
        <pt x="133" y="198" on="0"/>
        <pt x="189" y="439" on="0"/>
        <pt x="238" y="535" on="1"/>
        <pt x="508" y="535" on="1"/>
        <pt x="476" y="425" on="0"/>
        <pt x="438" y="184" on="0"/>
        <pt x="438" y="80" on="1"/>
        <pt x="438" y="-69" on="0"/>
        <pt x="588" y="-246" on="0"/>
        <pt x="711" y="-246" on="1"/>
        <pt x="772" y="-246" on="1"/>
        <pt x="930" y="-246" on="0"/>
        <pt x="1079" y="-75" on="0"/>
        <pt x="1079" y="80" on="1"/>
        <pt x="1079" y="854" on="1"/>
        <pt x="1384" y="854" on="1"/>
        <pt x="1384" y="246" on="1"/>
        <pt x="1559" y="246" on="1"/>
        <pt x="1661" y="246" on="0"/>
        <pt x="1755" y="360" on="0"/>
        <pt x="1755" y="483" on="1"/>
        <pt x="1755" y="854" on="1"/>
        <pt x="2060" y="854" on="1"/>
        <pt x="2060" y="459" on="1"/>
        <pt x="2060" y="409" on="0"/>
        <pt x="2054" y="367" on="1"/>
        <pt x="2105" y="299" on="0"/>
        <pt x="2206" y="246" on="0"/>
        <pt x="2284" y="246" on="1"/>
        <pt x="2410" y="246" on="1"/>
        <pt x="2410" y="1014" on="1"/>
        <pt x="2716" y="1014" on="1"/>
        <pt x="2716" y="246" on="1"/>
      </contour>
    </TTGlyph>
    <TTGlyph name="uni0633.init" xMin="-20" yMin="0" xMax="1882" yMax="1014">
      <contour>
        <pt x="-10" y="0" on="1"/>
        <pt x="-20" y="0" on="0"/>
        <pt x="-20" y="10" on="1"/>
        <pt x="-20" y="238" on="1"/>
        <pt x="-20" y="246" on="0"/>
        <pt x="-10" y="246" on="1"/>
        <pt x="246" y="246" on="1"/>
        <pt x="246" y="854" on="1"/>
        <pt x="551" y="854" on="1"/>
        <pt x="551" y="246" on="1"/>
        <pt x="725" y="246" on="1"/>
        <pt x="827" y="246" on="0"/>
        <pt x="922" y="359" on="0"/>
        <pt x="922" y="483" on="1"/>
        <pt x="922" y="854" on="1"/>
        <pt x="1227" y="854" on="1"/>
        <pt x="1227" y="459" on="1"/>
        <pt x="1227" y="409" on="0"/>
        <pt x="1221" y="367" on="1"/>
        <pt x="1271" y="300" on="0"/>
        <pt x="1371" y="246" on="0"/>
        <pt x="1450" y="246" on="1"/>
        <pt x="1577" y="246" on="1"/>
        <pt x="1577" y="1014" on="1"/>
        <pt x="1882" y="1014" on="1"/>
        <pt x="1882" y="0" on="1"/>
        <pt x="1456" y="0" on="1"/>
        <pt x="1283" y="0" on="0"/>
        <pt x="1135" y="154" on="1"/>
        <pt x="1020" y="0" on="0"/>
        <pt x="793" y="0" on="1"/>
      </contour>
    </TTGlyph>
    <TTGlyph name="uni0633.medi" xMin="-20" yMin="0" xMax="2159" yMax="1014">
      <contour>
        <pt x="2148" y="246" on="1"/>
        <pt x="2159" y="246" on="0"/>
        <pt x="2159" y="238" on="1"/>
        <pt x="2159" y="10" on="1"/>
        <pt x="2159" y="0" on="0"/>
        <pt x="2148" y="0" on="1"/>
        <pt x="1456" y="0" on="1"/>
        <pt x="1283" y="0" on="0"/>
        <pt x="1135" y="154" on="1"/>
        <pt x="1020" y="0" on="0"/>
        <pt x="793" y="0" on="1"/>
        <pt x="-10" y="0" on="1"/>
        <pt x="-20" y="0" on="0"/>
        <pt x="-20" y="10" on="1"/>
        <pt x="-20" y="238" on="1"/>
        <pt x="-20" y="246" on="0"/>
        <pt x="-10" y="246" on="1"/>
        <pt x="246" y="246" on="1"/>
        <pt x="246" y="854" on="1"/>
        <pt x="551" y="854" on="1"/>
        <pt x="551" y="246" on="1"/>
        <pt x="725" y="246" on="1"/>
        <pt x="827" y="246" on="0"/>
        <pt x="922" y="359" on="0"/>
        <pt x="922" y="483" on="1"/>
        <pt x="922" y="854" on="1"/>
        <pt x="1227" y="854" on="1"/>
        <pt x="1227" y="459" on="1"/>
        <pt x="1227" y="409" on="0"/>
        <pt x="1221" y="367" on="1"/>
        <pt x="1271" y="300" on="0"/>
        <pt x="1371" y="246" on="0"/>
        <pt x="1450" y="246" on="1"/>
        <pt x="1577" y="246" on="1"/>
        <pt x="1577" y="1014" on="1"/>
        <pt x="1882" y="1014" on="1"/>
        <pt x="1882" y="246" on="1"/>
      </contour>
    </TTGlyph>
    <TTGlyph name="uni0634" xMin="133" yMin="-492" xMax="2716" yMax="1769">
      <component glyphName="uni0633" x="0" y="0" flags="0x204"/>
      <component glyphName="threedots.above" x="1878" y="0" flags="0x4"/>
    </TTGlyph>
    <TTGlyph name="uni0634.fina" xMin="133" yMin="-492" xMax="2992" yMax="1769">
      <component glyphName="uni0633.fina" x="0" y="0" flags="0x204"/>
      <component glyphName="threedots.above" x="1878" y="0" flags="0x4"/>
    </TTGlyph>
    <TTGlyph name="uni0634.init" xMin="-20" yMin="0" xMax="1882" yMax="1812">
      <component glyphName="uni0633.init" x="0" y="0" flags="0x204"/>
      <component glyphName="threedots.above" x="1059" y="43" flags="0x4"/>
    </TTGlyph>
    <TTGlyph name="uni0634.medi" xMin="-20" yMin="0" xMax="2159" yMax="1769">
      <component glyphName="uni0633.medi" x="0" y="0" flags="0x204"/>
      <component glyphName="threedots.above" x="1067" y="0" flags="0x4"/>
    </TTGlyph>
    <TTGlyph name="uni0635" xMin="133" yMin="-492" xMax="2447" yMax="1034">
      <contour>
        <pt x="690" y="-492" on="1"/>
        <pt x="519" y="-492" on="0"/>
        <pt x="266" y="-348" on="0"/>
        <pt x="133" y="-87" on="0"/>
        <pt x="133" y="82" on="1"/>
        <pt x="133" y="198" on="0"/>
        <pt x="189" y="439" on="0"/>
        <pt x="238" y="535" on="1"/>
        <pt x="508" y="535" on="1"/>
        <pt x="476" y="425" on="0"/>
        <pt x="438" y="184" on="0"/>
        <pt x="438" y="80" on="1"/>
        <pt x="438" y="-69" on="0"/>
        <pt x="588" y="-246" on="0"/>
        <pt x="711" y="-246" on="1"/>
        <pt x="772" y="-246" on="1"/>
        <pt x="930" y="-246" on="0"/>
        <pt x="1079" y="-75" on="0"/>
        <pt x="1079" y="80" on="1"/>
        <pt x="1079" y="1014" on="1"/>
        <pt x="1384" y="1014" on="1"/>
        <pt x="1384" y="655" on="1"/>
        <pt x="1571" y="1034" on="0"/>
        <pt x="1939" y="1034" on="1"/>
        <pt x="2191" y="1034" on="0"/>
        <pt x="2447" y="769" on="0"/>
        <pt x="2447" y="492" on="1"/>
        <pt x="2447" y="0" on="1"/>
        <pt x="1382" y="0" on="1"/>
        <pt x="1367" y="-242" on="0"/>
        <pt x="1061" y="-492" on="0"/>
        <pt x="780" y="-492" on="1"/>
      </contour>
      <contour>
        <pt x="2142" y="246" on="1"/>
        <pt x="2142" y="498" on="1"/>
        <pt x="2142" y="647" on="0"/>
        <pt x="2005" y="788" on="0"/>
        <pt x="1862" y="788" on="1"/>
        <pt x="1585" y="788" on="0"/>
        <pt x="1384" y="406" on="1"/>
        <pt x="1384" y="246" on="1"/>
      </contour>
    </TTGlyph>
    <TTGlyph name="uni0635.fina" xMin="133" yMin="-492" xMax="2724" yMax="1034">
      <contour>
        <pt x="2714" y="246" on="1"/>
        <pt x="2724" y="246" on="0"/>
        <pt x="2724" y="238" on="1"/>
        <pt x="2724" y="10" on="1"/>
        <pt x="2724" y="0" on="0"/>
        <pt x="2714" y="0" on="1"/>
        <pt x="1382" y="0" on="1"/>
        <pt x="1367" y="-242" on="0"/>
        <pt x="1061" y="-492" on="0"/>
        <pt x="780" y="-492" on="1"/>
        <pt x="690" y="-492" on="1"/>
        <pt x="519" y="-492" on="0"/>
        <pt x="266" y="-348" on="0"/>
        <pt x="133" y="-87" on="0"/>
        <pt x="133" y="82" on="1"/>
        <pt x="133" y="198" on="0"/>
        <pt x="189" y="439" on="0"/>
        <pt x="238" y="535" on="1"/>
        <pt x="508" y="535" on="1"/>
        <pt x="476" y="425" on="0"/>
        <pt x="438" y="184" on="0"/>
        <pt x="438" y="80" on="1"/>
        <pt x="438" y="-69" on="0"/>
        <pt x="588" y="-246" on="0"/>
        <pt x="711" y="-246" on="1"/>
        <pt x="772" y="-246" on="1"/>
        <pt x="930" y="-246" on="0"/>
        <pt x="1079" y="-75" on="0"/>
        <pt x="1079" y="80" on="1"/>
        <pt x="1079" y="1014" on="1"/>
        <pt x="1384" y="1014" on="1"/>
        <pt x="1384" y="655" on="1"/>
        <pt x="1571" y="1034" on="0"/>
        <pt x="1939" y="1034" on="1"/>
        <pt x="2191" y="1034" on="0"/>
        <pt x="2447" y="769" on="0"/>
        <pt x="2447" y="492" on="1"/>
        <pt x="2447" y="246" on="1"/>
      </contour>
      <contour>
        <pt x="2142" y="246" on="1"/>
        <pt x="2142" y="498" on="1"/>
        <pt x="2142" y="647" on="0"/>
        <pt x="2005" y="788" on="0"/>
        <pt x="1862" y="788" on="1"/>
        <pt x="1585" y="788" on="0"/>
        <pt x="1384" y="406" on="1"/>
        <pt x="1384" y="246" on="1"/>
      </contour>
    </TTGlyph>
    <TTGlyph name="uni0635.init" xMin="-20" yMin="0" xMax="1599" yMax="1034">
      <contour>
        <pt x="1294" y="246" on="1"/>
        <pt x="1294" y="498" on="1"/>
        <pt x="1294" y="647" on="0"/>
        <pt x="1157" y="788" on="0"/>
        <pt x="1014" y="788" on="1"/>
        <pt x="738" y="788" on="0"/>
        <pt x="537" y="406" on="1"/>
        <pt x="537" y="246" on="1"/>
      </contour>
      <contour>
        <pt x="-10" y="0" on="1"/>
        <pt x="-20" y="0" on="0"/>
        <pt x="-20" y="10" on="1"/>
        <pt x="-20" y="238" on="1"/>
        <pt x="-20" y="246" on="0"/>
        <pt x="-10" y="246" on="1"/>
        <pt x="231" y="246" on="1"/>
        <pt x="231" y="1014" on="1"/>
        <pt x="537" y="1014" on="1"/>
        <pt x="537" y="655" on="1"/>
        <pt x="724" y="1034" on="0"/>
        <pt x="1092" y="1034" on="1"/>
        <pt x="1343" y="1034" on="0"/>
        <pt x="1599" y="769" on="0"/>
        <pt x="1599" y="492" on="1"/>
        <pt x="1599" y="0" on="1"/>
      </contour>
    </TTGlyph>
    <TTGlyph name="uni0635.medi" xMin="-20" yMin="0" xMax="1876" yMax="1034">
      <contour>
        <pt x="-10" y="0" on="1"/>
        <pt x="-20" y="0" on="0"/>
        <pt x="-20" y="10" on="1"/>
        <pt x="-20" y="238" on="1"/>
        <pt x="-20" y="246" on="0"/>
        <pt x="-10" y="246" on="1"/>
        <pt x="231" y="246" on="1"/>
        <pt x="231" y="1014" on="1"/>
        <pt x="537" y="1014" on="1"/>
        <pt x="537" y="655" on="1"/>
        <pt x="724" y="1034" on="0"/>
        <pt x="1092" y="1034" on="1"/>
        <pt x="1343" y="1034" on="0"/>
        <pt x="1599" y="769" on="0"/>
        <pt x="1599" y="492" on="1"/>
        <pt x="1599" y="246" on="1"/>
        <pt x="1866" y="246" on="1"/>
        <pt x="1876" y="246" on="0"/>
        <pt x="1876" y="238" on="1"/>
        <pt x="1876" y="10" on="1"/>
        <pt x="1876" y="0" on="0"/>
        <pt x="1866" y="0" on="1"/>
      </contour>
      <contour>
        <pt x="1294" y="246" on="1"/>
        <pt x="1294" y="498" on="1"/>
        <pt x="1294" y="647" on="0"/>
        <pt x="1157" y="788" on="0"/>
        <pt x="1014" y="788" on="1"/>
        <pt x="738" y="788" on="0"/>
        <pt x="537" y="406" on="1"/>
        <pt x="537" y="246" on="1"/>
      </contour>
    </TTGlyph>
    <TTGlyph name="uni0636" xMin="133" yMin="-492" xMax="2447" yMax="1485">
      <component glyphName="uni0635" x="0" y="0" flags="0x204"/>
      <component glyphName="onedot.above" x="1829" y="0" flags="0x4"/>
    </TTGlyph>
    <TTGlyph name="uni0636.fina" xMin="133" yMin="-492" xMax="2724" yMax="1485">
      <component glyphName="uni0635.fina" x="0" y="0" flags="0x204"/>
      <component glyphName="onedot.above" x="1829" y="0" flags="0x4"/>
    </TTGlyph>
    <TTGlyph name="uni0636.init" xMin="-20" yMin="0" xMax="1599" yMax="1485">
      <component glyphName="uni0635.init" x="0" y="0" flags="0x204"/>
      <component glyphName="onedot.above" x="942" y="0" flags="0x4"/>
    </TTGlyph>
    <TTGlyph name="uni0636.medi" xMin="-20" yMin="0" xMax="1876" yMax="1485">
      <component glyphName="uni0635.medi" x="0" y="0" flags="0x204"/>
      <component glyphName="onedot.above" x="967" y="0" flags="0x4"/>
    </TTGlyph>
    <TTGlyph name="uni0637" xMin="41" yMin="0" xMax="1599" yMax="1556">
      <contour>
        <pt x="1294" y="246" on="1"/>
        <pt x="1294" y="498" on="1"/>
        <pt x="1294" y="647" on="0"/>
        <pt x="1157" y="788" on="0"/>
        <pt x="1014" y="788" on="1"/>
        <pt x="738" y="788" on="0"/>
        <pt x="537" y="406" on="1"/>
        <pt x="537" y="246" on="1"/>
      </contour>
      <contour>
        <pt x="41" y="246" on="1"/>
        <pt x="231" y="246" on="1"/>
        <pt x="231" y="1556" on="1"/>
        <pt x="537" y="1556" on="1"/>
        <pt x="537" y="655" on="1"/>
        <pt x="724" y="1034" on="0"/>
        <pt x="1092" y="1034" on="1"/>
        <pt x="1343" y="1034" on="0"/>
        <pt x="1599" y="769" on="0"/>
        <pt x="1599" y="492" on="1"/>
        <pt x="1599" y="0" on="1"/>
        <pt x="41" y="0" on="1"/>
      </contour>
    </TTGlyph>
    <TTGlyph name="uni0637.fina" xMin="41" yMin="0" xMax="1876" yMax="1556">
      <contour>
        <pt x="41" y="246" on="1"/>
        <pt x="231" y="246" on="1"/>
        <pt x="231" y="1556" on="1"/>
        <pt x="537" y="1556" on="1"/>
        <pt x="537" y="655" on="1"/>
        <pt x="724" y="1034" on="0"/>
        <pt x="1092" y="1034" on="1"/>
        <pt x="1343" y="1034" on="0"/>
        <pt x="1599" y="769" on="0"/>
        <pt x="1599" y="492" on="1"/>
        <pt x="1599" y="246" on="1"/>
        <pt x="1866" y="246" on="1"/>
        <pt x="1876" y="246" on="0"/>
        <pt x="1876" y="238" on="1"/>
        <pt x="1876" y="10" on="1"/>
        <pt x="1876" y="0" on="0"/>
        <pt x="1866" y="0" on="1"/>
        <pt x="41" y="0" on="1"/>
      </contour>
      <contour>
        <pt x="1294" y="246" on="1"/>
        <pt x="1294" y="498" on="1"/>
        <pt x="1294" y="647" on="0"/>
        <pt x="1157" y="788" on="0"/>
        <pt x="1014" y="788" on="1"/>
        <pt x="738" y="788" on="0"/>
        <pt x="537" y="406" on="1"/>
        <pt x="537" y="246" on="1"/>
      </contour>
    </TTGlyph>
    <TTGlyph name="uni0637.init" xMin="-20" yMin="0" xMax="1661" yMax="1556">
      <contour>
        <pt x="1356" y="246" on="1"/>
        <pt x="1356" y="498" on="1"/>
        <pt x="1356" y="647" on="0"/>
        <pt x="1219" y="788" on="0"/>
        <pt x="1075" y="788" on="1"/>
        <pt x="799" y="788" on="0"/>
        <pt x="598" y="406" on="1"/>
        <pt x="598" y="246" on="1"/>
      </contour>
      <contour>
        <pt x="-10" y="0" on="1"/>
        <pt x="-20" y="0" on="0"/>
        <pt x="-20" y="10" on="1"/>
        <pt x="-20" y="238" on="1"/>
        <pt x="-20" y="246" on="0"/>
        <pt x="-10" y="246" on="1"/>
        <pt x="293" y="246" on="1"/>
        <pt x="293" y="1556" on="1"/>
        <pt x="598" y="1556" on="1"/>
        <pt x="598" y="655" on="1"/>
        <pt x="785" y="1034" on="0"/>
        <pt x="1153" y="1034" on="1"/>
        <pt x="1405" y="1034" on="0"/>
        <pt x="1661" y="769" on="0"/>
        <pt x="1661" y="492" on="1"/>
        <pt x="1661" y="0" on="1"/>
      </contour>
    </TTGlyph>
    <TTGlyph name="uni0637.medi" xMin="-20" yMin="0" xMax="1876" yMax="1556">
      <contour>
        <pt x="-10" y="0" on="1"/>
        <pt x="-20" y="0" on="0"/>
        <pt x="-20" y="10" on="1"/>
        <pt x="-20" y="238" on="1"/>
        <pt x="-20" y="246" on="0"/>
        <pt x="-10" y="246" on="1"/>
        <pt x="231" y="246" on="1"/>
        <pt x="231" y="1556" on="1"/>
        <pt x="537" y="1556" on="1"/>
        <pt x="537" y="655" on="1"/>
        <pt x="724" y="1034" on="0"/>
        <pt x="1092" y="1034" on="1"/>
        <pt x="1343" y="1034" on="0"/>
        <pt x="1599" y="769" on="0"/>
        <pt x="1599" y="492" on="1"/>
        <pt x="1599" y="246" on="1"/>
        <pt x="1866" y="246" on="1"/>
        <pt x="1876" y="246" on="0"/>
        <pt x="1876" y="238" on="1"/>
        <pt x="1876" y="10" on="1"/>
        <pt x="1876" y="0" on="0"/>
        <pt x="1866" y="0" on="1"/>
      </contour>
      <contour>
        <pt x="1294" y="246" on="1"/>
        <pt x="1294" y="498" on="1"/>
        <pt x="1294" y="647" on="0"/>
        <pt x="1157" y="788" on="0"/>
        <pt x="1014" y="788" on="1"/>
        <pt x="738" y="788" on="0"/>
        <pt x="537" y="406" on="1"/>
        <pt x="537" y="246" on="1"/>
      </contour>
    </TTGlyph>
    <TTGlyph name="uni0638" xMin="41" yMin="0" xMax="1599" yMax="1556">
      <component glyphName="uni0637" x="0" y="0" flags="0x204"/>
      <component glyphName="onedot.above" x="987" y="0" flags="0x4"/>
    </TTGlyph>
    <TTGlyph name="uni0638.fina" xMin="41" yMin="0" xMax="1876" yMax="1556">
      <component glyphName="uni0637.fina" x="0" y="0" flags="0x204"/>
      <component glyphName="onedot.above" x="991" y="0" flags="0x4"/>
    </TTGlyph>
    <TTGlyph name="uni0638.init" xMin="-20" yMin="0" xMax="1661" yMax="1556">
      <component glyphName="uni0637.init" x="0" y="0" flags="0x204"/>
      <component glyphName="onedot.above" x="1038" y="0" flags="0x4"/>
    </TTGlyph>
    <TTGlyph name="uni0638.medi" xMin="-20" yMin="0" xMax="1876" yMax="1556">
      <component glyphName="uni0637.medi" x="0" y="0" flags="0x204"/>
      <component glyphName="onedot.above" x="956" y="0" flags="0x4"/>
    </TTGlyph>
    <TTGlyph name="uni0639" xMin="133" yMin="-668" xMax="1122" yMax="1034">
      <contour>
        <pt x="600" y="-668" on="1"/>
        <pt x="390" y="-668" on="0"/>
        <pt x="133" y="-439" on="0"/>
        <pt x="133" y="-252" on="1"/>
        <pt x="133" y="-23" on="0"/>
        <pt x="393" y="156" on="1"/>
        <pt x="321" y="228" on="0"/>
        <pt x="213" y="448" on="0"/>
        <pt x="213" y="541" on="1"/>
        <pt x="213" y="771" on="0"/>
        <pt x="516" y="1034" on="0"/>
        <pt x="778" y="1034" on="1"/>
        <pt x="868" y="1034" on="0"/>
        <pt x="1065" y="994" on="0"/>
        <pt x="1122" y="967" on="1"/>
        <pt x="1036" y="727" on="1"/>
        <pt x="955" y="762" on="0"/>
        <pt x="832" y="788" on="0"/>
        <pt x="770" y="788" on="1"/>
        <pt x="642" y="788" on="0"/>
        <pt x="506" y="653" on="0"/>
        <pt x="506" y="528" on="1"/>
        <pt x="506" y="442" on="0"/>
        <pt x="548" y="321" on="0"/>
        <pt x="590" y="264" on="1"/>
        <pt x="767" y="343" on="0"/>
        <pt x="946" y="399" on="1"/>
        <pt x="1018" y="168" on="1"/>
        <pt x="704" y="89" on="0"/>
        <pt x="432" y="-107" on="0"/>
        <pt x="432" y="-236" on="1"/>
        <pt x="432" y="-321" on="0"/>
        <pt x="549" y="-418" on="0"/>
        <pt x="662" y="-418" on="1"/>
        <pt x="799" y="-418" on="0"/>
        <pt x="963" y="-375" on="1"/>
        <pt x="997" y="-598" on="1"/>
        <pt x="798" y="-668" on="0"/>
      </contour>
    </TTGlyph>
    <TTGlyph name="uni0639.fina" xMin="133" yMin="-668" xMax="1319" yMax="1100">
      <contour>
        <pt x="141" y="-252" on="1"/>
        <pt x="141" y="-117" on="0"/>
        <pt x="304" y="132" on="0"/>
        <pt x="475" y="256" on="1"/>
        <pt x="344" y="379" on="0"/>
        <pt x="159" y="718" on="0"/>
        <pt x="133" y="885" on="1"/>
        <pt x="252" y="984" on="0"/>
        <pt x="566" y="1100" on="0"/>
        <pt x="709" y="1100" on="1"/>
        <pt x="1000" y="1100" on="0"/>
        <pt x="1223" y="977" on="1"/>
        <pt x="1223" y="765" on="0"/>
        <pt x="1051" y="405" on="0"/>
        <pt x="887" y="270" on="1"/>
        <pt x="969" y="246" on="0"/>
        <pt x="1073" y="246" on="1"/>
        <pt x="1309" y="246" on="1"/>
        <pt x="1319" y="246" on="0"/>
        <pt x="1319" y="238" on="1"/>
        <pt x="1319" y="10" on="1"/>
        <pt x="1319" y="0" on="0"/>
        <pt x="1309" y="0" on="1"/>
        <pt x="1049" y="0" on="1"/>
        <pt x="967" y="0" on="0"/>
        <pt x="763" y="62" on="0"/>
        <pt x="672" y="115" on="1"/>
        <pt x="549" y="23" on="0"/>
        <pt x="440" y="-144" on="0"/>
        <pt x="440" y="-236" on="1"/>
        <pt x="440" y="-321" on="0"/>
        <pt x="557" y="-418" on="0"/>
        <pt x="670" y="-418" on="1"/>
        <pt x="807" y="-418" on="0"/>
        <pt x="971" y="-375" on="1"/>
        <pt x="1006" y="-598" on="1"/>
        <pt x="895" y="-636" on="0"/>
        <pt x="707" y="-668" on="0"/>
        <pt x="608" y="-668" on="1"/>
        <pt x="398" y="-668" on="0"/>
        <pt x="141" y="-439" on="0"/>
      </contour>
      <contour>
        <pt x="438" y="776" on="1"/>
        <pt x="503" y="555" on="0"/>
        <pt x="680" y="391" on="1"/>
        <pt x="787" y="468" on="0"/>
        <pt x="922" y="693" on="0"/>
        <pt x="932" y="817" on="1"/>
        <pt x="880" y="838" on="0"/>
        <pt x="773" y="854" on="0"/>
        <pt x="700" y="854" on="1"/>
        <pt x="634" y="854" on="0"/>
        <pt x="480" y="806" on="0"/>
      </contour>
    </TTGlyph>
    <TTGlyph name="uni0639.init" xMin="-20" yMin="0" xMax="1069" yMax="1034">
      <contour>
        <pt x="-10" y="0" on="1"/>
        <pt x="-20" y="0" on="0"/>
        <pt x="-20" y="10" on="1"/>
        <pt x="-20" y="238" on="1"/>
        <pt x="-20" y="246" on="0"/>
        <pt x="-10" y="246" on="1"/>
        <pt x="305" y="246" on="1"/>
        <pt x="229" y="280" on="0"/>
        <pt x="139" y="442" on="0"/>
        <pt x="139" y="541" on="1"/>
        <pt x="139" y="771" on="0"/>
        <pt x="442" y="1034" on="0"/>
        <pt x="705" y="1034" on="1"/>
        <pt x="795" y="1034" on="0"/>
        <pt x="992" y="994" on="0"/>
        <pt x="1049" y="967" on="1"/>
        <pt x="963" y="727" on="1"/>
        <pt x="884" y="761" on="0"/>
        <pt x="760" y="788" on="0"/>
        <pt x="696" y="788" on="1"/>
        <pt x="570" y="788" on="0"/>
        <pt x="432" y="654" on="0"/>
        <pt x="432" y="528" on="1"/>
        <pt x="432" y="404" on="0"/>
        <pt x="574" y="246" on="0"/>
        <pt x="694" y="246" on="1"/>
        <pt x="1069" y="246" on="1"/>
        <pt x="1069" y="0" on="1"/>
      </contour>
    </TTGlyph>
    <TTGlyph name="uni0639.medi" xMin="-20" yMin="0" xMax="1257" yMax="1100">
      <contour>
        <pt x="1247" y="246" on="1"/>
        <pt x="1257" y="246" on="0"/>
        <pt x="1257" y="238" on="1"/>
        <pt x="1257" y="10" on="1"/>
        <pt x="1257" y="0" on="0"/>
        <pt x="1247" y="0" on="1"/>
        <pt x="987" y="0" on="1"/>
        <pt x="891" y="0" on="0"/>
        <pt x="683" y="65" on="0"/>
        <pt x="608" y="115" on="1"/>
        <pt x="420" y="0" on="0"/>
        <pt x="227" y="0" on="1"/>
        <pt x="-10" y="0" on="1"/>
        <pt x="-20" y="0" on="0"/>
        <pt x="-20" y="10" on="1"/>
        <pt x="-20" y="238" on="1"/>
        <pt x="-20" y="246" on="0"/>
        <pt x="-10" y="246" on="1"/>
        <pt x="195" y="246" on="1"/>
        <pt x="241" y="246" on="0"/>
        <pt x="352" y="268" on="0"/>
        <pt x="387" y="285" on="1"/>
        <pt x="326" y="332" on="0"/>
        <pt x="190" y="534" on="0"/>
        <pt x="90" y="774" on="0"/>
        <pt x="72" y="885" on="1"/>
        <pt x="192" y="985" on="0"/>
        <pt x="503" y="1100" on="0"/>
        <pt x="647" y="1100" on="1"/>
        <pt x="940" y="1100" on="0"/>
        <pt x="1161" y="977" on="1"/>
        <pt x="1161" y="755" on="0"/>
        <pt x="981" y="385" on="0"/>
        <pt x="827" y="287" on="1"/>
        <pt x="903" y="246" on="0"/>
        <pt x="1012" y="246" on="1"/>
      </contour>
      <contour>
        <pt x="612" y="412" on="1"/>
        <pt x="852" y="555" on="0"/>
        <pt x="870" y="817" on="1"/>
        <pt x="781" y="854" on="0"/>
        <pt x="639" y="854" on="1"/>
        <pt x="573" y="854" on="0"/>
        <pt x="421" y="808" on="0"/>
        <pt x="377" y="776" on="1"/>
        <pt x="407" y="663" on="0"/>
        <pt x="532" y="465" on="0"/>
      </contour>
    </TTGlyph>
    <TTGlyph name="uni063A" xMin="133" yMin="-668" xMax="1122" yMax="1485">
      <component glyphName="uni0639" x="0" y="0" flags="0x204"/>
      <component glyphName="onedot.above" x="651" y="0" flags="0x4"/>
    </TTGlyph>
    <TTGlyph name="uni063A.fina" xMin="133" yMin="-668" xMax="1319" yMax="1587">
      <component glyphName="uni0639.fina" x="0" y="0" flags="0x204"/>
      <component glyphName="onedot.above" x="670" y="102" flags="0x4"/>
    </TTGlyph>
    <TTGlyph name="uni063A.init" xMin="-20" yMin="0" xMax="1069" yMax="1485">
      <component glyphName="uni0639.init" x="0" y="0" flags="0x204"/>
      <component glyphName="onedot.above" x="610" y="0" flags="0x4"/>
    </TTGlyph>
    <TTGlyph name="uni063A.medi" xMin="-20" yMin="0" xMax="1257" yMax="1587">
      <component glyphName="uni0639.medi" x="0" y="0" flags="0x204"/>
      <component glyphName="onedot.above" x="590" y="102" flags="0x4"/>
    </TTGlyph>
    <TTGlyph name="uni0640" xMin="-20" yMin="0" xMax="371" yMax="246">
      <contour>
        <pt x="360" y="246" on="1"/>
        <pt x="371" y="246" on="0"/>
        <pt x="371" y="238" on="1"/>
        <pt x="371" y="10" on="1"/>
        <pt x="371" y="0" on="0"/>
        <pt x="360" y="0" on="1"/>
        <pt x="-10" y="0" on="1"/>
        <pt x="-20" y="0" on="0"/>
        <pt x="-20" y="10" on="1"/>
        <pt x="-20" y="238" on="1"/>
        <pt x="-20" y="246" on="0"/>
        <pt x="-10" y="246" on="1"/>
      </contour>
    </TTGlyph>
    <TTGlyph name="uni0641" xMin="133" yMin="0" xMax="2028" yMax="1485">
      <component glyphName="feh_dotless.isol" x="0" y="0" flags="0x204"/>
      <component glyphName="onedot.above" x="1597" y="0" flags="0x4"/>
    </TTGlyph>
    <TTGlyph name="uni0641.fina" xMin="133" yMin="0" xMax="2294" yMax="1485">
      <component glyphName="uni06A1.fina" x="0" y="0" flags="0x204"/>
      <component glyphName="onedot.above" x="1626" y="0" flags="0x4"/>
    </TTGlyph>
    <TTGlyph name="uni0641.init" xMin="-20" yMin="0" xMax="1147" yMax="1485">
      <component glyphName="uni066F.init" x="0" y="0" flags="0x204"/>
      <component glyphName="onedot.above" x="737" y="0" flags="0x4"/>
    </TTGlyph>
    <TTGlyph name="uni0641.medi" xMin="-20" yMin="0" xMax="1413" yMax="1485">
      <component glyphName="uni066F.medi" x="0" y="0" flags="0x204"/>
      <component glyphName="onedot.above" x="737" y="0" flags="0x4"/>
    </TTGlyph>
    <TTGlyph name="uni0642" xMin="133" yMin="-492" xMax="1796" yMax="1485">
      <component glyphName="uni066F" x="0" y="0" flags="0x204"/>
      <component glyphName="twodots.above" x="1427" y="0" flags="0x4"/>
    </TTGlyph>
    <TTGlyph name="uni0642.fina" xMin="133" yMin="-492" xMax="2062" yMax="1485">
      <component glyphName="uni066F.fina" x="0" y="0" flags="0x204"/>
      <component glyphName="twodots.above" x="1427" y="0" flags="0x4"/>
    </TTGlyph>
    <TTGlyph name="uni0642.init" xMin="-20" yMin="0" xMax="1147" yMax="1485">
      <component glyphName="uni066F.init" x="0" y="0" flags="0x204"/>
      <component glyphName="twodots.above" x="741" y="0" flags="0x4"/>
    </TTGlyph>
    <TTGlyph name="uni0642.medi" xMin="-20" yMin="0" xMax="1413" yMax="1485">
      <component glyphName="uni066F.medi" x="0" y="0" flags="0x204"/>
      <component glyphName="twodots.above" x="786" y="0" flags="0x4"/>
    </TTGlyph>
    <TTGlyph name="uni0643" xMin="133" yMin="0" xMax="1602" yMax="1556">
      <contour>
        <pt x="662" y="739" on="1"/>
        <pt x="778" y="758" on="1"/>
        <pt x="738" y="778" on="0"/>
        <pt x="686" y="849" on="0"/>
        <pt x="686" y="897" on="1"/>
        <pt x="686" y="983" on="0"/>
        <pt x="807" y="1083" on="0"/>
        <pt x="911" y="1083" on="1"/>
        <pt x="1009" y="1083" on="0"/>
        <pt x="1079" y="1047" on="1"/>
        <pt x="1038" y="942" on="1"/>
        <pt x="984" y="969" on="0"/>
        <pt x="928" y="969" on="1"/>
        <pt x="883" y="969" on="0"/>
        <pt x="829" y="914" on="0"/>
        <pt x="829" y="870" on="1"/>
        <pt x="829" y="809" on="0"/>
        <pt x="891" y="778" on="1"/>
        <pt x="927" y="784" on="1"/>
        <pt x="1030" y="800" on="0"/>
        <pt x="1094" y="805" on="1"/>
        <pt x="1094" y="686" on="1"/>
        <pt x="961" y="678" on="0"/>
        <pt x="662" y="635" on="1"/>
      </contour>
      <contour>
        <pt x="541" y="0" on="1"/>
        <pt x="352" y="0" on="0"/>
        <pt x="133" y="220" on="0"/>
        <pt x="133" y="412" on="1"/>
        <pt x="133" y="489" on="0"/>
        <pt x="169" y="664" on="0"/>
        <pt x="199" y="725" on="1"/>
        <pt x="469" y="725" on="1"/>
        <pt x="438" y="592" on="0"/>
        <pt x="438" y="457" on="1"/>
        <pt x="438" y="362" on="0"/>
        <pt x="544" y="246" on="0"/>
        <pt x="631" y="246" on="1"/>
        <pt x="1296" y="246" on="1"/>
        <pt x="1296" y="1556" on="1"/>
        <pt x="1602" y="1556" on="1"/>
        <pt x="1602" y="0" on="1"/>
      </contour>
    </TTGlyph>
    <TTGlyph name="uni0643.fina" xMin="133" yMin="0" xMax="1878" yMax="1556">
      <contour>
        <pt x="541" y="0" on="1"/>
        <pt x="352" y="0" on="0"/>
        <pt x="133" y="220" on="0"/>
        <pt x="133" y="412" on="1"/>
        <pt x="133" y="489" on="0"/>
        <pt x="169" y="664" on="0"/>
        <pt x="199" y="725" on="1"/>
        <pt x="469" y="725" on="1"/>
        <pt x="438" y="592" on="0"/>
        <pt x="438" y="457" on="1"/>
        <pt x="438" y="362" on="0"/>
        <pt x="544" y="246" on="0"/>
        <pt x="631" y="246" on="1"/>
        <pt x="1296" y="246" on="1"/>
        <pt x="1296" y="1556" on="1"/>
        <pt x="1602" y="1556" on="1"/>
        <pt x="1602" y="246" on="1"/>
        <pt x="1868" y="246" on="1"/>
        <pt x="1878" y="246" on="0"/>
        <pt x="1878" y="238" on="1"/>
        <pt x="1878" y="10" on="1"/>
        <pt x="1878" y="0" on="0"/>
        <pt x="1868" y="0" on="1"/>
      </contour>
      <contour>
        <pt x="662" y="739" on="1"/>
        <pt x="778" y="758" on="1"/>
        <pt x="738" y="778" on="0"/>
        <pt x="686" y="849" on="0"/>
        <pt x="686" y="897" on="1"/>
        <pt x="686" y="983" on="0"/>
        <pt x="807" y="1083" on="0"/>
        <pt x="911" y="1083" on="1"/>
        <pt x="1009" y="1083" on="0"/>
        <pt x="1079" y="1047" on="1"/>
        <pt x="1038" y="942" on="1"/>
        <pt x="984" y="969" on="0"/>
        <pt x="928" y="969" on="1"/>
        <pt x="883" y="969" on="0"/>
        <pt x="829" y="914" on="0"/>
        <pt x="829" y="870" on="1"/>
        <pt x="829" y="809" on="0"/>
        <pt x="891" y="778" on="1"/>
        <pt x="927" y="784" on="1"/>
        <pt x="1030" y="800" on="0"/>
        <pt x="1094" y="805" on="1"/>
        <pt x="1094" y="686" on="1"/>
        <pt x="961" y="678" on="0"/>
        <pt x="662" y="635" on="1"/>
      </contour>
    </TTGlyph>
    <TTGlyph name="uni0643.init" xMin="-20" yMin="0" xMax="1096" yMax="1724">
      <contour>
        <pt x="-10" y="0" on="1"/>
        <pt x="-20" y="0" on="0"/>
        <pt x="-20" y="10" on="1"/>
        <pt x="-20" y="238" on="1"/>
        <pt x="-20" y="246" on="0"/>
        <pt x="-10" y="246" on="1"/>
        <pt x="791" y="246" on="1"/>
        <pt x="791" y="575" on="1"/>
        <pt x="791" y="699" on="0"/>
        <pt x="621" y="831" on="0"/>
        <pt x="465" y="831" on="1"/>
        <pt x="117" y="831" on="1"/>
        <pt x="117" y="1053" on="1"/>
        <pt x="225" y="1282" on="0"/>
        <pt x="620" y="1631" on="0"/>
        <pt x="881" y="1724" on="1"/>
        <pt x="993" y="1450" on="1"/>
        <pt x="815" y="1396" on="0"/>
        <pt x="505" y="1186" on="0"/>
        <pt x="434" y="1077" on="1"/>
        <pt x="512" y="1077" on="1"/>
        <pt x="1096" y="1077" on="0"/>
        <pt x="1096" y="614" on="1"/>
        <pt x="1096" y="0" on="1"/>
      </contour>
    </TTGlyph>
    <TTGlyph name="uni0643.medi" xMin="-20" yMin="0" xMax="1372" yMax="1724">
      <contour>
        <pt x="-10" y="0" on="1"/>
        <pt x="-20" y="0" on="0"/>
        <pt x="-20" y="10" on="1"/>
        <pt x="-20" y="238" on="1"/>
        <pt x="-20" y="246" on="0"/>
        <pt x="-10" y="246" on="1"/>
        <pt x="791" y="246" on="1"/>
        <pt x="791" y="575" on="1"/>
        <pt x="791" y="699" on="0"/>
        <pt x="621" y="831" on="0"/>
        <pt x="465" y="831" on="1"/>
        <pt x="117" y="831" on="1"/>
        <pt x="117" y="1053" on="1"/>
        <pt x="225" y="1282" on="0"/>
        <pt x="620" y="1631" on="0"/>
        <pt x="881" y="1724" on="1"/>
        <pt x="993" y="1450" on="1"/>
        <pt x="815" y="1396" on="0"/>
        <pt x="505" y="1186" on="0"/>
        <pt x="434" y="1077" on="1"/>
        <pt x="512" y="1077" on="1"/>
        <pt x="1096" y="1077" on="0"/>
        <pt x="1096" y="614" on="1"/>
        <pt x="1096" y="246" on="1"/>
        <pt x="1362" y="246" on="1"/>
        <pt x="1372" y="246" on="0"/>
        <pt x="1372" y="238" on="1"/>
        <pt x="1372" y="10" on="1"/>
        <pt x="1372" y="0" on="0"/>
        <pt x="1362" y="0" on="1"/>
      </contour>
    </TTGlyph>
    <TTGlyph name="uni0644" xMin="133" yMin="-492" xMax="1384" yMax="1556">
      <contour>
        <pt x="690" y="-492" on="1"/>
        <pt x="519" y="-492" on="0"/>
        <pt x="266" y="-348" on="0"/>
        <pt x="133" y="-87" on="0"/>
        <pt x="133" y="82" on="1"/>
        <pt x="133" y="198" on="0"/>
        <pt x="189" y="439" on="0"/>
        <pt x="238" y="535" on="1"/>
        <pt x="508" y="535" on="1"/>
        <pt x="476" y="425" on="0"/>
        <pt x="438" y="184" on="0"/>
        <pt x="438" y="80" on="1"/>
        <pt x="438" y="-69" on="0"/>
        <pt x="588" y="-246" on="0"/>
        <pt x="711" y="-246" on="1"/>
        <pt x="772" y="-246" on="1"/>
        <pt x="930" y="-246" on="0"/>
        <pt x="1079" y="-75" on="0"/>
        <pt x="1079" y="80" on="1"/>
        <pt x="1079" y="1556" on="1"/>
        <pt x="1384" y="1556" on="1"/>
        <pt x="1384" y="72" on="1"/>
        <pt x="1384" y="-492" on="0"/>
        <pt x="780" y="-492" on="1"/>
      </contour>
    </TTGlyph>
    <TTGlyph name="uni0644.fina" xMin="133" yMin="-492" xMax="1661" yMax="1556">
      <contour>
        <pt x="690" y="-492" on="1"/>
        <pt x="519" y="-492" on="0"/>
        <pt x="266" y="-348" on="0"/>
        <pt x="133" y="-87" on="0"/>
        <pt x="133" y="82" on="1"/>
        <pt x="133" y="198" on="0"/>
        <pt x="189" y="439" on="0"/>
        <pt x="238" y="535" on="1"/>
        <pt x="508" y="535" on="1"/>
        <pt x="476" y="425" on="0"/>
        <pt x="438" y="184" on="0"/>
        <pt x="438" y="80" on="1"/>
        <pt x="438" y="-69" on="0"/>
        <pt x="588" y="-246" on="0"/>
        <pt x="711" y="-246" on="1"/>
        <pt x="772" y="-246" on="1"/>
        <pt x="930" y="-246" on="0"/>
        <pt x="1079" y="-75" on="0"/>
        <pt x="1079" y="80" on="1"/>
        <pt x="1079" y="1556" on="1"/>
        <pt x="1384" y="1556" on="1"/>
        <pt x="1384" y="246" on="1"/>
        <pt x="1651" y="246" on="1"/>
        <pt x="1661" y="246" on="0"/>
        <pt x="1661" y="238" on="1"/>
        <pt x="1661" y="10" on="1"/>
        <pt x="1661" y="0" on="0"/>
        <pt x="1651" y="0" on="1"/>
        <pt x="1382" y="0" on="1"/>
        <pt x="1345" y="-492" on="0"/>
        <pt x="780" y="-492" on="1"/>
      </contour>
    </TTGlyph>
    <TTGlyph name="uni0644.init" xMin="-20" yMin="0" xMax="551" yMax="1556">
      <contour>
        <pt x="-10" y="0" on="1"/>
        <pt x="-20" y="0" on="0"/>
        <pt x="-20" y="10" on="1"/>
        <pt x="-20" y="238" on="1"/>
        <pt x="-20" y="246" on="0"/>
        <pt x="-10" y="246" on="1"/>
        <pt x="246" y="246" on="1"/>
        <pt x="246" y="1556" on="1"/>
        <pt x="551" y="1556" on="1"/>
        <pt x="551" y="0" on="1"/>
      </contour>
    </TTGlyph>
    <TTGlyph name="uni0644.medi" xMin="-20" yMin="0" xMax="827" yMax="1556">
      <contour>
        <pt x="-10" y="0" on="1"/>
        <pt x="-20" y="0" on="0"/>
        <pt x="-20" y="10" on="1"/>
        <pt x="-20" y="238" on="1"/>
        <pt x="-20" y="246" on="0"/>
        <pt x="-10" y="246" on="1"/>
        <pt x="246" y="246" on="1"/>
        <pt x="246" y="1556" on="1"/>
        <pt x="551" y="1556" on="1"/>
        <pt x="551" y="246" on="1"/>
        <pt x="817" y="246" on="1"/>
        <pt x="827" y="246" on="0"/>
        <pt x="827" y="238" on="1"/>
        <pt x="827" y="10" on="1"/>
        <pt x="827" y="0" on="0"/>
        <pt x="817" y="0" on="1"/>
      </contour>
    </TTGlyph>
    <TTGlyph name="uni06440622.fina" xMin="12" yMin="0" xMax="1554" yMax="1652">
      <component glyphName="uni06440627.fina" x="0" y="0" flags="0x204"/>
      <component glyphName="uni0653" x="336" y="-175" flags="0x4"/>
    </TTGlyph>
    <TTGlyph name="uni06440622.isol" xMin="12" yMin="0" xMax="1278" yMax="1652">
      <component glyphName="uni06440627.isol" x="0" y="0" flags="0x204"/>
      <component glyphName="uni0653" x="336" y="-175" flags="0x4"/>
    </TTGlyph>
    <TTGlyph name="uni06440623.fina" xMin="92" yMin="0" xMax="1554" yMax="1848">
      <component glyphName="uni06440627.fina" x="0" y="0" flags="0x204"/>
      <component glyphName="uni0654" x="315" y="-165" flags="0x4"/>
    </TTGlyph>
    <TTGlyph name="uni06440623.isol" xMin="92" yMin="0" xMax="1278" yMax="1848">
      <component glyphName="uni06440627.isol" x="0" y="0" flags="0x204"/>
      <component glyphName="uni0654" x="315" y="-165" flags="0x4"/>
    </TTGlyph>
    <TTGlyph name="uni06440625.fina" xMin="92" yMin="-604" xMax="1554" yMax="1556">
      <component glyphName="uni06440627.fina" x="0" y="0" flags="0x204"/>
      <component glyphName="uni0655" x="602" y="0" flags="0x4"/>
    </TTGlyph>
    <TTGlyph name="uni06440625.isol" xMin="92" yMin="-604" xMax="1278" yMax="1556">
      <component glyphName="uni06440627.isol" x="0" y="0" flags="0x204"/>
      <component glyphName="uni0655" x="602" y="0" flags="0x4"/>
    </TTGlyph>
    <TTGlyph name="uni06440627.fina" xMin="92" yMin="0" xMax="1554" yMax="1556">
      <contour>
        <pt x="1544" y="246" on="1"/>
        <pt x="1554" y="246" on="0"/>
        <pt x="1554" y="238" on="1"/>
        <pt x="1554" y="10" on="1"/>
        <pt x="1554" y="0" on="0"/>
        <pt x="1544" y="0" on="1"/>
        <pt x="92" y="0" on="1"/>
        <pt x="92" y="246" on="1"/>
        <pt x="463" y="246" on="1"/>
        <pt x="199" y="1280" on="1"/>
        <pt x="518" y="1280" on="1"/>
        <pt x="762" y="246" on="1"/>
        <pt x="973" y="246" on="1"/>
        <pt x="973" y="1556" on="1"/>
        <pt x="1278" y="1556" on="1"/>
        <pt x="1278" y="246" on="1"/>
      </contour>
    </TTGlyph>
    <TTGlyph name="uni06440627.isol" xMin="92" yMin="0" xMax="1278" yMax="1556">
      <contour>
        <pt x="92" y="246" on="1"/>
        <pt x="463" y="246" on="1"/>
        <pt x="199" y="1280" on="1"/>
        <pt x="518" y="1280" on="1"/>
        <pt x="762" y="246" on="1"/>
        <pt x="776" y="246" on="1"/>
        <pt x="878" y="246" on="0"/>
        <pt x="973" y="359" on="0"/>
        <pt x="973" y="483" on="1"/>
        <pt x="973" y="1556" on="1"/>
        <pt x="1278" y="1556" on="1"/>
        <pt x="1278" y="459" on="1"/>
        <pt x="1278" y="250" on="0"/>
        <pt x="1047" y="0" on="0"/>
        <pt x="844" y="0" on="1"/>
        <pt x="92" y="0" on="1"/>
      </contour>
    </TTGlyph>
    <TTGlyph name="uni06440671.fina" xMin="92" yMin="0" xMax="1554" yMax="1761">
      <component glyphName="uni06440627.fina" x="0" y="0" flags="0x204"/>
      <component glyphName="wasla" x="362" y="-140" flags="0x4"/>
    </TTGlyph>
    <TTGlyph name="uni06440671.isol" xMin="92" yMin="0" xMax="1278" yMax="1761">
      <component glyphName="uni06440627.isol" x="0" y="0" flags="0x204"/>
      <component glyphName="wasla" x="362" y="-140" flags="0x4"/>
    </TTGlyph>
    <TTGlyph name="uni06440672.fina" xMin="-18" yMin="0" xMax="1554" yMax="1932">
      <component glyphName="uni06440627.fina" x="0" y="0" flags="0x204"/>
      <component glyphName="wavyhamza_above" x="344" y="-81" flags="0x4"/>
    </TTGlyph>
    <TTGlyph name="uni06440672.isol" xMin="-18" yMin="0" xMax="1278" yMax="1932">
      <component glyphName="uni06440627.isol" x="0" y="0" flags="0x204"/>
      <component glyphName="wavyhamza_above" x="344" y="-81" flags="0x4"/>
    </TTGlyph>
    <TTGlyph name="uni06440673.fina" xMin="92" yMin="-634" xMax="1554" yMax="1556">
      <component glyphName="uni06440627.fina" x="0" y="0" flags="0x204"/>
      <component glyphName="wavyhamza_below" x="676" y="-81" flags="0x4"/>
    </TTGlyph>
    <TTGlyph name="uni06440673.isol" xMin="92" yMin="-634" xMax="1278" yMax="1556">
      <component glyphName="uni06440627.isol" x="0" y="0" flags="0x204"/>
      <component glyphName="wavyhamza_below" x="676" y="-81" flags="0x4"/>
    </TTGlyph>
    <TTGlyph name="uni06440675.fina" xMin="92" yMin="0" xMax="1554" yMax="1871">
      <component glyphName="uni06440627.fina" x="0" y="0" flags="0x204"/>
      <component glyphName="uni0654" x="664" y="-142" flags="0x4"/>
    </TTGlyph>
    <TTGlyph name="uni06440675.isol" xMin="92" yMin="0" xMax="1278" yMax="1883">
      <component glyphName="uni06440627.isol" x="0" y="0" flags="0x204"/>
      <component glyphName="uni0654" x="666" y="-130" flags="0x4"/>
    </TTGlyph>
    <TTGlyph name="uni0645" xMin="133" yMin="-655" xMax="1352" yMax="1014">
      <contour>
        <pt x="133" y="-57" on="1"/>
        <pt x="133" y="77" on="0"/>
        <pt x="273" y="235" on="0"/>
        <pt x="401" y="244" on="1"/>
        <pt x="346" y="374" on="0"/>
        <pt x="346" y="528" on="1"/>
        <pt x="346" y="618" on="0"/>
        <pt x="408" y="828" on="0"/>
        <pt x="451" y="897" on="1"/>
        <pt x="543" y="951" on="0"/>
        <pt x="767" y="1014" on="0"/>
        <pt x="856" y="1014" on="1"/>
        <pt x="996" y="1014" on="0"/>
        <pt x="1224" y="895" on="0"/>
        <pt x="1352" y="674" on="0"/>
        <pt x="1352" y="530" on="1"/>
        <pt x="1352" y="374" on="0"/>
        <pt x="1207" y="134" on="0"/>
        <pt x="949" y="0" on="0"/>
        <pt x="793" y="0" on="1"/>
        <pt x="604" y="0" on="1"/>
        <pt x="512" y="0" on="0"/>
        <pt x="438" y="-73" on="0"/>
        <pt x="438" y="-158" on="1"/>
        <pt x="438" y="-655" on="1"/>
        <pt x="133" y="-655" on="1"/>
      </contour>
      <contour>
        <pt x="629" y="485" on="1"/>
        <pt x="629" y="381" on="0"/>
        <pt x="676" y="246" on="1"/>
        <pt x="754" y="246" on="1"/>
        <pt x="877" y="246" on="0"/>
        <pt x="1044" y="412" on="0"/>
        <pt x="1044" y="530" on="1"/>
        <pt x="1044" y="642" on="0"/>
        <pt x="937" y="768" on="0"/>
        <pt x="850" y="768" on="1"/>
        <pt x="758" y="768" on="0"/>
        <pt x="659" y="711" on="1"/>
        <pt x="629" y="603" on="0"/>
      </contour>
    </TTGlyph>
    <TTGlyph name="uni0645.fina" xMin="133" yMin="-655" xMax="1540" yMax="1014">
      <contour>
        <pt x="1520" y="0" on="1"/>
        <pt x="1411" y="0" on="0"/>
        <pt x="1254" y="62" on="0"/>
        <pt x="1182" y="137" on="1"/>
        <pt x="1103" y="69" on="0"/>
        <pt x="901" y="0" on="0"/>
        <pt x="793" y="0" on="1"/>
        <pt x="604" y="0" on="1"/>
        <pt x="512" y="0" on="0"/>
        <pt x="438" y="-73" on="0"/>
        <pt x="438" y="-158" on="1"/>
        <pt x="438" y="-655" on="1"/>
        <pt x="133" y="-655" on="1"/>
        <pt x="133" y="-57" on="1"/>
        <pt x="133" y="77" on="0"/>
        <pt x="273" y="235" on="0"/>
        <pt x="401" y="244" on="1"/>
        <pt x="346" y="374" on="0"/>
        <pt x="346" y="528" on="1"/>
        <pt x="346" y="618" on="0"/>
        <pt x="408" y="828" on="0"/>
        <pt x="451" y="897" on="1"/>
        <pt x="543" y="951" on="0"/>
        <pt x="767" y="1014" on="0"/>
        <pt x="856" y="1014" on="1"/>
        <pt x="996" y="1014" on="0"/>
        <pt x="1224" y="895" on="0"/>
        <pt x="1352" y="674" on="0"/>
        <pt x="1352" y="530" on="1"/>
        <pt x="1352" y="422" on="0"/>
        <pt x="1313" y="322" on="1"/>
        <pt x="1350" y="280" on="0"/>
        <pt x="1446" y="246" on="0"/>
        <pt x="1520" y="246" on="1"/>
        <pt x="1530" y="246" on="1"/>
        <pt x="1540" y="246" on="0"/>
        <pt x="1540" y="238" on="1"/>
        <pt x="1540" y="10" on="1"/>
        <pt x="1540" y="0" on="0"/>
        <pt x="1530" y="0" on="1"/>
      </contour>
      <contour>
        <pt x="629" y="485" on="1"/>
        <pt x="629" y="381" on="0"/>
        <pt x="676" y="246" on="1"/>
        <pt x="754" y="246" on="1"/>
        <pt x="877" y="246" on="0"/>
        <pt x="1044" y="412" on="0"/>
        <pt x="1044" y="530" on="1"/>
        <pt x="1044" y="642" on="0"/>
        <pt x="937" y="768" on="0"/>
        <pt x="850" y="768" on="1"/>
        <pt x="758" y="768" on="0"/>
        <pt x="659" y="711" on="1"/>
        <pt x="629" y="603" on="0"/>
      </contour>
    </TTGlyph>
    <TTGlyph name="uni0645.init" xMin="-20" yMin="0" xMax="1171" yMax="1014">
      <contour>
        <pt x="221" y="246" on="1"/>
        <pt x="166" y="372" on="0"/>
        <pt x="166" y="528" on="1"/>
        <pt x="166" y="617" on="0"/>
        <pt x="226" y="823" on="0"/>
        <pt x="270" y="897" on="1"/>
        <pt x="369" y="954" on="0"/>
        <pt x="592" y="1014" on="0"/>
        <pt x="676" y="1014" on="1"/>
        <pt x="816" y="1014" on="0"/>
        <pt x="1045" y="894" on="0"/>
        <pt x="1171" y="675" on="0"/>
        <pt x="1171" y="530" on="1"/>
        <pt x="1171" y="374" on="0"/>
        <pt x="1026" y="134" on="0"/>
        <pt x="768" y="0" on="0"/>
        <pt x="612" y="0" on="1"/>
        <pt x="-10" y="0" on="1"/>
        <pt x="-20" y="0" on="0"/>
        <pt x="-20" y="10" on="1"/>
        <pt x="-20" y="238" on="1"/>
        <pt x="-20" y="246" on="0"/>
        <pt x="-10" y="246" on="1"/>
      </contour>
      <contour>
        <pt x="449" y="485" on="1"/>
        <pt x="449" y="381" on="0"/>
        <pt x="496" y="246" on="1"/>
        <pt x="573" y="246" on="1"/>
        <pt x="697" y="246" on="0"/>
        <pt x="864" y="412" on="0"/>
        <pt x="864" y="530" on="1"/>
        <pt x="864" y="639" on="0"/>
        <pt x="758" y="768" on="0"/>
        <pt x="670" y="768" on="1"/>
        <pt x="578" y="768" on="0"/>
        <pt x="479" y="711" on="1"/>
        <pt x="449" y="603" on="0"/>
      </contour>
    </TTGlyph>
    <TTGlyph name="uni0645.medi" xMin="-20" yMin="0" xMax="1358" yMax="1014">
      <contour>
        <pt x="221" y="246" on="1"/>
        <pt x="166" y="372" on="0"/>
        <pt x="166" y="528" on="1"/>
        <pt x="166" y="617" on="0"/>
        <pt x="226" y="823" on="0"/>
        <pt x="270" y="897" on="1"/>
        <pt x="369" y="954" on="0"/>
        <pt x="592" y="1014" on="0"/>
        <pt x="676" y="1014" on="1"/>
        <pt x="816" y="1014" on="0"/>
        <pt x="1045" y="894" on="0"/>
        <pt x="1171" y="675" on="0"/>
        <pt x="1171" y="530" on="1"/>
        <pt x="1171" y="418" on="0"/>
        <pt x="1133" y="319" on="1"/>
        <pt x="1170" y="279" on="0"/>
        <pt x="1265" y="246" on="0"/>
        <pt x="1337" y="246" on="1"/>
        <pt x="1348" y="246" on="1"/>
        <pt x="1358" y="246" on="0"/>
        <pt x="1358" y="238" on="1"/>
        <pt x="1358" y="10" on="1"/>
        <pt x="1358" y="0" on="0"/>
        <pt x="1348" y="0" on="1"/>
        <pt x="1337" y="0" on="1"/>
        <pt x="1229" y="0" on="0"/>
        <pt x="1070" y="61" on="0"/>
        <pt x="999" y="137" on="1"/>
        <pt x="921" y="69" on="0"/>
        <pt x="719" y="0" on="0"/>
        <pt x="612" y="0" on="1"/>
        <pt x="-10" y="0" on="1"/>
        <pt x="-20" y="0" on="0"/>
        <pt x="-20" y="10" on="1"/>
        <pt x="-20" y="238" on="1"/>
        <pt x="-20" y="246" on="0"/>
        <pt x="-10" y="246" on="1"/>
      </contour>
      <contour>
        <pt x="449" y="485" on="1"/>
        <pt x="449" y="381" on="0"/>
        <pt x="496" y="246" on="1"/>
        <pt x="573" y="246" on="1"/>
        <pt x="697" y="246" on="0"/>
        <pt x="864" y="412" on="0"/>
        <pt x="864" y="530" on="1"/>
        <pt x="864" y="639" on="0"/>
        <pt x="758" y="768" on="0"/>
        <pt x="670" y="768" on="1"/>
        <pt x="578" y="768" on="0"/>
        <pt x="479" y="711" on="1"/>
        <pt x="449" y="603" on="0"/>
      </contour>
    </TTGlyph>
    <TTGlyph name="uni0646" xMin="133" yMin="-492" xMax="1384" yMax="1310">
      <component glyphName="uni06BA" x="0" y="0" flags="0x204"/>
      <component glyphName="onedot.above" x="735" y="-175" flags="0x4"/>
    </TTGlyph>
    <TTGlyph name="uni0646.fina" xMin="133" yMin="-492" xMax="1659" yMax="1310">
      <component glyphName="uni06BA.fina" x="0" y="0" flags="0x204"/>
      <component glyphName="onedot.above" x="735" y="-175" flags="0x4"/>
    </TTGlyph>
    <TTGlyph name="uni0646.init" xMin="-20" yMin="0" xMax="551" yMax="1485">
      <component glyphName="uni066E.init" x="0" y="0" flags="0x204"/>
      <component glyphName="onedot.above" x="373" y="0" flags="0x4"/>
    </TTGlyph>
    <TTGlyph name="uni0646.medi" xMin="-20" yMin="0" xMax="827" yMax="1485">
      <component glyphName="uni066E.medi" x="0" y="0" flags="0x204"/>
      <component glyphName="onedot.above" x="373" y="0" flags="0x4"/>
    </TTGlyph>
    <TTGlyph name="uni0647" xMin="133" yMin="-20" xMax="1159" yMax="1034">
      <contour>
        <pt x="643" y="-20" on="1"/>
        <pt x="393" y="-20" on="0"/>
        <pt x="133" y="218" on="0"/>
        <pt x="133" y="451" on="1"/>
        <pt x="133" y="610" on="0"/>
        <pt x="264" y="881" on="0"/>
        <pt x="498" y="1034" on="0"/>
        <pt x="649" y="1034" on="1"/>
        <pt x="788" y="1034" on="0"/>
        <pt x="1016" y="886" on="0"/>
        <pt x="1159" y="609" on="0"/>
        <pt x="1159" y="451" on="1"/>
        <pt x="1159" y="208" on="0"/>
        <pt x="899" y="-20" on="0"/>
      </contour>
      <contour>
        <pt x="641" y="229" on="1"/>
        <pt x="749" y="229" on="0"/>
        <pt x="852" y="344" on="0"/>
        <pt x="852" y="461" on="1"/>
        <pt x="852" y="593" on="0"/>
        <pt x="727" y="788" on="0"/>
        <pt x="639" y="788" on="1"/>
        <pt x="551" y="788" on="0"/>
        <pt x="428" y="598" on="0"/>
        <pt x="428" y="461" on="1"/>
        <pt x="428" y="343" on="0"/>
        <pt x="533" y="229" on="0"/>
      </contour>
    </TTGlyph>
    <TTGlyph name="uni0647.fina" xMin="133" yMin="0" xMax="1362" yMax="1114">
      <contour>
        <pt x="1352" y="246" on="1"/>
        <pt x="1362" y="246" on="0"/>
        <pt x="1362" y="238" on="1"/>
        <pt x="1362" y="10" on="1"/>
        <pt x="1362" y="0" on="0"/>
        <pt x="1352" y="0" on="1"/>
        <pt x="731" y="0" on="1"/>
        <pt x="447" y="0" on="0"/>
        <pt x="133" y="265" on="0"/>
        <pt x="133" y="502" on="1"/>
        <pt x="133" y="653" on="0"/>
        <pt x="277" y="887" on="0"/>
        <pt x="546" y="1014" on="0"/>
        <pt x="731" y="1014" on="1"/>
        <pt x="788" y="1014" on="1"/>
        <pt x="788" y="1114" on="1"/>
        <pt x="1096" y="1114" on="1"/>
        <pt x="1096" y="246" on="1"/>
      </contour>
      <contour>
        <pt x="791" y="246" on="1"/>
        <pt x="791" y="768" on="1"/>
        <pt x="737" y="768" on="1"/>
        <pt x="597" y="768" on="0"/>
        <pt x="446" y="630" on="0"/>
        <pt x="446" y="500" on="1"/>
        <pt x="446" y="378" on="0"/>
        <pt x="594" y="246" on="0"/>
        <pt x="733" y="246" on="1"/>
      </contour>
    </TTGlyph>
    <TTGlyph name="uni0647.init" xMin="-20" yMin="0" xMax="1665" yMax="1409">
      <contour>
        <pt x="770" y="246" on="1"/>
        <pt x="770" y="524" on="1"/>
        <pt x="770" y="630" on="0"/>
        <pt x="695" y="727" on="0"/>
        <pt x="614" y="727" on="1"/>
        <pt x="544" y="727" on="0"/>
        <pt x="457" y="610" on="0"/>
        <pt x="457" y="520" on="1"/>
        <pt x="457" y="246" on="0"/>
        <pt x="705" y="246" on="1"/>
      </contour>
      <contour>
        <pt x="-10" y="0" on="1"/>
        <pt x="-20" y="0" on="0"/>
        <pt x="-20" y="10" on="1"/>
        <pt x="-20" y="238" on="1"/>
        <pt x="-20" y="246" on="0"/>
        <pt x="-10" y="246" on="1"/>
        <pt x="242" y="246" on="1"/>
        <pt x="200" y="284" on="0"/>
        <pt x="143" y="426" on="0"/>
        <pt x="143" y="532" on="1"/>
        <pt x="143" y="652" on="0"/>
        <pt x="271" y="863" on="0"/>
        <pt x="488" y="983" on="0"/>
        <pt x="612" y="983" on="1"/>
        <pt x="751" y="983" on="0"/>
        <pt x="962" y="868" on="0"/>
        <pt x="1075" y="662" on="0"/>
        <pt x="1075" y="537" on="1"/>
        <pt x="1075" y="246" on="1"/>
        <pt x="1360" y="246" on="1"/>
        <pt x="1360" y="625" on="1"/>
        <pt x="1360" y="885" on="0"/>
        <pt x="1104" y="1163" on="0"/>
        <pt x="858" y="1163" on="1"/>
        <pt x="705" y="1163" on="0"/>
        <pt x="472" y="1126" on="0"/>
        <pt x="360" y="1085" on="1"/>
        <pt x="291" y="1319" on="1"/>
        <pt x="432" y="1368" on="0"/>
        <pt x="704" y="1409" on="0"/>
        <pt x="858" y="1409" on="1"/>
        <pt x="1262" y="1409" on="0"/>
        <pt x="1665" y="1020" on="0"/>
        <pt x="1665" y="651" on="1"/>
        <pt x="1665" y="0" on="1"/>
      </contour>
    </TTGlyph>
    <TTGlyph name="uni0647.medi" xMin="-20" yMin="0" xMax="1931" yMax="1409">
      <contour>
        <pt x="1921" y="246" on="1"/>
        <pt x="1931" y="246" on="0"/>
        <pt x="1931" y="238" on="1"/>
        <pt x="1931" y="10" on="1"/>
        <pt x="1931" y="0" on="0"/>
        <pt x="1921" y="0" on="1"/>
        <pt x="-10" y="0" on="1"/>
        <pt x="-20" y="0" on="0"/>
        <pt x="-20" y="10" on="1"/>
        <pt x="-20" y="238" on="1"/>
        <pt x="-20" y="246" on="0"/>
        <pt x="-10" y="246" on="1"/>
        <pt x="242" y="246" on="1"/>
        <pt x="200" y="284" on="0"/>
        <pt x="143" y="426" on="0"/>
        <pt x="143" y="532" on="1"/>
        <pt x="143" y="652" on="0"/>
        <pt x="271" y="863" on="0"/>
        <pt x="488" y="983" on="0"/>
        <pt x="612" y="983" on="1"/>
        <pt x="751" y="983" on="0"/>
        <pt x="962" y="868" on="0"/>
        <pt x="1075" y="662" on="0"/>
        <pt x="1075" y="537" on="1"/>
        <pt x="1075" y="246" on="1"/>
        <pt x="1360" y="246" on="1"/>
        <pt x="1360" y="625" on="1"/>
        <pt x="1360" y="885" on="0"/>
        <pt x="1104" y="1163" on="0"/>
        <pt x="858" y="1163" on="1"/>
        <pt x="705" y="1163" on="0"/>
        <pt x="472" y="1126" on="0"/>
        <pt x="360" y="1085" on="1"/>
        <pt x="291" y="1319" on="1"/>
        <pt x="432" y="1368" on="0"/>
        <pt x="704" y="1409" on="0"/>
        <pt x="858" y="1409" on="1"/>
        <pt x="1262" y="1409" on="0"/>
        <pt x="1665" y="1020" on="0"/>
        <pt x="1665" y="651" on="1"/>
        <pt x="1665" y="246" on="1"/>
      </contour>
      <contour>
        <pt x="770" y="246" on="1"/>
        <pt x="770" y="524" on="1"/>
        <pt x="770" y="630" on="0"/>
        <pt x="695" y="727" on="0"/>
        <pt x="614" y="727" on="1"/>
        <pt x="544" y="727" on="0"/>
        <pt x="457" y="610" on="0"/>
        <pt x="457" y="520" on="1"/>
        <pt x="457" y="246" on="0"/>
        <pt x="705" y="246" on="1"/>
      </contour>
    </TTGlyph>
    <TTGlyph name="uni0648" xMin="133" yMin="-492" xMax="1110" yMax="1014">
      <contour>
        <pt x="569" y="-492" on="1"/>
        <pt x="430" y="-492" on="0"/>
        <pt x="227" y="-449" on="0"/>
        <pt x="133" y="-393" on="1"/>
        <pt x="252" y="-170" on="1"/>
        <pt x="335" y="-213" on="0"/>
        <pt x="483" y="-248" on="0"/>
        <pt x="563" y="-248" on="1"/>
        <pt x="679" y="-248" on="0"/>
        <pt x="805" y="-121" on="0"/>
        <pt x="805" y="-10" on="1"/>
        <pt x="805" y="0" on="1"/>
        <pt x="602" y="0" on="1"/>
        <pt x="383" y="0" on="0"/>
        <pt x="147" y="248" on="0"/>
        <pt x="147" y="477" on="1"/>
        <pt x="147" y="639" on="0"/>
        <pt x="309" y="884" on="0"/>
        <pt x="605" y="1014" on="0"/>
        <pt x="799" y="1014" on="1"/>
        <pt x="1110" y="1014" on="1"/>
        <pt x="1110" y="-6" on="1"/>
        <pt x="1110" y="-239" on="0"/>
        <pt x="827" y="-492" on="0"/>
      </contour>
      <contour>
        <pt x="805" y="246" on="1"/>
        <pt x="805" y="768" on="1"/>
        <pt x="739" y="768" on="1"/>
        <pt x="608" y="768" on="0"/>
        <pt x="461" y="620" on="0"/>
        <pt x="461" y="485" on="1"/>
        <pt x="461" y="362" on="0"/>
        <pt x="561" y="246" on="0"/>
        <pt x="664" y="246" on="1"/>
      </contour>
    </TTGlyph>
    <TTGlyph name="uni0648.fina" xMin="133" yMin="-492" xMax="1376" yMax="1014">
      <contour>
        <pt x="1366" y="246" on="1"/>
        <pt x="1376" y="246" on="0"/>
        <pt x="1376" y="238" on="1"/>
        <pt x="1376" y="10" on="1"/>
        <pt x="1376" y="0" on="0"/>
        <pt x="1366" y="0" on="1"/>
        <pt x="1110" y="0" on="1"/>
        <pt x="1110" y="-234" on="0"/>
        <pt x="827" y="-492" on="0"/>
        <pt x="569" y="-492" on="1"/>
        <pt x="430" y="-492" on="0"/>
        <pt x="227" y="-449" on="0"/>
        <pt x="133" y="-393" on="1"/>
        <pt x="252" y="-170" on="1"/>
        <pt x="335" y="-213" on="0"/>
        <pt x="483" y="-248" on="0"/>
        <pt x="563" y="-248" on="1"/>
        <pt x="679" y="-248" on="0"/>
        <pt x="805" y="-121" on="0"/>
        <pt x="805" y="-10" on="1"/>
        <pt x="805" y="0" on="1"/>
        <pt x="602" y="0" on="1"/>
        <pt x="383" y="0" on="0"/>
        <pt x="147" y="248" on="0"/>
        <pt x="147" y="477" on="1"/>
        <pt x="147" y="639" on="0"/>
        <pt x="309" y="884" on="0"/>
        <pt x="605" y="1014" on="0"/>
        <pt x="799" y="1014" on="1"/>
        <pt x="1110" y="1014" on="1"/>
        <pt x="1110" y="246" on="1"/>
      </contour>
      <contour>
        <pt x="805" y="246" on="1"/>
        <pt x="805" y="768" on="1"/>
        <pt x="739" y="768" on="1"/>
        <pt x="608" y="768" on="0"/>
        <pt x="461" y="620" on="0"/>
        <pt x="461" y="485" on="1"/>
        <pt x="461" y="362" on="0"/>
        <pt x="561" y="246" on="0"/>
        <pt x="664" y="246" on="1"/>
      </contour>
    </TTGlyph>
    <TTGlyph name="uni0649" xMin="133" yMin="-492" xMax="1716" yMax="1032">
      <contour>
        <pt x="545" y="-492" on="1"/>
        <pt x="428" y="-492" on="0"/>
        <pt x="238" y="-373" on="0"/>
        <pt x="133" y="-159" on="0"/>
        <pt x="133" y="-25" on="1"/>
        <pt x="133" y="175" on="0"/>
        <pt x="199" y="371" on="1"/>
        <pt x="471" y="371" on="1"/>
        <pt x="445" y="286" on="0"/>
        <pt x="428" y="134" on="0"/>
        <pt x="428" y="20" on="1"/>
        <pt x="428" y="-50" on="0"/>
        <pt x="497" y="-175" on="0"/>
        <pt x="611" y="-246" on="0"/>
        <pt x="672" y="-246" on="1"/>
        <pt x="1026" y="-246" on="1"/>
        <pt x="1185" y="-246" on="0"/>
        <pt x="1331" y="-188" on="0"/>
        <pt x="1331" y="-123" on="1"/>
        <pt x="1331" y="-81" on="0"/>
        <pt x="1276" y="-14" on="0"/>
        <pt x="1211" y="26" on="1"/>
        <pt x="1125" y="80" on="0"/>
        <pt x="902" y="231" on="0"/>
        <pt x="817" y="347" on="0"/>
        <pt x="817" y="416" on="1"/>
        <pt x="817" y="536" on="0"/>
        <pt x="1034" y="843" on="0"/>
        <pt x="1338" y="1032" on="0"/>
        <pt x="1477" y="1032" on="1"/>
        <pt x="1525" y="1032" on="0"/>
        <pt x="1624" y="995" on="0"/>
        <pt x="1716" y="936" on="1"/>
        <pt x="1606" y="713" on="1"/>
        <pt x="1565" y="736" on="0"/>
        <pt x="1487" y="768" on="0"/>
        <pt x="1444" y="768" on="1"/>
        <pt x="1390" y="768" on="0"/>
        <pt x="1213" y="654" on="0"/>
        <pt x="1098" y="518" on="0"/>
        <pt x="1098" y="467" on="1"/>
        <pt x="1098" y="435" on="0"/>
        <pt x="1191" y="348" on="0"/>
        <pt x="1280" y="292" on="1"/>
        <pt x="1363" y="240" on="0"/>
        <pt x="1547" y="88" on="0"/>
        <pt x="1636" y="-51" on="0"/>
        <pt x="1636" y="-117" on="1"/>
        <pt x="1636" y="-305" on="0"/>
        <pt x="1323" y="-492" on="0"/>
        <pt x="1028" y="-492" on="1"/>
      </contour>
    </TTGlyph>
    <TTGlyph name="uni0649.fina" xMin="133" yMin="-492" xMax="2079" yMax="784">
      <contour>
        <pt x="2058" y="0" on="1"/>
        <pt x="1948" y="0" on="0"/>
        <pt x="1793" y="62" on="0"/>
        <pt x="1710" y="150" on="1"/>
        <pt x="1688" y="173" on="0"/>
        <pt x="1606" y="288" on="1"/>
        <pt x="1509" y="423" on="0"/>
        <pt x="1399" y="514" on="0"/>
        <pt x="1350" y="514" on="1"/>
        <pt x="1317" y="514" on="0"/>
        <pt x="1217" y="446" on="0"/>
        <pt x="1149" y="356" on="0"/>
        <pt x="1149" y="324" on="1"/>
        <pt x="1149" y="282" on="0"/>
        <pt x="1220" y="220" on="0"/>
        <pt x="1297" y="194" on="1"/>
        <pt x="1428" y="150" on="0"/>
        <pt x="1553" y="70" on="0"/>
        <pt x="1616" y="-44" on="0"/>
        <pt x="1616" y="-121" on="1"/>
        <pt x="1616" y="-302" on="0"/>
        <pt x="1323" y="-492" on="0"/>
        <pt x="1028" y="-492" on="1"/>
        <pt x="545" y="-492" on="1"/>
        <pt x="428" y="-492" on="0"/>
        <pt x="238" y="-373" on="0"/>
        <pt x="133" y="-159" on="0"/>
        <pt x="133" y="-25" on="1"/>
        <pt x="133" y="175" on="0"/>
        <pt x="199" y="371" on="1"/>
        <pt x="471" y="371" on="1"/>
        <pt x="445" y="286" on="0"/>
        <pt x="428" y="134" on="0"/>
        <pt x="428" y="20" on="1"/>
        <pt x="428" y="-50" on="0"/>
        <pt x="497" y="-175" on="0"/>
        <pt x="611" y="-246" on="0"/>
        <pt x="672" y="-246" on="1"/>
        <pt x="1026" y="-246" on="1"/>
        <pt x="1192" y="-246" on="0"/>
        <pt x="1313" y="-196" on="0"/>
        <pt x="1313" y="-137" on="1"/>
        <pt x="1313" y="-102" on="0"/>
        <pt x="1246" y="-53" on="0"/>
        <pt x="1172" y="-33" on="1"/>
        <pt x="1000" y="11" on="0"/>
        <pt x="866" y="157" on="0"/>
        <pt x="866" y="281" on="1"/>
        <pt x="866" y="388" on="0"/>
        <pt x="1021" y="623" on="0"/>
        <pt x="1267" y="784" on="0"/>
        <pt x="1380" y="784" on="1"/>
        <pt x="1446" y="784" on="0"/>
        <pt x="1558" y="733" on="0"/>
        <pt x="1663" y="630" on="0"/>
        <pt x="1782" y="460" on="1"/>
        <pt x="1876" y="325" on="0"/>
        <pt x="1991" y="246" on="0"/>
        <pt x="2058" y="246" on="1"/>
        <pt x="2068" y="246" on="1"/>
        <pt x="2079" y="246" on="0"/>
        <pt x="2079" y="238" on="1"/>
        <pt x="2079" y="10" on="1"/>
        <pt x="2079" y="0" on="0"/>
        <pt x="2068" y="0" on="1"/>
      </contour>
    </TTGlyph>
    <TTGlyph name="uni0649.init" xMin="-20" yMin="0" xMax="551" yMax="1014">
      <component glyphName="uni066E.init" x="0" y="0" flags="0x204"/>
    </TTGlyph>
    <TTGlyph name="uni0649.medi" xMin="-20" yMin="0" xMax="827" yMax="1014">
      <component glyphName="uni066E.medi" x="0" y="0" flags="0x204"/>
    </TTGlyph>
    <TTGlyph name="uni064A" xMin="133" yMin="-998" xMax="1716" yMax="1032">
      <component glyphName="uni0649" x="0" y="0" flags="0x204"/>
      <component glyphName="twodots.below" x="862" y="-486" flags="0x4"/>
    </TTGlyph>
    <TTGlyph name="uni064A.fina" xMin="133" yMin="-998" xMax="2079" yMax="784">
      <component glyphName="uni0649.fina" x="0" y="0" flags="0x204"/>
      <component glyphName="twodots.below" x="862" y="-486" flags="0x4"/>
    </TTGlyph>
    <TTGlyph name="uni064A.init" xMin="-20" yMin="-512" xMax="653" yMax="1014">
      <component glyphName="beh_dotless_alt.init" x="0" y="0" flags="0x204"/>
      <component glyphName="twodots.below" x="313" y="0" flags="0x4"/>
    </TTGlyph>
    <TTGlyph name="uni064A.medi" xMin="-20" yMin="-512" xMax="930" yMax="1014">
      <component glyphName="beh_dotless_alt.medi" x="0" y="0" flags="0x204"/>
      <component glyphName="twodots.below" x="422" y="0" flags="0x4"/>
    </TTGlyph>
    <TTGlyph name="uni064B" xMin="-240" yMin="1589" xMax="240" yMax="2132">
      <contour>
        <pt x="-240" y="1722" on="1"/>
        <pt x="240" y="1901" on="1"/>
        <pt x="240" y="1769" on="1"/>
        <pt x="-240" y="1589" on="1"/>
      </contour>
      <contour>
        <pt x="-240" y="1954" on="1"/>
        <pt x="240" y="2132" on="1"/>
        <pt x="240" y="2001" on="1"/>
        <pt x="-240" y="1821" on="1"/>
      </contour>
    </TTGlyph>
    <TTGlyph name="uni064C" xMin="-367" yMin="1597" xMax="391" yMax="2068">
      <contour>
        <pt x="47" y="1597" on="1"/>
        <pt x="-4" y="1597" on="0"/>
        <pt x="-84" y="1617" on="0"/>
        <pt x="-152" y="1653" on="0"/>
        <pt x="-201" y="1696" on="1"/>
        <pt x="-291" y="1620" on="1"/>
        <pt x="-367" y="1718" on="1"/>
        <pt x="-188" y="1876" on="1"/>
        <pt x="-74" y="1716" on="0"/>
        <pt x="39" y="1716" on="1"/>
        <pt x="64" y="1716" on="0"/>
        <pt x="80" y="1720" on="1"/>
        <pt x="18" y="1808" on="0"/>
        <pt x="18" y="1892" on="1"/>
        <pt x="18" y="1972" on="0"/>
        <pt x="125" y="2068" on="0"/>
        <pt x="209" y="2068" on="1"/>
        <pt x="292" y="2068" on="0"/>
        <pt x="391" y="1974" on="0"/>
        <pt x="391" y="1901" on="1"/>
        <pt x="391" y="1818" on="0"/>
        <pt x="298" y="1679" on="0"/>
        <pt x="137" y="1597" on="0"/>
      </contour>
      <contour>
        <pt x="190" y="1761" on="1"/>
        <pt x="235" y="1787" on="0"/>
        <pt x="268" y="1859" on="0"/>
        <pt x="268" y="1888" on="1"/>
        <pt x="268" y="1917" on="0"/>
        <pt x="233" y="1952" on="0"/>
        <pt x="205" y="1952" on="1"/>
        <pt x="180" y="1952" on="0"/>
        <pt x="141" y="1917" on="0"/>
        <pt x="141" y="1882" on="1"/>
        <pt x="141" y="1829" on="0"/>
      </contour>
    </TTGlyph>
    <TTGlyph name="uni064D" xMin="-240" yMin="-834" xMax="240" yMax="-270">
      <contour>
        <pt x="-240" y="-700" on="1"/>
        <pt x="240" y="-522" on="1"/>
        <pt x="240" y="-653" on="1"/>
        <pt x="-240" y="-834" on="1"/>
      </contour>
      <contour>
        <pt x="-240" y="-449" on="1"/>
        <pt x="240" y="-270" on="1"/>
        <pt x="240" y="-401" on="1"/>
        <pt x="-240" y="-582" on="1"/>
      </contour>
    </TTGlyph>
    <TTGlyph name="uni064E" xMin="-240" yMin="1589" xMax="240" yMax="1901">
      <contour>
        <pt x="-240" y="1722" on="1"/>
        <pt x="240" y="1901" on="1"/>
        <pt x="240" y="1769" on="1"/>
        <pt x="-240" y="1589" on="1"/>
      </contour>
    </TTGlyph>
    <TTGlyph name="uni064F" xMin="-301" yMin="1597" xMax="313" yMax="2068">
      <contour>
        <pt x="-82" y="1597" on="1"/>
        <pt x="-199" y="1597" on="0"/>
        <pt x="-301" y="1671" on="1"/>
        <pt x="-231" y="1772" on="1"/>
        <pt x="-145" y="1716" on="0"/>
        <pt x="-86" y="1716" on="1"/>
        <pt x="-36" y="1716" on="0"/>
        <pt x="-2" y="1726" on="1"/>
        <pt x="-59" y="1813" on="0"/>
        <pt x="-59" y="1892" on="1"/>
        <pt x="-59" y="1972" on="0"/>
        <pt x="48" y="2068" on="0"/>
        <pt x="131" y="2068" on="1"/>
        <pt x="214" y="2068" on="0"/>
        <pt x="313" y="1974" on="0"/>
        <pt x="313" y="1901" on="1"/>
        <pt x="313" y="1826" on="0"/>
        <pt x="202" y="1682" on="0"/>
        <pt x="23" y="1597" on="0"/>
      </contour>
      <contour>
        <pt x="106" y="1767" on="1"/>
        <pt x="150" y="1793" on="0"/>
        <pt x="188" y="1861" on="0"/>
        <pt x="188" y="1892" on="1"/>
        <pt x="188" y="1918" on="0"/>
        <pt x="153" y="1952" on="0"/>
        <pt x="127" y="1952" on="1"/>
        <pt x="101" y="1952" on="0"/>
        <pt x="61" y="1917" on="0"/>
        <pt x="61" y="1882" on="1"/>
        <pt x="61" y="1833" on="0"/>
      </contour>
    </TTGlyph>
    <TTGlyph name="uni0650" xMin="-240" yMin="-582" xMax="240" yMax="-270">
      <contour>
        <pt x="-240" y="-449" on="1"/>
        <pt x="240" y="-270" on="1"/>
        <pt x="240" y="-401" on="1"/>
        <pt x="-240" y="-582" on="1"/>
      </contour>
    </TTGlyph>
    <TTGlyph name="uni0651" xMin="-326" yMin="1651" xMax="348" yMax="2060">
      <contour>
        <pt x="-147" y="1651" on="1"/>
        <pt x="-232" y="1651" on="0"/>
        <pt x="-326" y="1756" on="0"/>
        <pt x="-326" y="1849" on="1"/>
        <pt x="-326" y="1978" on="1"/>
        <pt x="-199" y="1978" on="1"/>
        <pt x="-199" y="1882" on="1"/>
        <pt x="-199" y="1826" on="0"/>
        <pt x="-169" y="1769" on="0"/>
        <pt x="-127" y="1769" on="1"/>
        <pt x="-86" y="1769" on="0"/>
        <pt x="-47" y="1810" on="0"/>
        <pt x="-47" y="1864" on="1"/>
        <pt x="-47" y="2030" on="1"/>
        <pt x="70" y="2030" on="1"/>
        <pt x="70" y="1905" on="1"/>
        <pt x="70" y="1860" on="0"/>
        <pt x="101" y="1810" on="0"/>
        <pt x="147" y="1810" on="1"/>
        <pt x="189" y="1810" on="0"/>
        <pt x="221" y="1854" on="0"/>
        <pt x="221" y="1923" on="1"/>
        <pt x="221" y="2060" on="1"/>
        <pt x="348" y="2060" on="1"/>
        <pt x="348" y="1890" on="1"/>
        <pt x="348" y="1796" on="0"/>
        <pt x="251" y="1692" on="0"/>
        <pt x="162" y="1692" on="1"/>
        <pt x="68" y="1692" on="0"/>
        <pt x="18" y="1753" on="1"/>
        <pt x="-33" y="1651" on="0"/>
      </contour>
    </TTGlyph>
    <TTGlyph name="uni0651064B" xMin="-333" yMin="1651" xMax="348" yMax="2613">
      <component glyphName="uni0651" x="0" y="0" flags="0x204"/>
      <component glyphName="uni064B" x="-93" y="481" flags="0x4"/>
    </TTGlyph>
    <TTGlyph name="uni0651064C" xMin="-367" yMin="1651" xMax="391" yMax="2566">
      <component glyphName="uni0651" x="0" y="0" flags="0x204"/>
      <component glyphName="uni064C" x="0" y="498" flags="0x4"/>
    </TTGlyph>
    <TTGlyph name="uni0651064D" xMin="-326" yMin="1071" xMax="353" yMax="2060">
      <component glyphName="uni0651" x="0" y="0" flags="0x204"/>
      <component glyphName="uni064D" x="113" y="1905" flags="0x4"/>
    </TTGlyph>
    <TTGlyph name="uni0651064E" xMin="-326" yMin="1651" xMax="348" yMax="2397">
      <component glyphName="uni0651" x="0" y="0" flags="0x204"/>
      <component glyphName="uni064E" x="-77" y="496" flags="0x4"/>
    </TTGlyph>
    <TTGlyph name="uni0651064F" xMin="-343" yMin="1651" xMax="348" yMax="2625">
      <component glyphName="uni0651" x="0" y="0" flags="0x204"/>
      <component glyphName="uni064F" x="-42" y="557" flags="0x4"/>
    </TTGlyph>
    <TTGlyph name="uni06510650" xMin="-326" yMin="1269" xMax="348" yMax="2060">
      <component glyphName="uni0651" x="0" y="0" flags="0x204"/>
      <component glyphName="uni0650" x="104" y="1851" flags="0x4"/>
    </TTGlyph>
    <TTGlyph name="uni0652" xMin="-225" yMin="1671" xMax="227" yMax="2101">
      <contour>
        <pt x="-2" y="1671" on="1"/>
        <pt x="-105" y="1671" on="0"/>
        <pt x="-225" y="1788" on="0"/>
        <pt x="-225" y="1886" on="1"/>
        <pt x="-225" y="1984" on="0"/>
        <pt x="-105" y="2101" on="0"/>
        <pt x="-2" y="2101" on="1"/>
        <pt x="99" y="2101" on="0"/>
        <pt x="227" y="1984" on="0"/>
        <pt x="227" y="1888" on="1"/>
        <pt x="227" y="1791" on="0"/>
        <pt x="102" y="1671" on="0"/>
      </contour>
      <contour>
        <pt x="-2" y="1796" on="1"/>
        <pt x="38" y="1796" on="0"/>
        <pt x="88" y="1844" on="0"/>
        <pt x="88" y="1886" on="1"/>
        <pt x="88" y="1928" on="0"/>
        <pt x="38" y="1976" on="0"/>
        <pt x="-2" y="1976" on="1"/>
        <pt x="-42" y="1976" on="0"/>
        <pt x="-92" y="1928" on="0"/>
        <pt x="-92" y="1886" on="1"/>
        <pt x="-92" y="1844" on="0"/>
        <pt x="-47" y="1796" on="0"/>
      </contour>
    </TTGlyph>
    <TTGlyph name="uni0653" xMin="-324" yMin="1561" xMax="395" yMax="1827">
      <contour>
        <pt x="-324" y="1561" on="1"/>
        <pt x="-311" y="1690" on="0"/>
        <pt x="-199" y="1825" on="0"/>
        <pt x="-113" y="1825" on="1"/>
        <pt x="-71" y="1825" on="0"/>
        <pt x="10" y="1790" on="0"/>
        <pt x="86" y="1747" on="0"/>
        <pt x="155" y="1712" on="0"/>
        <pt x="184" y="1712" on="1"/>
        <pt x="229" y="1712" on="0"/>
        <pt x="275" y="1765" on="0"/>
        <pt x="291" y="1827" on="1"/>
        <pt x="395" y="1827" on="1"/>
        <pt x="385" y="1704" on="0"/>
        <pt x="275" y="1563" on="0"/>
        <pt x="184" y="1563" on="1"/>
        <pt x="144" y="1563" on="0"/>
        <pt x="65" y="1598" on="0"/>
        <pt x="-11" y="1640" on="0"/>
        <pt x="-82" y="1675" on="0"/>
        <pt x="-113" y="1675" on="1"/>
        <pt x="-158" y="1675" on="0"/>
        <pt x="-205" y="1622" on="0"/>
        <pt x="-219" y="1561" on="1"/>
      </contour>
    </TTGlyph>
    <TTGlyph name="uni0654" xMin="-203" yMin="1565" xMax="229" yMax="2013">
      <contour>
        <pt x="-203" y="1669" on="1"/>
        <pt x="-86" y="1688" on="1"/>
        <pt x="-126" y="1708" on="0"/>
        <pt x="-178" y="1779" on="0"/>
        <pt x="-178" y="1827" on="1"/>
        <pt x="-178" y="1915" on="0"/>
        <pt x="-56" y="2013" on="0"/>
        <pt x="47" y="2013" on="1"/>
        <pt x="148" y="2013" on="0"/>
        <pt x="215" y="1976" on="1"/>
        <pt x="174" y="1872" on="1"/>
        <pt x="122" y="1898" on="0"/>
        <pt x="63" y="1898" on="1"/>
        <pt x="19" y="1898" on="0"/>
        <pt x="-35" y="1846" on="0"/>
        <pt x="-35" y="1800" on="1"/>
        <pt x="-35" y="1768" on="0"/>
        <pt x="1" y="1720" on="0"/>
        <pt x="27" y="1708" on="1"/>
        <pt x="63" y="1714" on="1"/>
        <pt x="167" y="1730" on="0"/>
        <pt x="229" y="1735" on="1"/>
        <pt x="229" y="1616" on="1"/>
        <pt x="156" y="1611" on="0"/>
        <pt x="-181" y="1571" on="0"/>
        <pt x="-203" y="1565" on="1"/>
      </contour>
    </TTGlyph>
    <TTGlyph name="uni0654064B" xMin="-240" yMin="1565" xMax="240" yMax="2599">
      <component glyphName="uni064B" x="0" y="467" flags="0x4"/>
      <component glyphName="uni0654" x="0" y="0" flags="0x4"/>
    </TTGlyph>
    <TTGlyph name="uni0654064C" xMin="-409" yMin="1565" xMax="349" yMax="2603">
      <component glyphName="uni064C" x="-42" y="535" flags="0x4"/>
      <component glyphName="uni0654" x="0" y="0" flags="0x4"/>
    </TTGlyph>
    <TTGlyph name="uni0654064E" xMin="-240" yMin="1565" xMax="240" yMax="2352">
      <component glyphName="uni064E" x="0" y="451" flags="0x4"/>
      <component glyphName="uni0654" x="0" y="0" flags="0x4"/>
    </TTGlyph>
    <TTGlyph name="uni0654064F" xMin="-301" yMin="1565" xMax="313" yMax="2590">
      <component glyphName="uni064F" x="0" y="522" flags="0x4"/>
      <component glyphName="uni0654" x="0" y="0" flags="0x4"/>
    </TTGlyph>
    <TTGlyph name="uni06540652" xMin="-225" yMin="1565" xMax="229" yMax="2545">
      <component glyphName="uni0652" x="0" y="444" flags="0x4"/>
      <component glyphName="uni0654" x="0" y="0" flags="0x4"/>
    </TTGlyph>
    <TTGlyph name="uni0655" xMin="-223" yMin="-604" xMax="209" yMax="-156">
      <contour>
        <pt x="-223" y="-500" on="1"/>
        <pt x="-106" y="-481" on="1"/>
        <pt x="-147" y="-461" on="0"/>
        <pt x="-199" y="-390" on="0"/>
        <pt x="-199" y="-342" on="1"/>
        <pt x="-199" y="-256" on="0"/>
        <pt x="-77" y="-156" on="0"/>
        <pt x="27" y="-156" on="1"/>
        <pt x="128" y="-156" on="0"/>
        <pt x="195" y="-193" on="1"/>
        <pt x="154" y="-297" on="1"/>
        <pt x="97" y="-270" on="0"/>
        <pt x="43" y="-270" on="1"/>
        <pt x="-1" y="-270" on="0"/>
        <pt x="-55" y="-323" on="0"/>
        <pt x="-55" y="-369" on="1"/>
        <pt x="-55" y="-430" on="0"/>
        <pt x="6" y="-461" on="1"/>
        <pt x="43" y="-455" on="1"/>
        <pt x="143" y="-439" on="0"/>
        <pt x="209" y="-434" on="1"/>
        <pt x="209" y="-553" on="1"/>
        <pt x="136" y="-558" on="0"/>
        <pt x="-201" y="-598" on="0"/>
        <pt x="-223" y="-604" on="1"/>
      </contour>
    </TTGlyph>
    <TTGlyph name="uni0655064D" xMin="-240" yMin="-1208" xMax="240" yMax="-156">
      <component glyphName="uni064D" x="0" y="-374" flags="0x4"/>
      <component glyphName="uni0655" x="0" y="0" flags="0x4"/>
    </TTGlyph>
    <TTGlyph name="uni06550650" xMin="-240" yMin="-964" xMax="240" yMax="-156">
      <component glyphName="uni0650" x="0" y="-382" flags="0x4"/>
      <component glyphName="uni0655" x="0" y="0" flags="0x4"/>
    </TTGlyph>
    <TTGlyph name="uni0656" xMin="-59" yMin="-793" xMax="78" yMax="-395">
      <contour>
        <pt x="-59" y="-395" on="1"/>
        <pt x="78" y="-395" on="1"/>
        <pt x="78" y="-793" on="1"/>
        <pt x="-59" y="-793" on="1"/>
      </contour>
    </TTGlyph>
    <TTGlyph name="uni0657" xMin="-115" yMin="1280" xMax="154" yMax="1692">
      <contour>
        <pt x="-115" y="1405" on="1"/>
        <pt x="-115" y="1485" on="0"/>
        <pt x="-19" y="1616" on="0"/>
        <pt x="113" y="1692" on="1"/>
        <pt x="154" y="1630" on="1"/>
        <pt x="64" y="1584" on="0"/>
        <pt x="4" y="1524" on="1"/>
        <pt x="51" y="1509" on="0"/>
        <pt x="113" y="1439" on="0"/>
        <pt x="113" y="1401" on="1"/>
        <pt x="113" y="1351" on="0"/>
        <pt x="34" y="1280" on="0"/>
        <pt x="-14" y="1280" on="1"/>
        <pt x="-60" y="1280" on="0"/>
        <pt x="-115" y="1351" on="0"/>
      </contour>
      <contour>
        <pt x="-35" y="1462" on="1"/>
        <pt x="-47" y="1441" on="0"/>
        <pt x="-47" y="1409" on="1"/>
        <pt x="-47" y="1358" on="0"/>
        <pt x="-6" y="1358" on="1"/>
        <pt x="8" y="1358" on="0"/>
        <pt x="37" y="1380" on="0"/>
        <pt x="37" y="1399" on="1"/>
        <pt x="37" y="1410" on="0"/>
        <pt x="25" y="1429" on="0"/>
        <pt x="6" y="1445" on="0"/>
      </contour>
    </TTGlyph>
    <TTGlyph name="uni0658" xMin="-143" yMin="1315" xMax="123" yMax="1544">
      <contour>
        <pt x="123" y="1544" on="1"/>
        <pt x="123" y="1432" on="0"/>
        <pt x="54" y="1315" on="0"/>
        <pt x="-12" y="1315" on="1"/>
        <pt x="-143" y="1315" on="0"/>
        <pt x="-143" y="1501" on="1"/>
        <pt x="-80" y="1501" on="1"/>
        <pt x="-80" y="1405" on="0"/>
        <pt x="-12" y="1405" on="1"/>
        <pt x="21" y="1405" on="0"/>
        <pt x="53" y="1468" on="0"/>
        <pt x="53" y="1542" on="1"/>
      </contour>
    </TTGlyph>
    <TTGlyph name="uni0659" xMin="-258" yMin="1290" xMax="315" yMax="1534">
      <contour>
        <pt x="315" y="1534" on="1"/>
        <pt x="193" y="1290" on="1"/>
        <pt x="-258" y="1290" on="1"/>
        <pt x="-145" y="1534" on="1"/>
      </contour>
    </TTGlyph>
    <TTGlyph name="uni065A" xMin="-330" yMin="1017" xMax="332" yMax="1425">
      <component glyphName="smallv.arabic" x="0" y="-271" flags="0x4"/>
    </TTGlyph>
    <TTGlyph name="uni065B" xMin="-311" yMin="1068" xMax="309" yMax="1476">
      <component glyphName="circumflex.arabic" x="0" y="-218" flags="0x4"/>
    </TTGlyph>
    <TTGlyph name="uni065C" xMin="-115" yMin="-79" xMax="158" yMax="216">
      <component glyphName="onedot.above" x="0" y="-1269" flags="0x4"/>
    </TTGlyph>
    <TTGlyph name="uni065D" xMin="-301" yMin="1198" xMax="313" yMax="1669">
      <contour>
        <pt x="94" y="1198" on="1"/>
        <pt x="-9" y="1198" on="0"/>
        <pt x="-192" y="1283" on="0"/>
        <pt x="-301" y="1426" on="0"/>
        <pt x="-301" y="1501" on="1"/>
        <pt x="-301" y="1576" on="0"/>
        <pt x="-198" y="1669" on="0"/>
        <pt x="-119" y="1669" on="1"/>
        <pt x="-35" y="1669" on="0"/>
        <pt x="72" y="1572" on="0"/>
        <pt x="72" y="1493" on="1"/>
        <pt x="72" y="1413" on="0"/>
        <pt x="14" y="1327" on="1"/>
        <pt x="48" y="1317" on="0"/>
        <pt x="98" y="1317" on="1"/>
        <pt x="158" y="1317" on="0"/>
        <pt x="244" y="1372" on="1"/>
        <pt x="313" y="1272" on="1"/>
        <pt x="212" y="1198" on="0"/>
      </contour>
      <contour>
        <pt x="-94" y="1368" on="1"/>
        <pt x="-49" y="1434" on="0"/>
        <pt x="-49" y="1483" on="1"/>
        <pt x="-49" y="1518" on="0"/>
        <pt x="-89" y="1552" on="0"/>
        <pt x="-115" y="1552" on="1"/>
        <pt x="-141" y="1552" on="0"/>
        <pt x="-176" y="1519" on="0"/>
        <pt x="-176" y="1493" on="1"/>
        <pt x="-176" y="1462" on="0"/>
        <pt x="-138" y="1394" on="0"/>
      </contour>
    </TTGlyph>
    <TTGlyph name="uni065E" xMin="-254" yMin="958" xMax="258" yMax="1669">
      <contour>
        <pt x="258" y="1524" on="1"/>
        <pt x="176" y="1280" on="1"/>
        <pt x="-254" y="1116" on="1"/>
        <pt x="-182" y="1360" on="1"/>
      </contour>
      <contour>
        <pt x="-86" y="1464" on="1"/>
        <pt x="-126" y="1464" on="0"/>
        <pt x="-182" y="1514" on="0"/>
        <pt x="-182" y="1567" on="1"/>
        <pt x="-182" y="1621" on="0"/>
        <pt x="-126" y="1669" on="0"/>
        <pt x="-86" y="1669" on="1"/>
        <pt x="-48" y="1669" on="0"/>
        <pt x="8" y="1621" on="0"/>
        <pt x="8" y="1567" on="1"/>
        <pt x="8" y="1514" on="0"/>
        <pt x="-48" y="1464" on="0"/>
      </contour>
      <contour>
        <pt x="94" y="958" on="1"/>
        <pt x="54" y="958" on="0"/>
        <pt x="-2" y="1008" on="0"/>
        <pt x="-2" y="1061" on="1"/>
        <pt x="-2" y="1115" on="0"/>
        <pt x="54" y="1163" on="0"/>
        <pt x="94" y="1163" on="1"/>
        <pt x="132" y="1163" on="0"/>
        <pt x="188" y="1115" on="0"/>
        <pt x="188" y="1061" on="1"/>
        <pt x="188" y="1008" on="0"/>
        <pt x="132" y="958" on="0"/>
      </contour>
    </TTGlyph>
    <TTGlyph name="uni0660" xMin="205" yMin="371" xMax="571" yMax="836">
      <contour>
        <pt x="205" y="836" on="1"/>
        <pt x="571" y="836" on="1"/>
        <pt x="571" y="371" on="1"/>
        <pt x="205" y="371" on="1"/>
      </contour>
    </TTGlyph>
    <TTGlyph name="uni0661" xMin="205" yMin="0" xMax="510" yMax="1380">
      <contour>
        <pt x="205" y="1380" on="1"/>
        <pt x="510" y="1380" on="1"/>
        <pt x="510" y="0" on="1"/>
        <pt x="205" y="0" on="1"/>
      </contour>
    </TTGlyph>
    <TTGlyph name="uni0662" xMin="92" yMin="0" xMax="1038" yMax="1380">
      <contour>
        <pt x="92" y="1186" on="1"/>
        <pt x="92" y="1380" on="1"/>
        <pt x="1038" y="1380" on="1"/>
        <pt x="1038" y="1120" on="1"/>
        <pt x="428" y="1120" on="1"/>
        <pt x="846" y="0" on="1"/>
        <pt x="522" y="0" on="1"/>
      </contour>
    </TTGlyph>
    <TTGlyph name="uni0663" xMin="92" yMin="0" xMax="1217" yMax="1380">
      <contour>
        <pt x="92" y="1380" on="1"/>
        <pt x="399" y="1380" on="1"/>
        <pt x="510" y="1094" on="1"/>
        <pt x="522" y="1081" on="0"/>
        <pt x="539" y="1081" on="1"/>
        <pt x="563" y="1081" on="0"/>
        <pt x="578" y="1194" on="0"/>
        <pt x="578" y="1380" on="1"/>
        <pt x="821" y="1380" on="1"/>
        <pt x="821" y="1155" on="0"/>
        <pt x="813" y="1094" on="1"/>
        <pt x="828" y="1081" on="0"/>
        <pt x="870" y="1081" on="1"/>
        <pt x="915" y="1081" on="0"/>
        <pt x="957" y="1132" on="0"/>
        <pt x="973" y="1248" on="0"/>
        <pt x="973" y="1380" on="1"/>
        <pt x="1217" y="1380" on="1"/>
        <pt x="1217" y="1352" on="1"/>
        <pt x="1217" y="1101" on="0"/>
        <pt x="1080" y="887" on="0"/>
        <pt x="920" y="887" on="1"/>
        <pt x="822" y="887" on="0"/>
        <pt x="756" y="934" on="1"/>
        <pt x="711" y="889" on="0"/>
        <pt x="647" y="889" on="1"/>
        <pt x="585" y="889" on="0"/>
        <pt x="557" y="903" on="1"/>
        <pt x="907" y="0" on="1"/>
        <pt x="590" y="0" on="1"/>
      </contour>
    </TTGlyph>
    <TTGlyph name="uni0664" xMin="174" yMin="-20" xMax="1051" yMax="1434">
      <contour>
        <pt x="678" y="-20" on="1"/>
        <pt x="542" y="-20" on="0"/>
        <pt x="312" y="62" on="0"/>
        <pt x="174" y="194" on="0"/>
        <pt x="174" y="260" on="1"/>
        <pt x="174" y="319" on="0"/>
        <pt x="243" y="430" on="0"/>
        <pt x="395" y="558" on="0"/>
        <pt x="571" y="676" on="1"/>
        <pt x="466" y="761" on="1"/>
        <pt x="260" y="927" on="0"/>
        <pt x="260" y="991" on="1"/>
        <pt x="260" y="1044" on="0"/>
        <pt x="441" y="1216" on="0"/>
        <pt x="736" y="1382" on="0"/>
        <pt x="895" y="1434" on="1"/>
        <pt x="971" y="1178" on="1"/>
        <pt x="879" y="1148" on="0"/>
        <pt x="696" y="1065" on="0"/>
        <pt x="565" y="983" on="0"/>
        <pt x="565" y="971" on="1"/>
        <pt x="565" y="961" on="0"/>
        <pt x="621" y="910" on="0"/>
        <pt x="909" y="690" on="1"/>
        <pt x="673" y="526" on="0"/>
        <pt x="536" y="416" on="0"/>
        <pt x="467" y="336" on="0"/>
        <pt x="467" y="311" on="1"/>
        <pt x="467" y="280" on="0"/>
        <pt x="615" y="231" on="0"/>
        <pt x="723" y="231" on="1"/>
        <pt x="899" y="231" on="0"/>
        <pt x="1051" y="279" on="1"/>
        <pt x="1051" y="29" on="1"/>
        <pt x="906" y="-20" on="0"/>
      </contour>
    </TTGlyph>
    <TTGlyph name="uni0665" xMin="133" yMin="-20" xMax="1151" yMax="1399">
      <contour>
        <pt x="639" y="-20" on="1"/>
        <pt x="374" y="-20" on="0"/>
        <pt x="133" y="253" on="0"/>
        <pt x="133" y="532" on="1"/>
        <pt x="133" y="757" on="0"/>
        <pt x="270" y="1167" on="0"/>
        <pt x="504" y="1399" on="0"/>
        <pt x="645" y="1399" on="1"/>
        <pt x="782" y="1399" on="0"/>
        <pt x="1010" y="1176" on="0"/>
        <pt x="1151" y="765" on="0"/>
        <pt x="1151" y="532" on="1"/>
        <pt x="1151" y="337" on="0"/>
        <pt x="1042" y="93" on="0"/>
        <pt x="825" y="-20" on="0"/>
      </contour>
      <contour>
        <pt x="637" y="229" on="1"/>
        <pt x="842" y="229" on="0"/>
        <pt x="842" y="541" on="1"/>
        <pt x="842" y="799" on="0"/>
        <pt x="725" y="1153" on="0"/>
        <pt x="635" y="1153" on="1"/>
        <pt x="581" y="1153" on="0"/>
        <pt x="487" y="990" on="0"/>
        <pt x="430" y="703" on="0"/>
        <pt x="430" y="539" on="1"/>
        <pt x="430" y="229" on="0"/>
      </contour>
    </TTGlyph>
    <TTGlyph name="uni0666" xMin="0" yMin="0" xMax="862" yMax="1380">
      <contour>
        <pt x="557" y="1120" on="1"/>
        <pt x="0" y="1120" on="1"/>
        <pt x="0" y="1380" on="1"/>
        <pt x="862" y="1380" on="1"/>
        <pt x="862" y="0" on="1"/>
        <pt x="557" y="0" on="1"/>
      </contour>
    </TTGlyph>
    <TTGlyph name="uni0667" xMin="41" yMin="0" xMax="1145" yMax="1380">
      <contour>
        <pt x="41" y="1380" on="1"/>
        <pt x="360" y="1380" on="1"/>
        <pt x="545" y="604" on="1"/>
        <pt x="580" y="433" on="0"/>
        <pt x="590" y="313" on="1"/>
        <pt x="596" y="313" on="1"/>
        <pt x="598" y="358" on="0"/>
        <pt x="631" y="562" on="0"/>
        <pt x="641" y="604" on="1"/>
        <pt x="825" y="1380" on="1"/>
        <pt x="1145" y="1380" on="1"/>
        <pt x="750" y="0" on="1"/>
        <pt x="436" y="0" on="1"/>
      </contour>
    </TTGlyph>
    <TTGlyph name="uni0668" xMin="41" yMin="0" xMax="1145" yMax="1380">
      <contour>
        <pt x="436" y="1380" on="1"/>
        <pt x="750" y="1380" on="1"/>
        <pt x="1145" y="0" on="1"/>
        <pt x="825" y="0" on="1"/>
        <pt x="641" y="776" on="1"/>
        <pt x="630" y="820" on="0"/>
        <pt x="598" y="1020" on="0"/>
        <pt x="596" y="1067" on="1"/>
        <pt x="590" y="1067" on="1"/>
        <pt x="580" y="947" on="0"/>
        <pt x="545" y="776" on="1"/>
        <pt x="360" y="0" on="1"/>
        <pt x="41" y="0" on="1"/>
      </contour>
    </TTGlyph>
    <TTGlyph name="uni0669" xMin="61" yMin="0" xMax="1044" yMax="1401">
      <contour>
        <pt x="739" y="516" on="1"/>
        <pt x="575" y="516" on="1"/>
        <pt x="61" y="516" on="0"/>
        <pt x="61" y="969" on="1"/>
        <pt x="61" y="1172" on="0"/>
        <pt x="319" y="1401" on="0"/>
        <pt x="539" y="1401" on="1"/>
        <pt x="795" y="1401" on="0"/>
        <pt x="1044" y="1075" on="0"/>
        <pt x="1044" y="752" on="1"/>
        <pt x="1044" y="0" on="1"/>
        <pt x="739" y="0" on="1"/>
      </contour>
      <contour>
        <pt x="739" y="752" on="1"/>
        <pt x="739" y="960" on="0"/>
        <pt x="641" y="1159" on="0"/>
        <pt x="539" y="1159" on="1"/>
        <pt x="457" y="1159" on="0"/>
        <pt x="365" y="1054" on="0"/>
        <pt x="365" y="963" on="1"/>
        <pt x="365" y="860" on="0"/>
        <pt x="477" y="752" on="0"/>
        <pt x="584" y="752" on="1"/>
      </contour>
    </TTGlyph>
    <TTGlyph name="uni066A" xMin="102" yMin="0" xMax="1110" yMax="1380">
      <contour>
        <pt x="199" y="1266" on="1"/>
        <pt x="457" y="1266" on="1"/>
        <pt x="457" y="1008" on="1"/>
        <pt x="199" y="1008" on="1"/>
      </contour>
      <contour>
        <pt x="870" y="1380" on="1"/>
        <pt x="1110" y="1380" on="1"/>
        <pt x="342" y="0" on="1"/>
        <pt x="102" y="0" on="1"/>
      </contour>
      <contour>
        <pt x="748" y="401" on="1"/>
        <pt x="1006" y="401" on="1"/>
        <pt x="1006" y="143" on="1"/>
        <pt x="748" y="143" on="1"/>
      </contour>
    </TTGlyph>
    <TTGlyph name="uni066B" xMin="133" yMin="-264" xMax="528" yMax="238">
      <contour>
        <pt x="133" y="-264" on="1"/>
        <pt x="196" y="-9" on="0"/>
        <pt x="233" y="238" on="1"/>
        <pt x="514" y="238" on="1"/>
        <pt x="528" y="215" on="1"/>
        <pt x="476" y="13" on="0"/>
        <pt x="352" y="-264" on="1"/>
      </contour>
    </TTGlyph>
    <TTGlyph name="uni066C" xMin="133" yMin="287" xMax="528" yMax="788">
      <contour>
        <pt x="133" y="287" on="1"/>
        <pt x="196" y="544" on="0"/>
        <pt x="233" y="788" on="1"/>
        <pt x="514" y="788" on="1"/>
        <pt x="528" y="766" on="1"/>
        <pt x="476" y="564" on="0"/>
        <pt x="352" y="287" on="1"/>
      </contour>
    </TTGlyph>
    <TTGlyph name="uni066D" xMin="82" yMin="598" xMax="1071" yMax="1556">
      <contour>
        <pt x="571" y="911" on="1"/>
        <pt x="434" y="600" on="1"/>
        <pt x="199" y="719" on="1"/>
        <pt x="420" y="1016" on="1"/>
        <pt x="82" y="1042" on="1"/>
        <pt x="121" y="1292" on="1"/>
        <pt x="485" y="1188" on="1"/>
        <pt x="444" y="1556" on="1"/>
        <pt x="707" y="1556" on="1"/>
        <pt x="666" y="1188" on="1"/>
        <pt x="1038" y="1292" on="1"/>
        <pt x="1071" y="1040" on="1"/>
        <pt x="731" y="1016" on="1"/>
        <pt x="954" y="719" on="1"/>
        <pt x="727" y="598" on="1"/>
      </contour>
    </TTGlyph>
    <TTGlyph name="uni066E" xMin="133" yMin="0" xMax="1602" yMax="1014">
      <contour>
        <pt x="541" y="0" on="1"/>
        <pt x="352" y="0" on="0"/>
        <pt x="133" y="220" on="0"/>
        <pt x="133" y="412" on="1"/>
        <pt x="133" y="489" on="0"/>
        <pt x="169" y="664" on="0"/>
        <pt x="199" y="725" on="1"/>
        <pt x="469" y="725" on="1"/>
        <pt x="438" y="592" on="0"/>
        <pt x="438" y="457" on="1"/>
        <pt x="438" y="362" on="0"/>
        <pt x="544" y="246" on="0"/>
        <pt x="631" y="246" on="1"/>
        <pt x="1296" y="246" on="1"/>
        <pt x="1296" y="1014" on="1"/>
        <pt x="1602" y="1014" on="1"/>
        <pt x="1602" y="0" on="1"/>
      </contour>
    </TTGlyph>
    <TTGlyph name="uni066E.fina" xMin="133" yMin="0" xMax="1878" yMax="1014">
      <contour>
        <pt x="541" y="0" on="1"/>
        <pt x="352" y="0" on="0"/>
        <pt x="133" y="220" on="0"/>
        <pt x="133" y="412" on="1"/>
        <pt x="133" y="489" on="0"/>
        <pt x="169" y="664" on="0"/>
        <pt x="199" y="725" on="1"/>
        <pt x="469" y="725" on="1"/>
        <pt x="438" y="592" on="0"/>
        <pt x="438" y="457" on="1"/>
        <pt x="438" y="362" on="0"/>
        <pt x="544" y="246" on="0"/>
        <pt x="631" y="246" on="1"/>
        <pt x="1296" y="246" on="1"/>
        <pt x="1296" y="1014" on="1"/>
        <pt x="1602" y="1014" on="1"/>
        <pt x="1602" y="246" on="1"/>
        <pt x="1868" y="246" on="1"/>
        <pt x="1878" y="246" on="0"/>
        <pt x="1878" y="238" on="1"/>
        <pt x="1878" y="10" on="1"/>
        <pt x="1878" y="0" on="0"/>
        <pt x="1868" y="0" on="1"/>
      </contour>
    </TTGlyph>
    <TTGlyph name="uni066E.init" xMin="-20" yMin="0" xMax="551" yMax="1014">
      <contour>
        <pt x="-10" y="0" on="1"/>
        <pt x="-20" y="0" on="0"/>
        <pt x="-20" y="10" on="1"/>
        <pt x="-20" y="238" on="1"/>
        <pt x="-20" y="246" on="0"/>
        <pt x="-10" y="246" on="1"/>
        <pt x="246" y="246" on="1"/>
        <pt x="246" y="1014" on="1"/>
        <pt x="551" y="1014" on="1"/>
        <pt x="551" y="0" on="1"/>
      </contour>
    </TTGlyph>
    <TTGlyph name="uni066E.medi" xMin="-20" yMin="0" xMax="827" yMax="1014">
      <contour>
        <pt x="817" y="246" on="1"/>
        <pt x="827" y="246" on="0"/>
        <pt x="827" y="238" on="1"/>
        <pt x="827" y="10" on="1"/>
        <pt x="827" y="0" on="0"/>
        <pt x="817" y="0" on="1"/>
        <pt x="-10" y="0" on="1"/>
        <pt x="-20" y="0" on="0"/>
        <pt x="-20" y="10" on="1"/>
        <pt x="-20" y="238" on="1"/>
        <pt x="-20" y="246" on="0"/>
        <pt x="-10" y="246" on="1"/>
        <pt x="246" y="246" on="1"/>
        <pt x="246" y="1014" on="1"/>
        <pt x="551" y="1014" on="1"/>
        <pt x="551" y="246" on="1"/>
      </contour>
    </TTGlyph>
    <TTGlyph name="uni066F" xMin="133" yMin="-492" xMax="1796" yMax="1014">
      <contour>
        <pt x="676" y="-492" on="1"/>
        <pt x="522" y="-492" on="0"/>
        <pt x="273" y="-344" on="0"/>
        <pt x="133" y="-79" on="0"/>
        <pt x="133" y="82" on="1"/>
        <pt x="133" y="198" on="0"/>
        <pt x="189" y="439" on="0"/>
        <pt x="238" y="535" on="1"/>
        <pt x="508" y="535" on="1"/>
        <pt x="476" y="425" on="0"/>
        <pt x="438" y="184" on="0"/>
        <pt x="438" y="80" on="1"/>
        <pt x="438" y="-74" on="0"/>
        <pt x="607" y="-246" on="0"/>
        <pt x="768" y="-246" on="1"/>
        <pt x="1114" y="-246" on="1"/>
        <pt x="1312" y="-246" on="0"/>
        <pt x="1491" y="-133" on="0"/>
        <pt x="1491" y="-10" on="1"/>
        <pt x="1491" y="0" on="1"/>
        <pt x="1346" y="0" on="1"/>
        <pt x="1334" y="0" on="1"/>
        <pt x="1187" y="0" on="0"/>
        <pt x="960" y="124" on="0"/>
        <pt x="834" y="354" on="0"/>
        <pt x="834" y="508" on="1"/>
        <pt x="834" y="662" on="0"/>
        <pt x="973" y="890" on="0"/>
        <pt x="1243" y="1014" on="0"/>
        <pt x="1434" y="1014" on="1"/>
        <pt x="1796" y="1014" on="1"/>
        <pt x="1796" y="53" on="1"/>
        <pt x="1796" y="-223" on="0"/>
        <pt x="1517" y="-492" on="0"/>
        <pt x="1217" y="-492" on="1"/>
      </contour>
      <contour>
        <pt x="1491" y="246" on="1"/>
        <pt x="1491" y="768" on="1"/>
        <pt x="1438" y="768" on="1"/>
        <pt x="1147" y="768" on="0"/>
        <pt x="1147" y="496" on="1"/>
        <pt x="1147" y="371" on="0"/>
        <pt x="1299" y="246" on="0"/>
        <pt x="1434" y="246" on="1"/>
      </contour>
    </TTGlyph>
    <TTGlyph name="uni066F.fina" xMin="133" yMin="-492" xMax="2062" yMax="1014">
      <contour>
        <pt x="2052" y="246" on="1"/>
        <pt x="2062" y="246" on="0"/>
        <pt x="2062" y="238" on="1"/>
        <pt x="2062" y="10" on="1"/>
        <pt x="2062" y="0" on="0"/>
        <pt x="2052" y="0" on="1"/>
        <pt x="1794" y="0" on="1"/>
        <pt x="1781" y="-252" on="0"/>
        <pt x="1501" y="-492" on="0"/>
        <pt x="1217" y="-492" on="1"/>
        <pt x="676" y="-492" on="1"/>
        <pt x="522" y="-492" on="0"/>
        <pt x="273" y="-344" on="0"/>
        <pt x="133" y="-79" on="0"/>
        <pt x="133" y="82" on="1"/>
        <pt x="133" y="198" on="0"/>
        <pt x="189" y="439" on="0"/>
        <pt x="238" y="535" on="1"/>
        <pt x="508" y="535" on="1"/>
        <pt x="476" y="425" on="0"/>
        <pt x="438" y="184" on="0"/>
        <pt x="438" y="80" on="1"/>
        <pt x="438" y="-74" on="0"/>
        <pt x="607" y="-246" on="0"/>
        <pt x="768" y="-246" on="1"/>
        <pt x="1114" y="-246" on="1"/>
        <pt x="1312" y="-246" on="0"/>
        <pt x="1491" y="-133" on="0"/>
        <pt x="1491" y="-10" on="1"/>
        <pt x="1491" y="0" on="1"/>
        <pt x="1346" y="0" on="1"/>
        <pt x="1334" y="0" on="1"/>
        <pt x="1187" y="0" on="0"/>
        <pt x="960" y="124" on="0"/>
        <pt x="834" y="354" on="0"/>
        <pt x="834" y="508" on="1"/>
        <pt x="834" y="662" on="0"/>
        <pt x="973" y="890" on="0"/>
        <pt x="1243" y="1014" on="0"/>
        <pt x="1434" y="1014" on="1"/>
        <pt x="1796" y="1014" on="1"/>
        <pt x="1796" y="246" on="1"/>
      </contour>
      <contour>
        <pt x="1491" y="246" on="1"/>
        <pt x="1491" y="768" on="1"/>
        <pt x="1438" y="768" on="1"/>
        <pt x="1147" y="768" on="0"/>
        <pt x="1147" y="496" on="1"/>
        <pt x="1147" y="371" on="0"/>
        <pt x="1299" y="246" on="0"/>
        <pt x="1434" y="246" on="1"/>
      </contour>
    </TTGlyph>
    <TTGlyph name="uni066F.init" xMin="-20" yMin="0" xMax="1147" yMax="1014">
      <contour>
        <pt x="842" y="246" on="1"/>
        <pt x="842" y="768" on="1"/>
        <pt x="788" y="768" on="1"/>
        <pt x="650" y="768" on="0"/>
        <pt x="498" y="631" on="0"/>
        <pt x="498" y="500" on="1"/>
        <pt x="498" y="378" on="0"/>
        <pt x="645" y="246" on="0"/>
        <pt x="784" y="246" on="1"/>
      </contour>
      <contour>
        <pt x="283" y="246" on="1"/>
        <pt x="184" y="363" on="0"/>
        <pt x="184" y="516" on="1"/>
        <pt x="184" y="745" on="0"/>
        <pt x="500" y="1014" on="0"/>
        <pt x="782" y="1014" on="1"/>
        <pt x="1147" y="1014" on="1"/>
        <pt x="1147" y="0" on="1"/>
        <pt x="-10" y="0" on="1"/>
        <pt x="-20" y="0" on="0"/>
        <pt x="-20" y="10" on="1"/>
        <pt x="-20" y="238" on="1"/>
        <pt x="-20" y="246" on="0"/>
        <pt x="-10" y="246" on="1"/>
      </contour>
    </TTGlyph>
    <TTGlyph name="uni066F.medi" xMin="-20" yMin="0" xMax="1413" yMax="1014">
      <contour>
        <pt x="1403" y="246" on="1"/>
        <pt x="1413" y="246" on="0"/>
        <pt x="1413" y="238" on="1"/>
        <pt x="1413" y="10" on="1"/>
        <pt x="1413" y="0" on="0"/>
        <pt x="1403" y="0" on="1"/>
        <pt x="-10" y="0" on="1"/>
        <pt x="-20" y="0" on="0"/>
        <pt x="-20" y="10" on="1"/>
        <pt x="-20" y="238" on="1"/>
        <pt x="-20" y="246" on="0"/>
        <pt x="-10" y="246" on="1"/>
        <pt x="283" y="246" on="1"/>
        <pt x="184" y="363" on="0"/>
        <pt x="184" y="516" on="1"/>
        <pt x="184" y="745" on="0"/>
        <pt x="500" y="1014" on="0"/>
        <pt x="782" y="1014" on="1"/>
        <pt x="1147" y="1014" on="1"/>
        <pt x="1147" y="246" on="1"/>
      </contour>
      <contour>
        <pt x="842" y="246" on="1"/>
        <pt x="842" y="768" on="1"/>
        <pt x="788" y="768" on="1"/>
        <pt x="650" y="768" on="0"/>
        <pt x="498" y="631" on="0"/>
        <pt x="498" y="500" on="1"/>
        <pt x="498" y="378" on="0"/>
        <pt x="645" y="246" on="0"/>
        <pt x="784" y="246" on="1"/>
      </contour>
    </TTGlyph>
    <TTGlyph name="uni0670" xMin="-59" yMin="1661" xMax="78" yMax="2058">
      <contour>
        <pt x="-59" y="2058" on="1"/>
        <pt x="78" y="2058" on="1"/>
        <pt x="78" y="1661" on="1"/>
        <pt x="-59" y="1661" on="1"/>
      </contour>
    </TTGlyph>
    <TTGlyph name="uni0671" xMin="90" yMin="0" xMax="589" yMax="1901">
      <component glyphName="alef_alt.isol" x="0" y="0" flags="0x204"/>
      <component glyphName="wasla" x="356" y="0" flags="0x4"/>
    </TTGlyph>
    <TTGlyph name="uni0671.fina" xMin="90" yMin="0" xMax="776" yMax="1901">
      <component glyphName="alef_alt.fina" x="0" y="0" flags="0x204"/>
      <component glyphName="wasla" x="356" y="0" flags="0x4"/>
    </TTGlyph>
    <TTGlyph name="uni0672" xMin="17" yMin="0" xMax="608" yMax="2013">
      <component glyphName="alef_alt.isol" x="0" y="0" flags="0x204"/>
      <component glyphName="wavyhamza_above" x="379" y="0" flags="0x4"/>
    </TTGlyph>
    <TTGlyph name="uni0672.fina" xMin="5" yMin="0" xMax="776" yMax="2013">
      <component glyphName="alef_alt.fina" x="0" y="0" flags="0x204"/>
      <component glyphName="wavyhamza_above" x="367" y="0" flags="0x4"/>
    </TTGlyph>
    <TTGlyph name="uni0673" xMin="-4" yMin="-553" xMax="588" yMax="1556">
      <component glyphName="uni0627" x="0" y="0" flags="0x204"/>
      <component glyphName="wavyhamza_below" x="389" y="0" flags="0x4"/>
    </TTGlyph>
    <TTGlyph name="uni0673.fina" xMin="64" yMin="-553" xMax="776" yMax="1556">
      <component glyphName="uni0627.fina" x="0" y="0" flags="0x204"/>
      <component glyphName="wavyhamza_below" x="457" y="0" flags="0x4"/>
    </TTGlyph>
    <TTGlyph name="uni0675" xMin="205" yMin="0" xMax="1056" yMax="1492">
      <component glyphName="alef_alt.isol" x="0" y="0" flags="0x204"/>
      <component glyphName="uni0654" x="827" y="-521" flags="0x4"/>
    </TTGlyph>
    <TTGlyph name="uni0675.fina" xMin="205" yMin="0" xMax="1083" yMax="1492">
      <component glyphName="alef_alt.fina" x="0" y="0" flags="0x204"/>
      <component glyphName="uni0654" x="854" y="-521" flags="0x4"/>
    </TTGlyph>
    <TTGlyph name="uni0676" xMin="133" yMin="-492" xMax="1212" yMax="1652">
      <component glyphName="uni0648" x="0" y="0" flags="0x204"/>
      <component glyphName="uni0654" x="983" y="-361" flags="0x4"/>
    </TTGlyph>
    <TTGlyph name="uni0676.fina" xMin="133" yMin="-492" xMax="1376" yMax="1652">
      <component glyphName="uni0648.fina" x="0" y="0" flags="0x204"/>
      <component glyphName="uni0654" x="985" y="-361" flags="0x4"/>
    </TTGlyph>
    <TTGlyph name="uni0677" xMin="-12" yMin="-492" xMax="1212" yMax="1652">
      <component glyphName="uni0648" x="0" y="0" flags="0x204"/>
      <component glyphName="uni0654" x="983" y="-361" flags="0x4"/>
      <component glyphName="uni064F" x="289" y="-478" flags="0x4"/>
    </TTGlyph>
    <TTGlyph name="uni0677.fina" xMin="-12" yMin="-492" xMax="1376" yMax="1652">
      <component glyphName="uni0648.fina" x="0" y="0" flags="0x204"/>
      <component glyphName="uni0654" x="985" y="-361" flags="0x4"/>
      <component glyphName="uni064F" x="289" y="-478" flags="0x4"/>
    </TTGlyph>
    <TTGlyph name="uni0678" xMin="133" yMin="-492" xMax="1716" yMax="1613">
      <component glyphName="uni0649" x="0" y="0" flags="0x204"/>
      <component glyphName="uni0654" x="1323" y="-400" flags="0x4"/>
    </TTGlyph>
    <TTGlyph name="uni0678.fina" xMin="133" yMin="-492" xMax="2079" yMax="1365">
      <component glyphName="uni0649.fina" x="0" y="0" flags="0x204"/>
      <component glyphName="uni0654" x="1247" y="-648" flags="0x4"/>
    </TTGlyph>
    <TTGlyph name="uni0679" xMin="133" yMin="0" xMax="1602" yMax="1518">
      <component glyphName="uni066E" x="0" y="0" flags="0x204"/>
      <component glyphName="uni0615" x="854" y="-165" flags="0x4"/>
    </TTGlyph>
    <TTGlyph name="uni0679.fina" xMin="133" yMin="0" xMax="1878" yMax="1518">
      <component glyphName="uni066E.fina" x="0" y="0" flags="0x204"/>
      <component glyphName="uni0615" x="854" y="-165" flags="0x4"/>
    </TTGlyph>
    <TTGlyph name="uni0679.init" xMin="-20" yMin="0" xMax="733" yMax="1683">
      <component glyphName="beh_dotless_alt.init" x="0" y="0" flags="0x204"/>
      <component glyphName="uni0615" x="485" y="0" flags="0x4"/>
    </TTGlyph>
    <TTGlyph name="uni0679.medi" xMin="-20" yMin="0" xMax="930" yMax="1683">
      <component glyphName="beh_dotless_alt.medi" x="0" y="0" flags="0x204"/>
      <component glyphName="uni0615" x="442" y="0" flags="0x4"/>
    </TTGlyph>
    <TTGlyph name="uni067A" xMin="133" yMin="0" xMax="1602" yMax="1427">
      <component glyphName="uni066E" x="0" y="0" flags="0x204"/>
      <component glyphName="twodots.vert.above" x="893" y="-439" flags="0x4"/>
    </TTGlyph>
    <TTGlyph name="uni067A.fina" xMin="133" yMin="0" xMax="1878" yMax="1427">
      <component glyphName="uni066E.fina" x="0" y="0" flags="0x204"/>
      <component glyphName="twodots.vert.above" x="893" y="-439" flags="0x4"/>
    </TTGlyph>
    <TTGlyph name="uni067A.init" xMin="-20" yMin="0" xMax="653" yMax="1866">
      <component glyphName="beh_dotless_alt.init" x="0" y="0" flags="0x204"/>
      <component glyphName="twodots.vert.above" x="516" y="0" flags="0x4"/>
    </TTGlyph>
    <TTGlyph name="uni067A.medi" xMin="-20" yMin="0" xMax="930" yMax="1866">
      <component glyphName="beh_dotless_alt.medi" x="0" y="0" flags="0x204"/>
      <component glyphName="twodots.vert.above" x="467" y="0" flags="0x4"/>
    </TTGlyph>
    <TTGlyph name="uni067B" xMin="133" yMin="-893" xMax="1602" yMax="1014">
      <component glyphName="uni066E" x="0" y="0" flags="0x204"/>
      <component glyphName="twodots.vert.below" x="934" y="0" flags="0x4"/>
    </TTGlyph>
    <TTGlyph name="uni067B.fina" xMin="133" yMin="-893" xMax="1878" yMax="1014">
      <component glyphName="uni066E.fina" x="0" y="0" flags="0x204"/>
      <component glyphName="twodots.vert.below" x="922" y="0" flags="0x4"/>
    </TTGlyph>
</ttFont>
